<svg width="16" height="16" viewBox="0 0 16 16" fill="none" xmlns="http://www.w3.org/2000/svg">
<path fill-rule="evenodd" clip-rule="evenodd" d="M1 2C0.447715 2 0 2.44772 0 3V13C0 13.5523 0.447715 14 1 14H15C15.5523 14 16 13.5523 16 13V3C16 2.44772 15.5523 2 15 2H1ZM6.5 6.5C6.5 7.15311 6.0826 7.70873 5.5 7.91465V8.02765C6.91886 8.18635 8 9.009 8 10C8 11.0149 6.86606 11.009 5.39672 11.0014H5.3966H5.39648H5.39635C5.26666 11.0007 5.13436 11 5 11C4.86564 11 4.73334 11.0007 4.60365 11.0014H4.60352H4.6034H4.60328C3.13394 11.009 2 11.0149 2 10C2 9.009 3.08114 8.18635 4.5 8.02765V7.91465C3.9174 7.70873 3.5 7.15311 3.5 6.5C3.5 5.67157 4.17157 5 5 5C5.82843 5 6.5 5.67157 6.5 6.5ZM14 6H10V7.5H14V6ZM10 8.5H12V10H10V8.5Z" fill="url(#paint0_linear_1564_14367)"/>
<defs>
<linearGradient id="paint0_linear_1564_14367" x1="4.57143" y1="2.54545" x2="9.86497" y2="14.1912" gradientUnits="userSpaceOnUse">
<stop stop-color="#EE5599"/>
<stop offset="0.87235" stop-color="#F288B7"/>
</linearGradient>
</defs>
</svg>
