<svg width="24" height="24" viewBox="0 0 24 24" fill="none" xmlns="http://www.w3.org/2000/svg">
<path d="M5.75 9C5.75 5.54822 8.54822 2.75 12 2.75C15.4518 2.75 18.25 5.54822 18.25 9L18.25 11C18.25 13.1096 18.9342 15.1623 20.2 16.85L20.8 16.4L20.2 16.85L20.275 16.95C20.3677 17.0736 20.2795 17.25 20.125 17.25L3.875 17.25C3.72049 17.25 3.63229 17.0736 3.725 16.95L3.125 16.5L3.725 16.95L3.8 16.85C5.06577 15.1623 5.75 13.1096 5.75 11L5.75 9Z" stroke="#212123" stroke-width="1.5"/>
<path d="M10 20.75H14" stroke="#212123" stroke-width="1.5" stroke-linecap="square"/>
</svg>
