<svg width="16" height="16" viewBox="0 0 16 16" fill="none" xmlns="http://www.w3.org/2000/svg">
<rect x="1" y="1" width="14" height="14" rx="1" fill="url(#paint0_linear_1564_14338)"/>
<rect x="5" y="3" width="6" height="2" rx="1" fill="#616164"/>
<path d="M6.77691 7.82898C6.82119 8.08012 6.82228 8.32669 6.78676 8.55757C6.68941 9.68416 6.90977 10.2422 7.27469 10.9051C7.27469 10.9051 7.37864 11.2415 7.38158 11.2582C7.4929 11.8895 7.16983 12.4742 6.65988 12.5641C5.50144 12.7684 4.11355 10.0006 3.82249 8.34992C3.64438 7.33984 4.16143 6.40437 4.97721 6.26052C5.793 6.11668 6.59881 6.81889 6.77691 7.82898Z" fill="#757578"/>
<path d="M9.39106 7.82898C9.34677 8.08012 9.34569 8.32669 9.38121 8.55757C9.47856 9.68416 9.2582 10.2422 8.89328 10.9051C8.89328 10.9051 8.78933 11.2415 8.78639 11.2582C8.67507 11.8895 8.99813 12.4742 9.50809 12.5641C10.6665 12.7684 12.0544 10.0006 12.3455 8.34992C12.5236 7.33984 12.0065 6.40437 11.1908 6.26052C10.375 6.11668 9.56916 6.81889 9.39106 7.82898Z" fill="#757578"/>
<circle cx="2.5" cy="2.5" r="0.5" fill="#616164"/>
<circle cx="2.5" cy="13.5" r="0.5" fill="#616164"/>
<circle cx="13.5" cy="2.5" r="0.5" fill="#616164"/>
<circle cx="13.5" cy="13.5" r="0.5" fill="#616164"/>
<defs>
<linearGradient id="paint0_linear_1564_14338" x1="1.5" y1="1" x2="15" y2="15" gradientUnits="userSpaceOnUse">
<stop stop-color="#212123"/>
<stop offset="1" stop-color="#424245"/>
</linearGradient>
</defs>
</svg>
