<svg width="24" height="24" viewBox="0 0 24 24" fill="none" xmlns="http://www.w3.org/2000/svg">
<path fill-rule="evenodd" clip-rule="evenodd" d="M14.5116 6.60073L15.689 5.92097C15.7705 5.87388 15.84 5.80844 15.8919 5.72984C16.6305 4.61112 17.8528 3.90546 19.1909 3.82514L19.2455 3.82187L19.2006 3.07321L19.146 3.07649C17.5835 3.17027 16.1555 3.98896 15.2849 5.28823L14.1366 5.95121L14.5116 6.60073Z" fill="#424245"/>
<path d="M13.9843 4.95442C14.3748 4.5639 15.008 4.5639 15.3985 4.95442L15.9843 5.54021C16.3748 5.93073 16.3748 6.5639 15.9843 6.95442L14.3985 8.54021C14.008 8.93073 13.3748 8.93073 12.9843 8.54021L12.3985 7.95442C12.008 7.5639 12.008 6.93073 12.3985 6.54021L13.9843 4.95442Z" fill="#212123"/>
<rect y="5" width="19" height="19" rx="9.5" fill="url(#paint0_linear_1564_14767)"/>
<path fill-rule="evenodd" clip-rule="evenodd" d="M20.5 7L19.8535 5.06064L18.025 5.97494L18.9392 4.14641L17 3.5L18.939 2.85367L18.0248 1.02523L19.8535 1.93958L20.5 0L21.1464 1.93932L22.9747 1.02519L22.0605 2.85351L24 3.5L22.0603 4.14656L22.9745 5.97498L21.1464 5.0609L20.5 7Z" fill="url(#paint1_linear_1564_14767)"/>
<defs>
<linearGradient id="paint0_linear_1564_14767" x1="3.98184" y1="6.65995" x2="13.9568" y2="23.7599" gradientUnits="userSpaceOnUse">
<stop stop-color="#212123"/>
<stop offset="1" stop-color="#424245"/>
</linearGradient>
<linearGradient id="paint1_linear_1564_14767" x1="17.5833" y1="0" x2="22.8333" y2="7" gradientUnits="userSpaceOnUse">
<stop stop-color="#FF3333"/>
<stop offset="1" stop-color="#EE6E73"/>
</linearGradient>
</defs>
</svg>
