<svg width="35" height="33" viewBox="0 0 35 33" fill="none" xmlns="http://www.w3.org/2000/svg">
<path d="M16.1152 1.62639C16.6279 0.395183 18.3721 0.395183 18.8848 1.62639L22.1313 9.42338C22.4916 10.2886 23.3055 10.8796 24.2397 10.9544L32.6625 11.6289C33.993 11.7355 34.5321 13.3961 33.518 14.2639L27.104 19.7521C26.3911 20.362 26.0798 21.3198 26.2977 22.2323L28.2578 30.4407C28.5677 31.7383 27.1565 32.7644 26.0176 32.0696L18.8021 27.6672C18.0026 27.1794 16.9974 27.1794 16.1979 27.6672L8.98238 32.0696C7.84354 32.7644 6.43229 31.7383 6.74216 30.4407L8.70233 22.2323C8.92024 21.3198 8.6089 20.362 7.89605 19.7521L1.48199 14.2639C0.467855 13.3961 1.00701 11.7355 2.33746 11.6289L10.7603 10.9544C11.6945 10.8796 12.5084 10.2886 12.8687 9.42338L16.1152 1.62639Z" fill="url(#paint0_linear_1221_37276)" stroke="url(#paint1_linear_1221_37276)"/>
<defs>
<linearGradient id="paint0_linear_1221_37276" x1="17.5" y1="-3" x2="17.5" y2="35" gradientUnits="userSpaceOnUse">
<stop stop-color="#EE559A"/>
<stop offset="1" stop-color="#FF81BA"/>
</linearGradient>
<linearGradient id="paint1_linear_1221_37276" x1="17.5" y1="-3" x2="17.5" y2="35" gradientUnits="userSpaceOnUse">
<stop stop-color="#EA5598"/>
<stop offset="1" stop-color="#FD7CB6" stop-opacity="0"/>
</linearGradient>
</defs>
</svg>
