<svg width="64" height="64" viewBox="0 0 64 64" fill="none" xmlns="http://www.w3.org/2000/svg">
<rect width="64" height="64" rx="32" fill="#FBE3EE"/>
<mask id="mask0_1187_13885" style="mask-type:alpha" maskUnits="userSpaceOnUse" x="0" y="0" width="64" height="64">
<rect width="64" height="64" rx="32" fill="#EC76AB"/>
</mask>
<g mask="url(#mask0_1187_13885)">
<path d="M15.0589 27.8521C15.0589 27.8521 14.5968 30.8281 11.0546 33.1776C7.51236 35.527 4.97118 38.2681 7.58936 42.8104C7.58936 42.8104 8.66744 44.5334 12.3637 44.2201C12.3637 44.2201 12.3637 48.6058 16.522 49.0757C20.6803 49.5456 21.6043 47.1962 21.7583 47.5094C21.9124 47.8227 23.6065 52.6783 27.9188 50.7987C32.2311 48.9191 41.0097 53.6181 41.0097 53.6181C41.0097 53.6181 46.092 54.4012 48.5562 49.389C48.5562 49.389 53.0225 51.2686 54.8706 47.666C54.8706 47.666 57.1808 44.0635 54.4086 39.9911C51.6364 35.9186 47.1578 32.6951 47.1578 32.6951L15.0589 27.8521Z" fill="url(#paint0_linear_1187_13885)"/>
<path d="M28.4575 54.3231L26.6094 38.9731H39.2383L41.0864 56.9859L28.4575 54.3231Z" fill="url(#paint1_linear_1187_13885)"/>
<path d="M45.0898 18.9241C45.0898 18.9241 49.0433 18.1379 50.3 20.5672C50.3 20.5672 53.9331 19.1168 55.1329 22.1523C56.3326 25.1879 54.7925 27.2241 50.7882 28.3205C46.784 29.417 45.4687 29.5736 45.4687 29.5736L45.0898 18.9241Z" fill="#8F3900"/>
<path d="M22.9891 31.2981C22.9891 33.6774 21.6785 35.6055 20.0629 35.6055C18.4473 35.6055 17.1367 34.3039 17.1367 31.9246C17.1367 29.5454 18.4473 26.9907 20.0629 26.9907C21.6785 26.9907 22.9891 28.9189 22.9891 31.2981Z" fill="url(#paint2_linear_1187_13885)"/>
<path d="M45.4709 29.575C45.4709 29.575 47.7102 28.0087 49.0963 29.2618C50.4824 30.5148 50.4824 32.8643 48.7882 34.4306C47.0941 35.997 45.9637 36.0298 44.2188 35.3877L45.4693 29.575H45.4709Z" fill="url(#paint3_linear_1187_13885)"/>
<path d="M41.7406 39.3976C44.365 36.3464 45.8543 31.9481 45.9836 26.5991C46.1654 19.0808 41.756 13.5986 33.3825 13.5986C25.0089 13.5986 20.404 21.7435 20.6566 27.9305C20.6566 27.9305 19.8064 34.0517 24.0048 39.1344L41.7406 39.3976Z" fill="#FED4C2"/>
<path d="M33.3856 13.5984C41.7576 13.5984 46.1685 19.0806 45.9867 26.5989C45.8574 31.9479 44.3665 36.3461 41.7437 39.3973L24.0079 39.1342C19.8095 34.0515 20.6597 27.9303 20.6597 27.9303C20.4086 21.7433 25.0135 13.5984 33.3856 13.5984ZM33.3856 13.2852C29.9496 13.2852 26.8632 14.6322 24.4591 17.1806C21.7778 20.0219 20.2053 24.1335 20.3516 27.9162C20.3224 28.1464 20.1607 29.625 20.4564 31.6722C20.7474 33.6881 21.5591 36.6547 23.7738 39.3363L23.8646 39.4459H24.0048L41.7406 39.7106H41.8839L41.9778 39.6041C44.673 36.4683 46.1669 31.9745 46.2978 26.6083C46.3948 22.6298 45.2444 19.2748 42.9712 16.9065C40.6995 14.5382 37.3868 13.2883 33.3886 13.2883L33.3856 13.2852Z" fill="#8F3900" stroke="#8F3900" stroke-width="0.1"/>
<path d="M20.6604 27.9305C20.6604 27.9305 19.2173 38.3262 29.382 43.2711C29.382 43.2711 33.0783 45.0817 38.0066 42.419C42.935 39.7562 45.8042 34.1175 45.9875 26.5991C46.1707 19.0808 41.7583 13.5986 33.3863 13.5986C25.0143 13.5986 20.4078 21.7435 20.6604 27.9305Z" fill="url(#paint4_linear_1187_13885)"/>
<path d="M22.1361 31.6727C22.2008 31.4237 22.2763 31.1778 22.3209 30.9256C22.4472 30.2098 23.0725 29.0398 26.008 30.4228C29.9953 32.3024 28.9172 33.8687 26.453 34.9652C24.1937 35.9707 21.8065 32.9258 22.1361 31.6743V31.6727Z" fill="#FFD3C1"/>
<path d="M39.6826 34.9419C39.1466 34.9841 38.6029 34.898 38.1147 34.6677C37.2985 34.2824 36.4437 33.4382 37.6958 31.6761C39.698 28.8567 42.7782 30.1097 43.3942 31.2062C43.9764 32.2431 43.0446 34.6818 39.6826 34.9419Z" fill="#FFD3C1"/>
<path d="M35.9992 30.3997C36.441 30.3997 36.7992 29.6834 36.7992 28.7997C36.7992 27.9161 36.441 27.1997 35.9992 27.1997C35.5574 27.1997 35.1992 27.9161 35.1992 28.7997C35.1992 29.6834 35.5574 30.3997 35.9992 30.3997Z" fill="black"/>
<path d="M29.6008 30.3997C30.0426 30.3997 30.4008 29.6834 30.4008 28.7997C30.4008 27.9161 30.0426 27.1997 29.6008 27.1997C29.159 27.1997 28.8008 27.9161 28.8008 28.7997C28.8008 29.6834 29.159 30.3997 29.6008 30.3997Z" fill="black"/>
<path fill-rule="evenodd" clip-rule="evenodd" d="M32.9897 29.9106L32.9072 29.8887L32.7812 30.3553L32.8685 30.3731C32.866 30.3726 32.8664 30.3727 32.8702 30.3738C32.8739 30.3749 32.881 30.3771 32.8919 30.3806C32.9109 30.3868 32.9381 30.3961 32.971 30.4086C33.0372 30.4337 33.1258 30.4714 33.2177 30.5222C33.4057 30.6262 33.5886 30.7743 33.6453 30.965C33.7013 31.1585 33.6234 31.4056 33.3616 31.7085L33.3094 31.7689L33.6244 32.0508H33.6985L33.7239 32.0212C34.0752 31.6125 34.2148 31.2087 34.1023 30.8288C34.0034 30.4929 33.727 30.2658 33.4834 30.1239C33.2381 29.9812 33.0119 29.9164 32.9897 29.9106Z" fill="#BA8469"/>
<path fill-rule="evenodd" clip-rule="evenodd" d="M29.8462 34.4968L29.8066 34.4243L29.3359 34.665L29.3702 34.7363C29.3917 34.7811 29.6416 35.2768 30.1517 35.7625C30.6627 36.249 31.4387 36.7288 32.5086 36.7288H32.5104C34.6028 36.7288 35.9172 35.2273 35.9739 35.162L36.0263 35.1016L35.6293 34.7463L35.5722 34.8127L35.5722 34.8127C35.5704 34.8147 35.5509 34.8363 35.5144 34.8731C35.4762 34.9117 35.4199 34.9663 35.3468 35.0316C35.2006 35.1623 34.9876 35.3355 34.7179 35.5082C34.178 35.854 33.4156 36.1952 32.5104 36.1952C31.6125 36.1952 30.9502 35.778 30.5083 35.3541C30.0782 34.9414 29.8619 34.5268 29.8469 34.4982L29.8462 34.4968Z" fill="#BA8469"/>
<path d="M30.9194 15.478C30.9194 15.478 30.1493 28.4785 17.1354 28.6351C17.1354 28.6351 8.35529 28.4785 10.704 21.5867C10.704 21.5867 11.8221 18.454 16.7504 19.2372C16.7504 19.2372 18.3984 11.9996 32.3656 12.1872C32.3656 12.1872 42.3984 12.1872 45.5984 19.1996C45.5984 19.1996 47.3754 26.92 46.0124 28.9484C46.0124 28.9484 45.9077 29.7206 45.8584 29.5749C45.7183 29.1583 45.8584 28.3219 44.9852 28.3109C43.0893 28.2874 35.2086 27.061 32.7583 15.7286C32.7182 15.5422 32.5535 15.4107 32.3656 15.4185L30.9194 15.478Z" fill="#8F3900"/>
<path d="M38.7184 25.971C31.2673 23.775 31.8464 15.1665 31.8464 15.1665H32.6334C32.6334 15.1665 31.8849 22.7256 38.7184 25.368V25.971Z" fill="#8F3900"/>
<path d="M40.4928 22.9262C40.0277 22.1963 39.4563 21.7687 38.7926 21.6559C37.6036 21.4539 36.4932 22.3232 36.4824 22.3326L36.293 22.0867C36.3423 22.0475 37.5174 21.1218 38.8418 21.3474C39.5965 21.4758 40.2387 21.9504 40.7516 22.7571L40.4928 22.9278V22.9262Z" fill="#471C00"/>
<path fill-rule="evenodd" clip-rule="evenodd" d="M36.414 22.102L36.5022 22.2166C36.6151 22.1364 36.8511 21.9812 37.1632 21.8401C37.5984 21.6434 38.1918 21.4695 38.8104 21.5747C39.4823 21.6888 40.0561 22.1108 40.5216 22.8113L40.6395 22.7335C40.1433 21.9821 39.5345 21.5483 38.8305 21.4285C38.1916 21.3197 37.5849 21.4882 37.1278 21.6926C36.7831 21.8467 36.5277 22.0193 36.414 22.102ZM40.4114 22.9497C39.9572 22.2455 39.4085 21.8436 38.7812 21.737C38.2108 21.6401 37.6545 21.7998 37.2346 21.9896C36.8246 22.175 36.5544 22.3844 36.5426 22.3936C36.5423 22.3938 36.5425 22.3936 36.5426 22.3936L36.4733 22.4539L36.1797 22.0728L36.2426 22.0227C36.2702 22.0008 36.5825 21.7549 37.0571 21.5428C37.5309 21.3309 38.1741 21.1493 38.8597 21.2661C39.6443 21.3996 40.305 21.8928 40.8268 22.7136L40.8696 22.7808L40.4114 23.0832V22.9497Z" fill="#471C00"/>
<path d="M25.5292 22.2462L25.2812 22.0598C25.3275 21.9955 26.4271 20.4966 27.8378 20.5436C28.6341 20.5686 29.3548 21.0824 29.9786 22.0676L29.7198 22.2368C29.1531 21.3424 28.517 20.8788 27.8286 20.8553C26.5873 20.8161 25.54 22.2305 25.5292 22.2446V22.2462Z" fill="#471C00"/>
<path fill-rule="evenodd" clip-rule="evenodd" d="M25.3971 22.0437L25.5112 22.1294C25.5109 22.1298 25.5114 22.1291 25.5112 22.1294C25.544 22.0885 25.5924 22.0302 25.653 21.962C25.774 21.8259 25.9476 21.6459 26.1607 21.4674C26.5839 21.1129 27.1768 20.7522 27.8299 20.7728C28.5402 20.797 29.1819 21.263 29.7437 22.1208L29.8619 22.0436C29.2558 21.1143 28.5716 20.6491 27.8336 20.6258C27.1595 20.6034 26.552 20.9509 26.1012 21.3227C25.7474 21.6145 25.4976 21.9148 25.3971 22.0437ZM25.6125 22.2717V22.4139L25.1641 22.0768L25.2104 22.0124C25.2356 21.9774 25.5268 21.5803 25.9916 21.197C26.4548 20.815 27.1027 20.4366 27.8392 20.4611C28.6761 20.4875 29.4185 21.0279 30.0492 22.0243L30.092 22.0917L29.6925 22.3529L29.6463 22.2799C29.0857 21.3953 28.471 20.9597 27.8243 20.9375C27.2361 20.919 26.6847 21.2459 26.2713 21.5923C25.918 21.8883 25.6763 22.1892 25.6125 22.2717Z" fill="#471C00"/>
<path fill-rule="evenodd" clip-rule="evenodd" d="M27.8148 53.401C23.0824 53.0125 18.8586 52.8109 15.999 52.7744C5.08123 52.635 3.19922 67.2003 3.19922 67.2003H60.7992V61.6257C59.2771 58.5784 50.9851 56.4153 41.6683 54.99L41.109 50.4403C41.0951 50.1536 40.8733 49.9218 40.5915 49.9015L27.8856 49.0321C27.633 49.0149 27.4344 49.2499 27.4898 49.502L27.8148 53.401Z" fill="url(#paint5_linear_1187_13885)"/>
<path d="M28.2734 50.365L28.5537 54.6254L28.7047 54.6144L28.4228 50.354L28.2734 50.365Z" fill="black" fill-opacity="0.5"/>
<path d="M29.0273 50.3806L29.3076 54.641L29.4586 54.63L29.1767 50.3696L29.0273 50.3806Z" fill="black" fill-opacity="0.5"/>
<path d="M29.9336 50.3996L30.2154 54.6585L30.3664 54.6475L30.0845 50.3887L29.9336 50.3996Z" fill="black" fill-opacity="0.5"/>
<path d="M30.6875 50.4149L30.9693 54.6737L31.1203 54.6627L30.8384 50.4023L30.6875 50.4149Z" fill="black" fill-opacity="0.5"/>
<path d="M31.5938 50.4323L31.8756 54.6927L32.0265 54.6818L31.7447 50.4214L31.5938 50.4323Z" fill="black" fill-opacity="0.5"/>
<path d="M32.3477 50.448L32.6295 54.7084L32.7804 54.6974L32.4986 50.437L32.3477 50.448Z" fill="black" fill-opacity="0.5"/>
<path d="M33.2539 50.467L33.5357 54.7274L33.6867 54.7149L33.4048 50.4561L33.2539 50.467Z" fill="black" fill-opacity="0.5"/>
<path d="M34.0078 50.4826L34.2897 54.7415L34.4406 54.7305L34.1587 50.4717L34.0078 50.4826Z" fill="black" fill-opacity="0.5"/>
<path d="M34.7617 50.4979L35.0436 54.7567L35.1929 54.7457L34.9127 50.4854L34.7617 50.4979Z" fill="black" fill-opacity="0.5"/>
<path d="M35.5156 50.5124L35.7975 54.7728L35.9469 54.7619L35.6666 50.5015L35.5156 50.5124Z" fill="black" fill-opacity="0.5"/>
<path d="M36.4219 50.531L36.7037 54.7914L36.8531 54.7804L36.5728 50.52L36.4219 50.531Z" fill="black" fill-opacity="0.5"/>
<path d="M37.1758 50.5466L37.4561 54.807L37.607 54.7945L37.3267 50.5356L37.1758 50.5466Z" fill="black" fill-opacity="0.5"/>
<path d="M38.082 50.5657L38.3623 54.8245L38.5133 54.8135L38.233 50.5547L38.082 50.5657Z" fill="black" fill-opacity="0.5"/>
<path d="M38.8359 50.5809L39.1162 54.8397L39.2672 54.8288L38.9869 50.5684L38.8359 50.5809Z" fill="black" fill-opacity="0.5"/>
<path d="M39.7422 50.5984L40.0225 54.8588L40.1734 54.8478L39.8931 50.5874L39.7422 50.5984Z" fill="black" fill-opacity="0.5"/>
<path d="M40.647 50.603L40.4961 50.614L40.7764 54.8744L40.9273 54.8634L40.647 50.603Z" fill="black" fill-opacity="0.5"/>
<path fill-rule="evenodd" clip-rule="evenodd" d="M46.7213 32.234C46.4311 32.7612 46.3377 33.3555 46.3416 33.7358L45.9181 33.7402C45.9136 33.3016 46.0184 32.6319 46.3506 32.0285C46.6866 31.4182 47.2595 30.8706 48.1791 30.7153L48.2494 31.1344C47.4813 31.2642 47.0077 31.7137 46.7213 32.234Z" fill="#F6B397"/>
<path fill-rule="evenodd" clip-rule="evenodd" d="M20.0362 32.9684C19.7295 31.2459 18.8974 30.2585 18.5547 29.997L18.8111 29.6587C19.247 29.9914 20.1297 31.0774 20.4531 32.8937L20.0362 32.9684Z" fill="#F6B397"/>
</g>
<defs>
<linearGradient id="paint0_linear_1187_13885" x1="31.1424" y1="27.8521" x2="31.1424" y2="53.6625" gradientUnits="userSpaceOnUse">
<stop stop-color="#552200"/>
<stop offset="1" stop-color="#8F3900"/>
</linearGradient>
<linearGradient id="paint1_linear_1187_13885" x1="30.4" y1="39.9997" x2="36" y2="55.1997" gradientUnits="userSpaceOnUse">
<stop stop-color="#FFAD7B"/>
<stop offset="0.740514" stop-color="#FBDFD1"/>
</linearGradient>
<linearGradient id="paint2_linear_1187_13885" x1="20.0629" y1="26.9907" x2="20.0629" y2="35.6055" gradientUnits="userSpaceOnUse">
<stop offset="0.385917" stop-color="#FFD6C1"/>
<stop offset="1" stop-color="#FBDFD1"/>
</linearGradient>
<linearGradient id="paint3_linear_1187_13885" x1="46.4008" y1="28.7993" x2="48.0008" y2="35.9993" gradientUnits="userSpaceOnUse">
<stop stop-color="#FFD6C1"/>
<stop offset="1" stop-color="#FBDFD1"/>
</linearGradient>
<linearGradient id="paint4_linear_1187_13885" x1="28" y1="16.0002" x2="36.8" y2="43.2002" gradientUnits="userSpaceOnUse">
<stop stop-color="#FFC8AC"/>
<stop offset="0.750181" stop-color="#FBDFD1"/>
</linearGradient>
<linearGradient id="paint5_linear_1187_13885" x1="24.7992" y1="50.4" x2="37.5992" y2="64" gradientUnits="userSpaceOnUse">
<stop stop-color="#EE5599"/>
<stop offset="1" stop-color="#F288B7"/>
</linearGradient>
</defs>
</svg>
