<svg width="19" height="18" viewBox="0 0 19 18" fill="none" xmlns="http://www.w3.org/2000/svg">
<mask id="mask0_552_3317" style="mask-type:luminance" maskUnits="userSpaceOnUse" x="9" y="7" width="10" height="9">
<path d="M18.4999 9.20523C18.4999 8.56659 18.4417 7.95293 18.3326 7.36426H9.68359V10.8453H14.6256C14.4125 11.9707 13.7659 12.9231 12.793 13.5618V15.8195H15.7606C17.4974 14.2524 18.4988 11.9457 18.4988 9.20423L18.4999 9.20523Z" fill="white"/>
</mask>
<g mask="url(#mask0_552_3317)">
<path d="M23.6025 2.36377H4.58203V20.8195H23.6025V2.36377Z" fill="#3E82F1"/>
</g>
<mask id="mask1_552_3317" style="mask-type:luminance" maskUnits="userSpaceOnUse" x="1" y="10" width="15" height="8">
<path d="M9.67907 17.9999C12.1582 17.9999 14.2376 17.1943 15.7571 15.8191L12.7895 13.5614C11.9675 14.1011 10.9151 14.4209 9.68009 14.4209C7.28863 14.4209 5.26329 12.8378 4.54126 10.71H1.47266V13.0417C2.98401 15.983 6.08934 17.9999 9.67907 17.9999Z" fill="white"/>
</mask>
<g mask="url(#mask1_552_3317)">
<path d="M20.8598 5.70996H-3.62891V23.0003H20.8598V5.70996Z" fill="#32A753"/>
</g>
<mask id="mask2_552_3317" style="mask-type:luminance" maskUnits="userSpaceOnUse" x="0" y="4" width="5" height="10">
<path d="M4.54559 10.7103C4.36202 10.1706 4.258 9.5939 4.258 9.00024C4.258 8.40657 4.36202 7.82989 4.54559 7.29019V4.9585H1.47698C0.854894 6.17382 0.5 7.54805 0.5 9.00024C0.5 10.4524 0.854894 11.8267 1.47698 13.042L4.54559 10.7103Z" fill="white"/>
</mask>
<g mask="url(#mask2_552_3317)">
<path d="M9.64331 -0.0415039H-4.60547V18.0424H9.64331V-0.0415039Z" fill="#F9BB00"/>
</g>
<mask id="mask3_552_3317" style="mask-type:luminance" maskUnits="userSpaceOnUse" x="1" y="0" width="15" height="8">
<path d="M9.67907 3.579C11.0273 3.579 12.2378 4.03275 13.1893 4.92525L15.8234 2.34369C14.2325 0.891502 12.1541 0 9.67907 0C6.08934 0 2.98299 2.01687 1.47266 4.95823L4.54126 7.28992C5.26329 5.16311 7.28761 3.579 9.68009 3.579H9.67907Z" fill="white"/>
</mask>
<g mask="url(#mask3_552_3317)">
<path d="M20.9261 -5H-3.62891V12.2903H20.9261V-5Z" fill="#E74133"/>
</g>
</svg>
