<svg width="16" height="16" viewBox="0 0 16 16" fill="none" xmlns="http://www.w3.org/2000/svg">
<path d="M12 1.33325L15.2929 4.62615C15.6834 5.01667 15.6834 5.64983 15.2929 6.04036L6.04044 15.2928C5.64992 15.6833 5.01675 15.6833 4.62623 15.2928L1.33334 11.9999L12 1.33325Z" fill="url(#paint0_linear_1564_14331)"/>
<path d="M11.6654 5.66667C11.4813 5.85076 11.4813 6.14924 11.6654 6.33333L13.332 8L13.9987 7.33333L12.332 5.66667C12.1479 5.48257 11.8495 5.48257 11.6654 5.66667Z" fill="#1CA2FF"/>
<path d="M7.66536 9.66667C7.48127 9.85076 7.48127 10.1492 7.66536 10.3333L9.33203 12L9.9987 11.3333L8.33203 9.66667C8.14794 9.48257 7.84946 9.48257 7.66536 9.66667Z" fill="#1CA2FF"/>
<path d="M9.66536 7.66667C9.48127 7.85076 9.48127 8.14924 9.66536 8.33333L11.332 10L11.9987 9.33333L10.332 7.66667C10.1479 7.48257 9.84946 7.48257 9.66536 7.66667Z" fill="#1CA2FF"/>
<path d="M5.66536 11.6667C5.48127 11.8508 5.48127 12.1492 5.66536 12.3333L7.33203 14L7.9987 13.3333L6.33203 11.6667C6.14794 11.4826 5.84946 11.4826 5.66536 11.6667Z" fill="#1CA2FF"/>
<path d="M9.96086 0.707107C10.3514 0.316583 10.9846 0.316582 11.3751 0.707107L12.0013 1.33333L1.33464 12L0.708412 11.3738C0.317887 10.9832 0.317886 10.3501 0.708411 9.95956L9.96086 0.707107Z" fill="#0092FF"/>
<defs>
<linearGradient id="paint0_linear_1564_14331" x1="12" y1="1.33325" x2="5.33333" y2="15.9999" gradientUnits="userSpaceOnUse">
<stop stop-color="#8AC9FF"/>
<stop offset="1" stop-color="#B9DDFF"/>
</linearGradient>
</defs>
</svg>
