<svg width="16" height="16" viewBox="0 0 16 16" fill="none" xmlns="http://www.w3.org/2000/svg">
<path fill-rule="evenodd" clip-rule="evenodd" d="M10.2192 2H5.78078L5.28078 4H10.7192L10.2192 2ZM11.1894 1.75746C11.0781 1.3123 10.6781 1 10.2192 1H5.78078C5.32191 1 4.92193 1.3123 4.81063 1.75746L4 5H12L11.1894 1.75746Z" fill="#212123"/>
<rect x="2" y="4.5" width="12" height="9" rx="0.5" fill="#BDBDC0" stroke="#BDBDC0"/>
<path d="M1 4C1 3.44772 1.44772 3 2 3H14C14.5523 3 15 3.44772 15 4V6.3319C15 6.73721 14.7585 7.10352 14.3859 7.26318C10.308 9.01086 5.692 9.01086 1.61408 7.26318C1.24154 7.10352 1 6.73721 1 6.3319V4Z" fill="#BDBDC0"/>
<rect x="7" y="7.5" width="2" height="3" rx="0.5" fill="#E0E0E3"/>
</svg>
