<svg width="204" height="200" viewBox="0 0 204 200" fill="none" xmlns="http://www.w3.org/2000/svg">
<circle cx="58" cy="30" r="30" fill="#EAF5FF"/>
<circle cx="184" cy="76" r="20" fill="#FBE3EE"/>
<circle cx="17" cy="127" r="17" fill="#EEEEF1"/>
<path fill-rule="evenodd" clip-rule="evenodd" d="M47.5 26.375L58 17.625L68.5 26.375V41.125C68.5 41.6773 68.0523 42.125 67.5 42.125H48.5C47.9477 42.125 47.5 41.6773 47.5 41.125V26.375ZM53.625 28.125H57.125V31.625H53.625V28.125ZM57.125 33.375H53.625V36.875H57.125V33.375ZM58.875 28.125H62.375V31.625H58.875V28.125ZM62.375 33.375H58.875V36.875H62.375V33.375Z" fill="url(#paint0_linear_1635_14209)"/>
<path fill-rule="evenodd" clip-rule="evenodd" d="M56.9062 16.2585C57.5454 15.7472 58.4535 15.7472 59.0927 16.2585L72.2177 26.7585L70.0312 29.4915L57.9995 19.8661L45.9677 29.4915L43.7812 26.7585L56.9062 16.2585Z" fill="#3E92DD"/>
<path fill-rule="evenodd" clip-rule="evenodd" d="M19.2192 121H14.7808L14.2808 123H19.7192L19.2192 121ZM20.1894 120.757C20.0781 120.312 19.6781 120 19.2192 120H14.7808C14.3219 120 13.9219 120.312 13.8106 120.757L13 124H21L20.1894 120.757Z" fill="#212123"/>
<rect x="10.5" y="123" width="13" height="10" rx="1" fill="url(#paint1_linear_1635_14209)"/>
<path d="M10 123C10 122.448 10.4477 122 11 122H23C23.5523 122 24 122.448 24 123V125.332C24 125.737 23.7585 126.104 23.3859 126.263C19.308 128.011 14.692 128.011 10.6141 126.263C10.2415 126.104 10 125.737 10 125.332V123Z" fill="url(#paint2_linear_1635_14209)"/>
<rect x="16" y="126.5" width="2" height="3" rx="0.5" fill="#9E9EA1"/>
<path fill-rule="evenodd" clip-rule="evenodd" d="M175.6 78.6875C174.025 77 173.491 75.3958 173.5 73.7262C173.509 72.1379 174.092 70.6849 175.155 69.638C177.927 66.9091 181.575 67.889 184.048 70.387C186.52 67.889 190.073 66.9091 192.845 69.638C193.908 70.6849 194.491 72.1379 194.5 73.7262C194.509 75.3958 193.975 77 192.4 78.6875L188.2 82.625L184.582 85.5C184.214 85.792 183.693 85.7892 183.329 85.4931L179.8 82.625L175.6 78.6875ZM187.75 75.125H180.25V77.375H187.75V75.125Z" fill="url(#paint3_linear_1635_14209)"/>
<path d="M127.688 87.7612C127.688 87.7612 129.287 93.7112 125.29 101.771L124.258 87.7612H127.688Z" fill="#8F3900"/>
<path d="M91 143V118H115V143H91Z" fill="url(#paint4_linear_1635_14209)"/>
<path d="M85.3557 104.414C85.3557 108.429 83.0803 111.682 80.2755 111.682C77.4707 111.682 75.1953 109.486 75.1953 105.471C75.1953 101.456 77.4707 97.1445 80.2755 97.1445C83.0803 97.1445 85.3557 100.398 85.3557 104.414Z" fill="#FBDFD1"/>
<path d="M84.821 104.598C84.821 108.511 82.6653 111.682 80.0081 111.682C77.351 111.682 75.1953 109.541 75.1953 105.628C75.1953 101.715 77.351 97.5132 80.0081 97.5132C82.6653 97.5132 84.821 100.684 84.821 104.598Z" fill="url(#paint5_linear_1635_14209)"/>
<path d="M124.805 101.772C124.805 101.772 128.489 99.1957 130.768 101.257C133.048 103.318 133.048 107.182 130.262 109.758C127.475 112.334 125.616 112.388 122.746 111.332L124.803 101.772H124.805Z" fill="url(#paint6_linear_1635_14209)"/>
<path d="M124.385 101.506C124.385 101.506 128.272 98.8631 130.679 100.978C133.085 103.092 133.085 107.057 130.144 109.7C127.203 112.344 125.24 112.399 122.211 111.315L124.382 101.506H124.385Z" fill="#FBDFD1"/>
<path d="M120.043 80.125C116.099 76.1284 110.348 74.019 103.407 74.019C97.4416 74.019 92.0833 76.2923 87.9095 80.5928C83.2544 85.3877 80.5244 92.3263 80.7785 98.7098C80.7277 99.0983 80.4469 101.594 80.9603 105.048C81.1688 106.46 81.5378 108.146 82.1662 109.96C82.2785 110.279 82.5779 110.496 82.9202 110.496C80.5325 104.208 81.3132 98.7336 81.3132 98.7336C80.8774 88.2927 88.872 74.5477 103.407 74.5477C117.942 74.5477 125.599 83.7991 125.284 96.4868C125.153 101.747 124.214 106.457 122.557 110.496C122.904 110.496 123.22 110.287 123.343 109.965C124.853 106.013 125.696 101.48 125.821 96.5C125.99 89.7861 123.992 84.1242 120.046 80.1276L120.043 80.125Z" fill="#8F3900"/>
<path d="M81.31 98.7308C81.31 98.7308 78.8047 116.274 96.4517 124.619C96.4517 124.619 102.869 127.675 111.425 123.181C119.981 118.687 124.962 109.172 125.281 96.484C125.599 83.7963 117.941 74.5449 103.404 74.5449C88.8662 74.5449 80.8715 88.2899 81.31 98.7308Z" fill="#FBDFD1"/>
<path d="M81.3334 99.4135C81.3334 99.4135 78.8293 116.512 96.4674 124.645C96.4674 124.645 102.881 127.623 111.433 123.243C119.985 118.864 124.964 109.589 125.282 97.2237C125.6 84.858 117.943 75.8413 103.416 75.8413C88.8884 75.8413 80.8951 89.2375 81.3334 99.4135Z" fill="url(#paint7_linear_1635_14209)"/>
<path d="M109 107C109.552 107 110 105.881 110 104.5C110 103.119 109.552 102 109 102C108.448 102 108 103.119 108 104.5C108 105.881 108.448 107 109 107Z" fill="black"/>
<path d="M97 107C97.5523 107 98 105.881 98 104.5C98 103.119 97.5523 102 97 102C96.4477 102 96 103.119 96 104.5C96 105.881 96.4477 107 97 107Z" fill="black"/>
<path d="M86.3386 76.6416C86.3386 76.6416 91.0438 62.39 104.138 60.2523C105.798 59.9814 107.807 60.3517 108.186 61.9899C108.491 63.3125 108.042 65.3594 105.143 68.3208C105.143 68.3208 125.64 61.6648 133.197 68.3208C140.756 74.9768 131.021 81.0778 127.483 80.5263C127.483 80.5263 135.89 87.7372 123.06 92.7317C110.23 97.7229 95.1877 91.6218 89.4367 86.6307C89.4367 86.6307 86.6975 95.899 80.9465 102L80.0019 101.154C80.0019 101.154 72.5724 82.0828 86.3386 76.645V76.6416Z" fill="url(#paint8_linear_1635_14209)"/>
<path d="M104.522 110.394L103.926 109.879C104.615 109.102 104.875 108.412 104.698 107.83C104.359 106.712 102.554 106.21 102.535 106.205L102.744 105.449C102.835 105.473 104.99 106.07 105.458 107.603C105.72 108.459 105.404 109.4 104.524 110.397L104.522 110.394Z" fill="#BA8469"/>
<path fill-rule="evenodd" clip-rule="evenodd" d="M97.7819 113.29L97.847 113.409L97.8483 113.412C97.8728 113.459 98.2286 114.14 98.9361 114.819C99.6628 115.516 100.752 116.203 102.229 116.203C103.718 116.203 104.972 115.642 105.86 115.073C106.303 114.789 106.654 114.504 106.894 114.289C107.014 114.181 107.107 114.092 107.17 114.028C107.23 113.968 107.265 113.929 107.265 113.929L107.359 113.82L108.012 114.404L107.926 114.503C107.832 114.611 105.67 117.08 102.229 117.08H102.226C100.466 117.08 99.19 116.291 98.3496 115.491C97.5106 114.692 97.0995 113.877 97.0641 113.803L97.0078 113.686L97.7819 113.29Z" fill="#BA8469"/>
<path fill-rule="evenodd" clip-rule="evenodd" d="M115.525 93.4282L115.669 93.6503V93.6476L116.567 93.074L116.423 92.852C115.487 91.4246 114.311 90.5867 112.926 90.3568C110.509 89.9576 108.378 91.5885 108.289 91.6572L108.078 91.8211L108.739 92.6511L108.95 92.4899C108.95 92.4896 108.951 92.489 108.953 92.4879C109.035 92.4272 110.853 91.0867 112.752 91.4008C113.829 91.5806 114.76 92.2626 115.525 93.4282Z" fill="#471C00"/>
<path fill-rule="evenodd" clip-rule="evenodd" d="M89.8227 92.5056L89.8231 92.5059L89.8205 92.5085L89.8227 92.5056ZM88.9648 91.8794L89.8227 92.5056L89.9809 92.297C89.9811 92.2968 89.9815 92.2963 89.982 92.2956C90.0361 92.226 91.7718 89.9928 93.7509 90.0582C94.8525 90.0926 95.8846 90.8353 96.8178 92.268L96.9622 92.49L97.8606 91.9164L97.7162 91.6944C96.5798 89.9525 95.2563 89.0458 93.783 89.0009C91.2028 88.919 89.2055 91.5543 89.1226 91.668L88.9648 91.8794Z" fill="#471C00"/>
<path d="M83.8774 107.032C83.9897 106.612 84.1208 106.197 84.1983 105.771C84.4175 104.563 85.5031 102.589 90.5994 104.923C97.5218 108.095 95.6502 110.738 91.3721 112.588C87.4496 114.285 83.3052 109.147 83.8774 107.035V107.032Z" fill="#FFD3C1"/>
<path d="M114.342 112.549C113.411 112.62 112.467 112.475 111.62 112.086C110.203 111.436 108.719 110.011 110.892 107.038C114.368 102.28 119.716 104.394 120.786 106.245C121.796 107.995 120.179 112.11 114.342 112.549Z" fill="#FFD3C1"/>
<path d="M90.2657 128.716C90.1808 128.333 90.4849 127.975 90.8715 128.001H114.825C115.211 127.975 115.515 128.333 115.431 128.716L115.997 132.986C116.129 133.98 116.976 134.718 117.978 134.753C128.281 135.109 140.532 138.609 147.138 146.504C154.615 154.827 156.61 172.445 160.13 183.902C160.529 185.199 159.61 186.558 158.254 186.61L135.443 187.497V196C135.443 198.209 133.652 200 131.443 200H74.2979C72.0888 200 70.2979 198.209 70.2979 196V187.497L47.7109 188.741C45.5175 188.861 43.9071 186.65 44.5637 184.554C48.3371 172.506 51.0598 154.851 58.5577 146.504C65.1641 138.609 77.415 135.109 87.7179 134.753C88.7202 134.718 89.5669 133.98 89.6989 132.986L90.2657 128.716Z" fill="url(#paint9_linear_1635_14209)"/>
<path d="M90.2657 128.716C90.1808 128.333 90.4849 127.975 90.8715 128.001H114.825C115.211 127.975 115.515 128.333 115.431 128.716L115.997 132.986C116.129 133.98 116.976 134.718 117.978 134.753C128.281 135.109 140.532 138.609 147.138 146.504C154.615 154.827 156.61 172.445 160.13 183.902C160.529 185.199 159.61 186.558 158.254 186.61L135.443 187.497V196C135.443 198.209 133.652 200 131.443 200H74.2979C72.0888 200 70.2979 198.209 70.2979 196V187.497L47.7109 188.741C45.5175 188.861 43.9071 186.65 44.5637 184.554C48.3371 172.506 51.0598 154.851 58.5577 146.504C65.1641 138.609 77.415 135.109 87.7179 134.753C88.7202 134.718 89.5669 133.98 89.6989 132.986L90.2657 128.716Z" fill="#4FA0FF"/>
<path d="M92.2344 129.015L92.6626 135L92.8932 134.985L92.4626 129L92.2344 129.015Z" fill="black" fill-opacity="0.3"/>
<path d="M93.3945 129.015L93.8228 135L94.0534 134.985L93.6228 129L93.3945 129.015Z" fill="black" fill-opacity="0.3"/>
<path d="M94.5508 129.015L94.9814 135L95.212 134.985L94.7814 129L94.5508 129.015Z" fill="black" fill-opacity="0.3"/>
<path d="M95.7148 129.018L96.1454 135L96.376 134.985L95.9454 129L95.7148 129.018Z" fill="black" fill-opacity="0.3"/>
<path d="M96.875 129.015L97.3056 135L97.5362 134.985L97.1056 129L96.875 129.015Z" fill="black" fill-opacity="0.3"/>
<path d="M98.0352 129.015L98.4657 135L98.6963 134.985L98.2657 129L98.0352 129.015Z" fill="black" fill-opacity="0.3"/>
<path d="M99.1953 129.015L99.6259 135L99.8565 134.982L99.4259 129L99.1953 129.015Z" fill="black" fill-opacity="0.3"/>
<path d="M100.359 129.015L100.79 135L101.021 134.985L100.59 129L100.359 129.015Z" fill="black" fill-opacity="0.3"/>
<path d="M101.52 129.018L101.95 135L102.178 134.985L101.75 129L101.52 129.018Z" fill="black" fill-opacity="0.3"/>
<path d="M102.68 129.015L103.11 135L103.339 134.985L102.91 129L102.68 129.015Z" fill="black" fill-opacity="0.3"/>
<path d="M103.836 129.015L104.267 135L104.495 134.985L104.067 129L103.836 129.015Z" fill="black" fill-opacity="0.3"/>
<path d="M104.996 129.015L105.424 135L105.655 134.982L105.227 129L104.996 129.015Z" fill="black" fill-opacity="0.3"/>
<path d="M106.156 129.015L106.584 135L106.815 134.985L106.387 129L106.156 129.015Z" fill="black" fill-opacity="0.3"/>
<path d="M107.312 129.018L107.741 135L107.971 134.985L107.543 129L107.312 129.018Z" fill="black" fill-opacity="0.3"/>
<path d="M108.473 129.015L108.901 135L109.131 134.985L108.703 129L108.473 129.015Z" fill="black" fill-opacity="0.3"/>
<path d="M109.859 129L109.629 129.015L110.057 135L110.288 134.985L109.859 129Z" fill="black" fill-opacity="0.3"/>
<path d="M110.789 129.018L111.217 135L111.448 134.985L111.02 129L110.789 129.018Z" fill="black" fill-opacity="0.3"/>
<path d="M111.949 129.015L112.377 135L112.608 134.985L112.18 129L111.949 129.015Z" fill="black" fill-opacity="0.3"/>
<path d="M113.336 129L113.105 129.015L113.534 135L113.764 134.985L113.336 129Z" fill="black" fill-opacity="0.3"/>
<path d="M131.445 163.934L134.555 188.066" stroke="#3575C0"/>
<path d="M73.7344 163.958L70.2659 188.041" stroke="#3575C0"/>
<path d="M89.2408 146.224C89.1108 144.483 90.4876 143 92.2325 143H111.768C113.512 143 114.889 144.483 114.759 146.224L112.833 172H91.1667L89.2408 146.224Z" fill="#212123"/>
<path d="M92.8178 162.223C90.5796 163.708 68.4397 172.125 53.811 177.582C50.2213 178.921 46.0469 180.355 44.7712 183.968C44.345 185.175 44.1888 186.651 44.4983 188.5C45.5558 194.816 53.16 203.805 62.6779 197.489C72.1957 191.173 87.4981 178 96.9981 172.5C103.39 168.799 108.857 167.136 110.267 164.329C112.735 158.714 115.766 147.591 108.152 148.012C100.538 148.433 94.7566 157.661 92.8178 162.223Z" fill="url(#paint10_linear_1635_14209)"/>
<path d="M91.9984 160.5C91.9984 160.5 61.9984 172 48.4014 179.592C46.2863 181.171 43.6523 183.447 44.4983 188.5C45.5558 194.816 53.1603 203.805 62.6782 197.488C72.1961 191.172 97.9984 172 97.9984 172L91.9984 160.5Z" fill="url(#paint11_linear_1635_14209)"/>
<path d="M112.921 154.112L112.107 158.205C111.961 158.939 111.414 159.528 110.665 159.535C106.641 159.577 96.922 157.084 91.3222 155.471C90.7623 155.31 90.1809 155.657 90.107 156.235C89.4051 161.726 92.3241 166.567 93.9728 168.389C96.4993 173.888 103.096 174.558 106.079 174.206C110.29 173.783 115.202 176.85 117.132 178.436L142.924 198.529C147.485 200.468 157.346 202.019 160.293 192.713C163.241 183.406 156.258 178.612 152.398 177.378C145.205 175.087 129.344 169.764 123.449 166.803C116.08 163.101 117.659 155.17 115.553 153.584C113.869 152.315 113.097 153.407 112.921 154.112Z" fill="url(#paint12_linear_1635_14209)"/>
<path d="M152.396 177.378C145.493 175.179 127.529 166.722 120.788 163.834C120.332 163.638 119.811 163.815 119.555 164.241L112.967 175.222C112.702 175.663 112.816 176.234 113.229 176.54L142.922 198.529C147.483 200.468 157.344 202.019 160.291 192.713C163.239 183.406 156.256 178.612 152.396 177.378Z" fill="url(#paint13_linear_1635_14209)"/>
<defs>
<linearGradient id="paint0_linear_1635_14209" x1="53.625" y1="22.875" x2="67.625" y2="42.125" gradientUnits="userSpaceOnUse">
<stop stop-color="#75CDFF"/>
<stop offset="1" stop-color="#BDEFFF"/>
</linearGradient>
<linearGradient id="paint1_linear_1635_14209" x1="16.5" y1="123.5" x2="19.5" y2="133" gradientUnits="userSpaceOnUse">
<stop offset="0.0735722" stop-color="#343436"/>
<stop offset="1" stop-color="#212123"/>
</linearGradient>
<linearGradient id="paint2_linear_1635_14209" x1="12" y1="122" x2="19" y2="128" gradientUnits="userSpaceOnUse">
<stop stop-color="#343436"/>
<stop offset="1" stop-color="#212123"/>
</linearGradient>
<linearGradient id="paint3_linear_1635_14209" x1="179.5" y1="68.8248" x2="188.232" y2="85.4997" gradientUnits="userSpaceOnUse">
<stop stop-color="#EE5599"/>
<stop offset="0.87235" stop-color="#FF8EC0"/>
</linearGradient>
<linearGradient id="paint4_linear_1635_14209" x1="100.336" y1="115.768" x2="102.903" y2="141.645" gradientUnits="userSpaceOnUse">
<stop stop-color="#FFAD7B"/>
<stop offset="0.740514" stop-color="#FBDFD1"/>
</linearGradient>
<linearGradient id="paint5_linear_1635_14209" x1="80.0081" y1="97.5132" x2="80.0081" y2="111.682" gradientUnits="userSpaceOnUse">
<stop offset="0.385917" stop-color="#FFD6C1"/>
<stop offset="1" stop-color="#FBDFD1"/>
</linearGradient>
<linearGradient id="paint6_linear_1635_14209" x1="126.335" y1="100.496" x2="128.967" y2="112.338" gradientUnits="userSpaceOnUse">
<stop stop-color="#FFD6C1"/>
<stop offset="1" stop-color="#FBDFD1"/>
</linearGradient>
<linearGradient id="paint7_linear_1635_14209" x1="94.0693" y1="79.7912" x2="107.921" y2="124.963" gradientUnits="userSpaceOnUse">
<stop stop-color="#FFC8AC"/>
<stop offset="0.750181" stop-color="#FBDFD1"/>
</linearGradient>
<linearGradient id="paint8_linear_1635_14209" x1="122.463" y1="62.6985" x2="77.7378" y2="87.9134" gradientUnits="userSpaceOnUse">
<stop stop-color="#8F3900"/>
<stop offset="1" stop-color="#6D2B00"/>
</linearGradient>
<linearGradient id="paint9_linear_1635_14209" x1="101.868" y1="128" x2="130.974" y2="178.882" gradientUnits="userSpaceOnUse">
<stop stop-color="#ABD2FF"/>
<stop offset="1" stop-color="#4FA0FF"/>
</linearGradient>
<linearGradient id="paint10_linear_1635_14209" x1="110.498" y1="150" x2="90.8844" y2="166.523" gradientUnits="userSpaceOnUse">
<stop stop-color="#FFC8AC"/>
<stop offset="1" stop-color="#FBDFD1"/>
</linearGradient>
<linearGradient id="paint11_linear_1635_14209" x1="53.9983" y1="177.5" x2="76.2654" y2="151.274" gradientUnits="userSpaceOnUse">
<stop stop-color="#4FA0FF"/>
<stop offset="1" stop-color="#65ACFF"/>
</linearGradient>
<linearGradient id="paint12_linear_1635_14209" x1="110.711" y1="156.728" x2="118.832" y2="201.917" gradientUnits="userSpaceOnUse">
<stop stop-color="#FBDFD1"/>
<stop offset="0.435887" stop-color="#FFC8AC"/>
</linearGradient>
<linearGradient id="paint13_linear_1635_14209" x1="117.5" y1="168" x2="146.5" y2="175.5" gradientUnits="userSpaceOnUse">
<stop stop-color="#3C97FF"/>
<stop offset="1" stop-color="#50A1FF"/>
</linearGradient>
</defs>
</svg>
