<svg width="214" height="220" viewBox="0 0 214 220" fill="none" xmlns="http://www.w3.org/2000/svg">
<circle cx="107.001" cy="118.001" r="90" fill="#FBE3EE"/>
<path d="M47.5054 107.882L43.4884 126.868L28.2809 130.101C27.632 122.292 19.2371 112.805 18.8537 112.106C15.969 110.237 16.5697 107.87 17.8019 106.17C18.302 105.481 17.9793 104.328 17.3055 103.808C15.4445 102.371 16.6655 99.7059 17.9791 97.9636C18.2599 97.5912 18.281 97.0784 18.0359 96.6822C15.7347 92.9625 18.0252 91.1019 19.2997 90.551L43.4631 96.4429L46.0178 100.234C47.5286 102.476 48.0653 105.235 47.5054 107.882Z" fill="url(#paint0_linear_143_1440)"/>
<mask id="mask0_143_1440" style="mask-type:alpha" maskUnits="userSpaceOnUse" x="16" y="27" width="182" height="182">
<circle cx="107.002" cy="118.001" r="90" transform="rotate(7 107.002 118.001)" fill="#D9D9D9"/>
</mask>
<g mask="url(#mask0_143_1440)">
<path d="M80.1209 79.6339C80.1209 79.6339 78.4933 85.4316 71.0044 89.2469C63.5154 93.0622 57.8856 97.895 61.8903 107.541C61.8903 107.541 63.5752 111.22 70.8685 111.484C70.8685 111.484 69.7994 120.191 77.8039 122.121C85.8083 124.051 88.1853 119.608 88.4096 120.267C88.634 120.925 90.7581 130.972 99.636 128.274C108.514 125.576 124.509 137.01 124.509 137.01C124.509 137.01 134.241 139.783 140.274 130.423C140.274 130.423 148.536 135.225 153.023 128.516C153.023 128.516 158.412 121.917 153.992 113.168C149.572 104.418 141.613 96.9443 141.613 96.9443L80.1209 79.6339Z" fill="url(#paint1_linear_143_1440)"/>
<path d="M97.2725 135.086L99.9619 104.482L124.62 107.509L121.281 143.4L97.2725 135.086Z" fill="url(#paint2_linear_143_1440)"/>
<path d="M140.934 69.108C140.934 69.108 148.845 68.4948 150.707 73.6192C150.707 73.6192 158.154 71.6106 159.756 77.9248C161.359 84.239 157.855 87.9123 149.77 89.1291C141.684 90.346 139.078 90.3416 139.078 90.3416L140.934 69.108Z" fill="#8F3900"/>
<path d="M94.7669 88.3767C94.1869 93.1003 91.1579 96.6141 88.0035 96.2268C84.8491 95.8395 82.6074 92.9411 83.1874 88.2175C83.7674 83.4939 86.9491 78.7362 90.1035 79.1235C93.2579 79.5108 95.3469 83.6531 94.7669 88.3767Z" fill="url(#paint3_linear_143_1440)"/>
<path d="M139.078 90.3446C139.078 90.3446 143.832 87.7718 146.233 90.5918C148.633 93.4119 148.061 98.0764 144.371 100.78C140.682 103.484 138.466 103.278 135.216 101.585L139.075 90.3443L139.078 90.3446Z" fill="url(#paint4_linear_143_1440)"/>
<path d="M129.406 108.953C135.274 103.524 139.254 95.1494 140.81 84.5608C142.998 69.6779 135.725 57.7369 119.376 55.7295C103.026 53.7221 92.0499 68.7885 91.0349 81.1323C91.0349 81.1323 87.8828 93.0811 94.841 104.179L129.406 108.953Z" fill="#FED4C2"/>
<path d="M119.379 55.7299C135.725 57.7369 143.001 69.6783 140.813 84.5612C139.257 95.1498 135.274 103.524 129.409 108.953L94.8441 104.179C87.8859 93.0815 91.038 81.1327 91.038 81.1327C92.056 68.7892 103.033 53.7228 119.379 55.7299ZM119.455 55.1079C112.746 54.2842 106.392 56.2186 101.077 60.7017C95.1489 65.6999 91.0764 73.4859 90.44 81.0308C90.3267 81.4809 89.6505 84.3777 89.7289 88.513C89.8058 92.5849 90.6673 98.6692 94.3378 104.524L94.4885 104.763L94.7621 104.797L129.327 109.574L129.606 109.609L129.816 109.42C135.842 103.84 139.855 95.2769 141.418 84.6545C142.578 76.7791 141.149 69.8424 137.288 64.5956C133.43 59.3491 127.267 56.0734 119.46 55.1149L119.455 55.1079Z" fill="#8F3900" stroke="#8F3900" stroke-width="0.1"/>
<path d="M91.0377 81.1323C91.0377 81.1323 85.6859 101.425 104.327 113.679C104.327 113.679 111.103 118.16 121.374 114.055C131.646 109.95 138.622 99.4434 140.813 84.5608C143.004 69.6783 135.725 57.7366 119.379 55.7295C103.032 53.7224 92.0527 68.7885 91.0377 81.1323Z" fill="url(#paint5_linear_143_1440)"/>
<path d="M93.0089 88.9157C93.1959 88.4368 93.4032 87.9667 93.5519 87.4767C93.973 86.0859 95.4791 83.9128 100.873 87.3624C108.2 92.0499 105.714 94.9012 100.635 96.4872C95.9786 97.942 92.06 91.3245 93.0086 88.9188L93.0089 88.9157Z" fill="#FFD3C1"/>
<path d="M126.47 99.6121C125.413 99.5675 124.372 99.2662 123.475 98.692C121.976 97.7313 120.512 95.8503 123.387 92.6521C127.983 87.5346 133.692 90.7608 134.627 93.0853C135.511 95.2835 133.097 99.9019 126.47 99.6121Z" fill="#FFD3C1"/>
<path d="M120.349 90.0706C121.148 90.1686 121.971 88.81 122.189 87.0362C122.407 85.2624 121.936 83.7449 121.138 83.6469C120.34 83.5489 119.516 84.9074 119.299 86.6813C119.081 88.4551 119.551 89.9726 120.349 90.0706Z" fill="black"/>
<path d="M108.396 88.6029C109.202 88.7019 110.033 87.3442 110.25 85.5703C110.468 83.7965 109.991 82.2782 109.185 82.1792C108.379 82.0803 107.549 83.438 107.331 85.2118C107.113 86.9857 107.59 88.5039 108.396 88.6029Z" fill="black"/>
<path fill-rule="evenodd" clip-rule="evenodd" d="M114.629 88.0189L114.473 87.9556L114.113 88.8519L114.279 88.908C114.274 88.9064 114.275 88.9068 114.282 88.9099L114.282 88.9099C114.289 88.913 114.303 88.919 114.323 88.9287C114.359 88.9454 114.409 88.9704 114.471 89.0032C114.594 89.0689 114.757 89.165 114.925 89.2879C115.266 89.5393 115.587 89.8772 115.651 90.2695C115.714 90.667 115.501 91.1389 114.916 91.6776L114.8 91.7849L115.346 92.4201L115.491 92.4378L115.548 92.3853C116.333 91.6581 116.704 90.8898 116.577 90.1086C116.466 89.418 115.981 88.9008 115.54 88.5609C115.096 88.2186 114.671 88.0359 114.629 88.0189Z" fill="#BA8469"/>
<path fill-rule="evenodd" clip-rule="evenodd" d="M107.376 96.3714L107.316 96.2181L106.339 96.5831L106.388 96.7328C106.419 96.827 106.787 97.8711 107.664 98.9576C108.543 100.046 109.941 101.184 112.03 101.441L112.034 101.441C116.119 101.943 119.052 99.2773 119.178 99.1611L119.295 99.0538L118.607 98.2533L118.479 98.3714L118.479 98.3714C118.475 98.375 118.432 98.4131 118.351 98.4775C118.267 98.5449 118.144 98.6398 117.986 98.752C117.668 98.9765 117.21 99.2692 116.641 99.5474C115.503 100.105 113.931 100.599 112.164 100.382C110.411 100.167 109.219 99.1797 108.46 98.2322C107.721 97.3097 107.399 96.4349 107.377 96.3745L107.376 96.3714Z" fill="#BA8469"/>
<path d="M115.011 58.9429C114.499 58.9017 114.038 59.2398 113.916 59.7386C112.82 64.1939 106.62 84.1852 83.9887 81.6872C83.9887 81.6872 66.8837 79.2713 73.1495 66.1517C73.1495 66.1517 76.0962 60.2004 85.5279 62.9367C85.5279 62.9367 90.5099 48.9628 117.735 52.6836C117.735 52.6836 137.324 55.0888 141.863 69.778C141.863 69.778 143.45 85.5317 140.294 89.2319C140.294 89.2319 139.902 90.7399 139.841 90.4389C139.669 89.5781 140.146 87.9512 138.444 87.72C134.748 87.2189 119.66 82.8947 117.638 59.8087C117.606 59.4291 117.316 59.1283 116.947 59.0988L115.011 58.9429Z" fill="#8F3900"/>
<path d="M126.773 81.5711C112.761 75.425 115.99 58.473 115.99 58.473L117.526 58.6617C117.526 58.6617 114.222 73.4896 126.92 80.3738L126.773 81.5711Z" fill="#8F3900"/>
<path d="M130.985 75.9517C130.255 74.3911 129.244 73.4051 127.975 73.0221C125.703 72.3359 123.323 73.7956 123.3 73.8117L122.99 73.278C123.096 73.2121 125.616 71.656 128.147 72.4213C129.589 72.8572 130.727 73.9534 131.532 75.6779L130.985 75.9548L130.985 75.9517Z" fill="#471C00"/>
<path fill-rule="evenodd" clip-rule="evenodd" d="M123.216 73.337L123.361 73.5857C123.601 73.4534 124.099 73.2019 124.743 72.9967C125.641 72.7105 126.842 72.5075 128.024 72.8645C129.308 73.2522 130.325 74.2276 131.064 75.7299L131.313 75.6037C130.527 73.993 129.444 72.9858 128.099 72.5791C126.878 72.21 125.652 72.399 124.71 72.6952C123.999 72.9186 123.459 73.2001 123.216 73.337ZM130.815 75.9783C130.1 74.4712 129.126 73.5418 127.927 73.1799C126.837 72.8507 125.712 73.0345 124.846 73.3106C124 73.5802 123.422 73.9313 123.396 73.9467C123.396 73.947 123.396 73.9467 123.396 73.9467L123.246 74.0499L122.766 73.2227L122.901 73.1385C122.96 73.1017 123.63 72.6883 124.608 72.3809C125.585 72.0739 126.885 71.8676 128.195 72.2637C129.695 72.717 130.865 73.8545 131.683 75.6091L131.75 75.7528L130.782 76.2433L130.815 75.9783Z" fill="#471C00"/>
<path d="M101.932 71.015L101.493 70.5855C101.599 70.4691 104.112 67.7567 106.855 68.1882C108.403 68.4289 109.685 69.6217 110.663 71.7272L110.117 72.001C109.228 70.0895 108.099 69.0165 106.761 68.8049C104.347 68.4295 101.957 70.9865 101.932 71.0119L101.932 71.015Z" fill="#471C00"/>
<path fill-rule="evenodd" clip-rule="evenodd" d="M101.726 70.5813L101.928 70.779C101.929 70.7784 101.927 70.7796 101.928 70.779C102.002 70.7057 102.111 70.6014 102.246 70.4806C102.515 70.2393 102.898 69.9237 103.358 69.6203C104.27 69.018 105.516 68.444 106.786 68.6415C108.167 68.8599 109.306 69.9388 110.194 71.7765L110.444 71.6515C109.487 69.6613 108.264 68.5737 106.829 68.3506C105.518 68.1444 104.248 68.6887 103.277 69.3189C102.515 69.8132 101.954 70.3497 101.726 70.5813ZM102.091 71.0858L102.056 71.368L101.263 70.5913L101.369 70.4745C101.427 70.411 102.092 69.6925 103.093 69.0429C104.091 68.3957 105.448 67.7996 106.88 68.0249C108.508 68.2778 109.825 69.5288 110.814 71.6581L110.881 71.8023L110.038 72.225L109.965 72.0691C109.086 70.1785 107.992 69.1662 106.735 68.9672C105.591 68.7895 104.435 69.3063 103.543 69.8949C102.781 70.3977 102.236 70.9373 102.091 71.0858Z" fill="#471C00"/>
<path fill-rule="evenodd" clip-rule="evenodd" d="M124.682 123.132C124.851 122.648 124.52 122.138 124.023 122.112L111.498 120.5L96.4282 241.404L111.497 120.5L98.5123 118.979C98.0235 118.885 97.5789 119.3 97.6261 119.81L96.9326 127.618C83.0296 125.911 67.976 130.047 58.6696 139.181C57.5525 140.065 56.5189 141.102 55.5988 142.289L48.7824 154.47L44.338 127.155C44.1692 126.117 43.2254 125.387 42.1783 125.484L29.0231 126.701C28.0152 126.794 27.2363 127.625 27.2089 128.637L25.3782 196.293L24.0517 198.664L-2.89445 250.693L13.0868 259.168L33.541 227.03L41.9273 216.228C51.5199 215.995 55.9896 208.684 55.943 198.479L55.9023 198.228L62.1319 190.205L67.2003 237.324L96.4282 241.404L129.656 245.483L141.653 208.063L153.699 242.971L161.405 274.612C161.472 274.886 161.595 275.142 161.768 275.365L164.909 279.41C165.141 279.708 165.521 279.85 165.891 279.778L178.534 277.298C178.978 277.211 179.308 276.837 179.34 276.386L179.682 271.539C179.693 271.392 179.687 271.245 179.665 271.099L171.818 219.172L160.106 155.64C159.35 153.445 158.221 151.5 156.821 149.855C149.734 139.553 136.736 132.505 123.466 130.876L124.682 123.132Z" fill="url(#paint6_linear_143_1440)"/>
<path d="M61.9062 169.053L63.2294 200.538" stroke="#D73286"/>
<path d="M150 180.237L141.099 210.468" stroke="#7C1947"/>
<path d="M119.029 148.434L124.081 161.775L125.803 164.671L115.88 171.623L113.665 168.541C108.739 166.688 101.784 161.262 101.417 157.75C101.254 156.188 100.27 155.175 99.1811 154.555C97.7291 153.728 95.8575 153.163 95.3819 151.561C94.9932 150.252 95.5146 149.224 96.2838 148.501C97.0886 147.745 97.5794 146.625 97.5075 145.522C97.3815 143.59 98.7513 143.182 99.9386 143.281C100.391 143.319 100.955 143.351 101.136 142.934C101.508 142.079 100.179 140.589 98.5836 139.224C96.7709 137.673 93.9025 135.955 94.7255 133.716C94.7412 133.673 94.7582 133.632 94.7767 133.591C95.6643 131.643 98.5275 132.754 100.32 133.925L115.144 143.602C116.918 144.76 118.279 146.452 119.029 148.434Z" fill="url(#paint7_linear_143_1440)"/>
<path d="M99.5 148C100.667 148.333 103.4 149.6 105 152" stroke="#F6B397" stroke-width="0.5"/>
<path d="M102 144C103.167 144.333 105.9 145.6 107.5 148" stroke="#F6B397" stroke-width="0.5"/>
<path d="M111.64 168.112L122.519 158.75C123.265 158.108 124.366 158.103 125.117 158.74C139.442 170.885 166.815 193.993 170.168 199.421C174.489 206.417 172.647 214.677 164.875 221.9C158.657 227.678 151.458 226.205 148.636 224.745C134.627 213.943 118.929 184.599 111.192 170.597C110.733 169.766 110.92 168.731 111.64 168.112Z" fill="url(#paint8_linear_143_1440)"/>
<path d="M98.6995 120.484L98.2082 129.009L98.5056 129.024L98.9938 120.498L98.6995 120.484Z" fill="black" fill-opacity="0.5"/>
<path d="M100.169 120.696L99.6779 129.222L99.9753 129.236L100.464 120.71L100.169 120.696Z" fill="black" fill-opacity="0.5"/>
<path d="M101.929 120.95L101.442 129.473L101.739 129.487L102.227 120.964L101.929 120.95Z" fill="black" fill-opacity="0.5"/>
<path d="M103.399 121.162L102.911 129.685L103.209 129.699L103.697 121.173L103.399 121.162Z" fill="black" fill-opacity="0.5"/>
<path d="M105.163 121.413L104.675 129.939L104.972 129.954L105.461 121.428L105.163 121.413Z" fill="black" fill-opacity="0.5"/>
<path d="M106.633 121.625L106.145 130.151L106.442 130.166L106.93 121.64L106.633 121.625Z" fill="black" fill-opacity="0.5"/>
<path d="M108.396 121.88L107.908 130.406L108.206 130.417L108.694 121.894L108.396 121.88Z" fill="black" fill-opacity="0.5"/>
<path d="M109.866 122.092L109.378 130.615L109.675 130.629L110.163 122.106L109.866 122.092Z" fill="black" fill-opacity="0.5"/>
<path d="M111.336 122.304L110.848 130.827L111.142 130.841L111.634 122.315L111.336 122.304Z" fill="black" fill-opacity="0.5"/>
<path d="M112.806 122.513L112.318 131.039L112.612 131.053L113.103 122.527L112.806 122.513Z" fill="black" fill-opacity="0.5"/>
<path d="M114.569 122.767L114.081 131.293L114.375 131.307L114.866 122.781L114.569 122.767Z" fill="black" fill-opacity="0.5"/>
<path d="M116.039 122.979L115.548 131.505L115.845 131.516L116.336 122.994L116.039 122.979Z" fill="black" fill-opacity="0.5"/>
<path d="M117.803 123.234L117.312 131.756L117.609 131.77L118.1 123.248L117.803 123.234Z" fill="black" fill-opacity="0.5"/>
<path d="M119.272 123.446L118.781 131.968L119.078 131.982L119.57 123.457L119.272 123.446Z" fill="black" fill-opacity="0.5"/>
<path d="M121.036 123.697L120.545 132.222L120.842 132.237L121.333 123.711L121.036 123.697Z" fill="black" fill-opacity="0.5"/>
<path d="M122.803 123.923L122.506 123.909L122.014 132.434L122.312 132.449L122.803 123.923Z" fill="black" fill-opacity="0.5"/>
<path fill-rule="evenodd" clip-rule="evenodd" d="M140.871 95.9243C140.176 96.9014 139.848 98.059 139.763 98.815L138.935 98.7222C139.033 97.8502 139.401 96.5457 140.197 95.4275C141.002 94.2964 142.254 93.3466 144.087 93.2588L144.122 94.1077C142.591 94.1811 141.557 94.9601 140.871 95.9243Z" fill="#F6B397"/>
<path fill-rule="evenodd" clip-rule="evenodd" d="M87.7186 91.035C88.4243 87.6088 87.6282 85.1705 87.1936 84.436L87.9114 83.9923C88.4642 84.9264 89.2804 87.585 88.5363 91.1974L87.7186 91.035Z" fill="#F6B397"/>
</g>
<rect x="0.450144" y="0.545413" width="26.1057" height="53.9032" rx="3.5" transform="matrix(0.995443 0.095363 -0.0951546 0.995463 21.4915 66.4757)" fill="white" stroke="#850055"/>
<path d="M23.583 92.9C23.6341 92.3656 23.959 92.0921 24.4888 92.1429L24.8618 92.1786C24.9353 92.1856 24.9894 92.25 24.9824 92.3223L24.9448 92.7152C24.9379 92.7876 24.8726 92.8405 24.7991 92.8335L24.5327 92.808C24.2663 92.7824 24.2471 92.9832 24.2258 93.2056L24.2181 93.2862L24.7508 93.3372C24.8244 93.3443 24.8784 93.4086 24.8715 93.481L24.8319 93.8941C24.825 93.9664 24.7597 94.0193 24.6862 94.0123L24.1534 93.9613L23.9653 95.926C23.9583 95.9983 23.8931 96.0512 23.8195 96.0442L23.42 96.0059C23.3464 95.9989 23.2924 95.9345 23.2993 95.8622L23.4874 93.8975L22.9547 93.8465C22.8811 93.8394 22.8271 93.7751 22.834 93.7027L22.8736 93.2897C22.8805 93.2173 22.9457 93.1644 23.0193 93.1714L23.5521 93.2224L23.583 92.9Z" fill="#EE5599"/>
<path d="M25.382 92.3606C25.3889 92.2882 25.4542 92.2353 25.5277 92.2423L25.9273 92.2806C26.0009 92.2877 26.0549 92.352 26.048 92.4243L25.6968 96.0918C25.6899 96.1641 25.6246 96.217 25.551 96.21L25.1515 96.1717C25.0779 96.1647 25.0239 96.1003 25.0308 96.028L25.382 92.3606Z" fill="#EE5599"/>
<path fill-rule="evenodd" clip-rule="evenodd" d="M26.2218 94.8202C26.1457 95.6149 26.7408 96.3239 27.5489 96.4013C28.3571 96.4787 29.0759 95.8955 29.152 95.1008C29.1798 94.8111 29.1183 94.5327 28.9898 94.2922L29.1678 94.3093C29.2971 94.3217 29.3844 94.4387 29.4181 94.5469L29.875 96.0136C29.9663 96.3235 30.2008 96.5664 30.5039 96.6625C30.8039 96.7582 31.1317 96.6968 31.3806 96.4977L31.7925 96.1681L32.1344 96.5699C32.2971 96.7607 32.523 96.8768 32.765 96.9L32.7657 96.9009C32.8308 96.9071 32.8973 96.907 32.9645 96.8989C33.2804 96.8613 33.5567 96.6681 33.7023 96.3857L34.4321 95.0279C34.4887 94.922 34.5895 94.8559 34.6877 94.844L34.4876 96.9336C34.4806 97.0059 34.5346 97.0703 34.6082 97.0773L35.0078 97.1156C35.0813 97.1226 35.1466 97.0697 35.1535 96.9974L35.4044 94.3778C35.4113 94.3054 35.3573 94.2411 35.2837 94.234L34.8841 94.1958C34.8791 94.1953 34.8742 94.1951 34.8693 94.1951L34.8055 94.189C34.4365 94.1537 34.0613 94.3681 33.8712 94.7222L33.1385 96.0854C33.0882 96.184 32.998 96.248 32.8911 96.2604C32.7874 96.2731 32.6879 96.2329 32.6188 96.1519L32.2928 95.7686L32.487 95.6136C32.6639 95.4723 32.7856 95.2796 32.8302 95.0731C32.8881 94.8033 32.8286 94.5214 32.668 94.3009C32.5109 94.0848 32.2702 93.9471 32.0076 93.9219C31.7449 93.8968 31.4824 93.9871 31.2873 94.1687C31.0869 94.3546 30.9759 94.6194 30.9815 94.8953C30.9861 95.1065 31.069 95.3187 31.2159 95.4911L31.3772 95.6801L30.9843 95.9946C30.9011 96.0609 30.7958 96.0815 30.6964 96.0494C30.5939 96.0162 30.5174 95.937 30.4849 95.8249L30.026 94.3532C29.9022 93.9569 29.5979 93.6895 29.2305 93.6544L27.8249 93.5198C27.0168 93.4424 26.2979 94.0255 26.2218 94.8202ZM27.7622 94.1747C27.3208 94.1324 26.9293 94.45 26.8878 94.884C26.8462 95.318 27.1703 95.7042 27.6117 95.7464C28.053 95.7887 28.4445 95.4711 28.4861 95.0371C28.5276 94.603 28.2035 94.2169 27.7622 94.1747ZM31.7195 94.6389C31.7828 94.5803 31.8631 94.5525 31.9464 94.5605C32.0297 94.5685 32.1041 94.6111 32.1543 94.6805C32.2066 94.7534 32.2257 94.8465 32.2068 94.9359C32.1936 94.9976 32.1525 95.0591 32.091 95.1081C31.9722 95.2033 31.7992 95.1868 31.7006 95.0707C31.6495 95.0109 31.6207 94.9436 31.6196 94.8797C31.6172 94.7874 31.6536 94.7004 31.7195 94.6389Z" fill="#EE5599"/>
<path d="M35.109 93.9529C35.3297 93.9741 35.5254 93.8153 35.5462 93.5983C35.567 93.3812 35.405 93.1882 35.1843 93.1671C34.9636 93.1459 34.7678 93.3047 34.7471 93.5217C34.7263 93.7387 34.8883 93.9318 35.109 93.9529Z" fill="#EE5599"/>
<path d="M36.4385 94.8084C36.6941 94.5497 37.0323 94.4015 37.4148 94.4381C38.1026 94.504 38.5563 95.1506 38.4881 95.8627L38.3502 97.3035C38.3432 97.3758 38.278 97.4287 38.2044 97.4217L37.8048 97.3834C37.7313 97.3764 37.6773 97.312 37.6842 97.2397L37.8096 95.9299C37.8497 95.5113 37.6185 95.1185 37.1523 95.0739C36.6861 95.0292 36.3846 95.371 36.3445 95.7896L36.2191 97.0994C36.2121 97.1717 36.1469 97.2247 36.0733 97.2176L35.6738 97.1794C35.6002 97.1723 35.5462 97.108 35.5531 97.0356L35.804 94.416C35.8109 94.3437 35.8761 94.2908 35.9497 94.2978L36.3493 94.3361C36.4228 94.3431 36.4769 94.4075 36.4699 94.4798L36.4385 94.8084Z" fill="#EE5599"/>
<path fill-rule="evenodd" clip-rule="evenodd" d="M40.102 98.6609C40.8064 98.7283 41.4823 98.2668 41.5629 97.4412L41.7977 94.99C41.8046 94.9176 41.7506 94.8533 41.677 94.8463L41.2774 94.808C41.2039 94.8009 41.1387 94.8536 41.1317 94.9259L41.1219 95.0282C40.9062 94.8589 40.6399 94.7469 40.3451 94.7187C39.5359 94.6412 38.8182 95.2235 38.742 96.0192C38.6658 96.8149 39.26 97.5228 40.0691 97.6003C40.3491 97.6271 40.6181 97.5749 40.8533 97.4623C40.7678 97.7137 40.6196 98.0495 40.1647 98.006C40.0193 97.9932 39.8541 97.9081 39.7588 97.809C39.7024 97.7505 39.6074 97.7465 39.5524 97.806L39.2845 98.0953C39.24 98.1432 39.2375 98.2165 39.282 98.2646C39.5043 98.5056 39.7774 98.6298 40.102 98.6609ZM40.1319 96.9454C40.5732 96.9876 40.9647 96.67 41.0063 96.236C41.0478 95.802 40.7237 95.4159 40.2824 95.3736C39.841 95.3313 39.4495 95.6489 39.4079 96.083C39.3664 96.517 39.6905 96.9031 40.1319 96.9454Z" fill="#EE5599"/>
<path d="M29.6172 68.0479L39.8747 69.0312L38.6711 70.9766C38.4708 71.3002 38.1043 71.4821 37.7254 71.4458L31.2696 70.8269C30.8908 70.7906 30.5654 70.5424 30.4301 70.1866L29.6172 68.0479Z" fill="#850055"/>
<path fill-rule="evenodd" clip-rule="evenodd" d="M17.7852 48.5512L19.6594 41.9995L14.924 46.8969L12.4632 42.4642L12.5485 47.5335L6.00003 45.6602L10.8997 50.3978L6.46801 52.858L11.5323 52.7728L9.65936 59.32L14.3944 54.4229L16.8554 58.856L16.7701 53.7864L23.3205 55.6602L18.4257 50.9274L22.8599 48.4658L17.7852 48.5512Z" fill="#EB2482"/>
<path fill-rule="evenodd" clip-rule="evenodd" d="M171.56 10.2548L167.591 3.1056L167.729 11.2801L161.879 9.60673L166.252 13.8353L159.106 17.8025L167.283 17.665L165.611 23.5131L169.836 19.1428L173.803 26.2878L173.665 18.1154L179.515 19.7888L175.14 15.5589L182.288 11.5909L174.119 11.7283L175.793 5.87729L171.56 10.2548Z" fill="#EB2482"/>
<path fill-rule="evenodd" clip-rule="evenodd" d="M199.716 38.9181L195.928 35.0001L197.427 40.2397L193.372 40.1715L196.918 42.1399L193 45.9281L198.24 44.4291L198.172 48.4846L200.14 44.9389L203.928 48.8565L202.429 43.617L206.486 43.6852L202.939 41.7162L206.856 37.9281L201.617 39.4268L201.685 35.3712L199.716 38.9181Z" fill="#EB2482"/>
<defs>
<linearGradient id="paint0_linear_143_1440" x1="27.2168" y1="94.7155" x2="26.9761" y2="129.606" gradientUnits="userSpaceOnUse">
<stop stop-color="#FFB38D"/>
<stop offset="0.750181" stop-color="#FFC8AC"/>
</linearGradient>
<linearGradient id="paint1_linear_143_1440" x1="111.524" y1="83.4897" x2="105.232" y2="134.732" gradientUnits="userSpaceOnUse">
<stop stop-color="#552200"/>
<stop offset="1" stop-color="#8F3900"/>
</linearGradient>
<linearGradient id="paint2_linear_143_1440" x1="104.557" y1="107.115" x2="112.126" y2="138.553" gradientUnits="userSpaceOnUse">
<stop stop-color="#FFAD7B"/>
<stop offset="0.740514" stop-color="#FBDFD1"/>
</linearGradient>
<linearGradient id="paint3_linear_143_1440" x1="90.1035" y1="79.1235" x2="88.0035" y2="96.2268" gradientUnits="userSpaceOnUse">
<stop offset="0.385917" stop-color="#FFD6C1"/>
<stop offset="1" stop-color="#FBDFD1"/>
</linearGradient>
<linearGradient id="paint4_linear_143_1440" x1="141.082" y1="89.0275" x2="142.555" y2="103.695" gradientUnits="userSpaceOnUse">
<stop stop-color="#FFD6C1"/>
<stop offset="1" stop-color="#FBDFD1"/>
</linearGradient>
<linearGradient id="paint5_linear_143_1440" x1="108.276" y1="59.2061" x2="119.375" y2="115.209" gradientUnits="userSpaceOnUse">
<stop stop-color="#FFC8AC"/>
<stop offset="0.750181" stop-color="#FBDFD1"/>
</linearGradient>
<linearGradient id="paint6_linear_143_1440" x1="80.998" y1="128" x2="135.528" y2="158.85" gradientUnits="userSpaceOnUse">
<stop stop-color="#FF9FCB"/>
<stop offset="1" stop-color="#FF76B5"/>
</linearGradient>
<linearGradient id="paint7_linear_143_1440" x1="96.8071" y1="134.456" x2="107.234" y2="168.497" gradientUnits="userSpaceOnUse">
<stop stop-color="#FBDFD1"/>
<stop offset="0.703753" stop-color="#FFC8AC"/>
</linearGradient>
<linearGradient id="paint8_linear_143_1440" x1="125.5" y1="161" x2="156.405" y2="169.198" gradientUnits="userSpaceOnUse">
<stop stop-color="#FF92C4"/>
<stop offset="1" stop-color="#FF77B6"/>
</linearGradient>
</defs>
</svg>
