<svg width="18" height="16" viewBox="0 0 18 16" fill="none" xmlns="http://www.w3.org/2000/svg">
<path fill-rule="evenodd" clip-rule="evenodd" d="M3 6.5L9 1.5L15 6.5V14.5C15 15.0523 14.5523 15.5 14 15.5H4C3.44772 15.5 3 15.0523 3 14.5V6.5ZM6.5 7.5H8.5V9.5H6.5V7.5ZM8.5 10.5H6.5V12.5H8.5V10.5ZM9.5 7.5H11.5V9.5H9.5V7.5ZM11.5 10.5H9.5V12.5H11.5V10.5Z" fill="url(#paint0_linear_2094_6865)"/>
<path fill-rule="evenodd" clip-rule="evenodd" d="M8.375 0.719131C8.74022 0.426956 9.25917 0.426956 9.62439 0.719131L17.1244 6.71913L15.875 8.28087L8.99969 2.78062L2.12439 8.28087L0.875 6.71913L8.375 0.719131Z" fill="#0092FF"/>
<defs>
<linearGradient id="paint0_linear_2094_6865" x1="6.5" y1="4.5" x2="14.5" y2="15.5" gradientUnits="userSpaceOnUse">
<stop stop-color="#8AC9FF"/>
<stop offset="1" stop-color="#B9DDFF"/>
</linearGradient>
</defs>
</svg>
