<svg width="17" height="16" viewBox="0 0 17 16" fill="none" xmlns="http://www.w3.org/2000/svg">
<path fill-rule="evenodd" clip-rule="evenodd" d="M2.5 6.5L8.5 1.5L14.5 6.5V14.5C14.5 15.0523 14.0523 15.5 13.5 15.5H3.5C2.94772 15.5 2.5 15.0523 2.5 14.5V6.5ZM6 7.5H8V9.5H6V7.5ZM8 10.5H6V12.5H8V10.5ZM9 7.5H11V9.5H9V7.5ZM11 10.5H9V12.5H11V10.5Z" fill="#BDBDC0"/>
<path fill-rule="evenodd" clip-rule="evenodd" d="M7.87549 0.719131C8.24071 0.426956 8.75966 0.426956 9.12488 0.719131L16.6249 6.71913L15.3755 8.28087L8.50018 2.78062L1.62488 8.28087L0.375488 6.71913L7.87549 0.719131Z" fill="#0092FF"/>
</svg>
