<svg width="33" height="32" viewBox="0 0 33 32" fill="none" xmlns="http://www.w3.org/2000/svg">
<path fill-rule="evenodd" clip-rule="evenodd" d="M3 13C2.44772 13 2 13.4477 2 14V31C2 31.5523 2.44771 32 3 32H29C29.5523 32 30 31.5523 30 31V14C30 13.4477 29.5523 13 29 13H3ZM15 20C15 19.4477 15.4477 19 16 19C16.5523 19 17 19.4477 17 20V22.2676C17.5978 22.6134 18 23.2597 18 24C18 25.1046 17.1046 26 16 26C14.8954 26 14 25.1046 14 24C14 23.2597 14.4022 22.6134 15 22.2676V20Z" fill="white"/>
<rect x="8" y="1" width="16" height="30" rx="8" stroke="white" stroke-width="2"/>
</svg>
