<svg width="71" height="19" viewBox="0 0 71 19" fill="none" xmlns="http://www.w3.org/2000/svg">
<path fill-rule="evenodd" clip-rule="evenodd" d="M2.5 3.19231C2.5 1.15231 3.611 0 5.6 0H7C7.27614 0 7.5 0.223858 7.5 0.5V2C7.5 2.27614 7.27614 2.5 7 2.5H6C5 2.5 5 3.26615 5 4.11538V4.42308H7C7.27614 4.42308 7.5 4.64694 7.5 4.92308V6.5C7.5 6.77614 7.27614 7 7 7H5V14.5C5 14.7761 4.77614 15 4.5 15H3C2.72386 15 2.5 14.7761 2.5 14.5V7H0.5C0.223858 7 0 6.77614 0 6.5V4.92308C0 4.64693 0.223858 4.42308 0.5 4.42308H2.5V3.19231ZM9 0.5C9 0.223858 9.22386 0 9.5 0H11C11.2761 0 11.5 0.223858 11.5 0.5V1.9363V7.33053V14.5C11.5 14.7761 11.2761 15 11 15H10.5H9.5C9.22386 15 9 14.7761 9 14.5V0.5ZM13 9.5C13 12.5337 15.4663 15 18.5 15C21.5337 15 24 12.5337 24 9.5C24 8.39389 23.6721 7.36321 23.1084 6.5H23.7766C24.2621 6.5 24.6285 6.91114 24.7923 7.30825L27.0145 12.6906C27.4643 13.83 28.4234 14.664 29.5851 14.9175C30.7349 15.1711 31.9323 14.8198 32.7872 13.9767L34.2021 12.5807L35.617 13.9767C36.2902 14.6395 37.1719 14.9969 38.0804 14.9969L38.0834 15C38.3277 15 38.5749 14.9756 38.8221 14.9206C39.9838 14.664 40.943 13.8331 41.3838 12.712L43.6149 7.3113C43.7877 6.89021 44.1393 6.60382 44.5 6.52319V14.5C44.5 14.7761 44.7239 15 45 15H46.5C46.7761 15 47 14.7761 47 14.5V4.5C47 4.22386 46.7761 4 46.5 4H45C44.9812 4 44.9627 4.00104 44.9444 4.00305H44.7051C43.32 4.00305 42.0004 4.95001 41.4196 6.35823L39.1796 11.7803C39.0277 12.1713 38.7149 12.4463 38.3217 12.5318C37.9404 12.6173 37.5562 12.5012 37.2702 12.2202L35.9208 10.8884L36.5881 10.2316C37.1957 9.63288 37.58 8.86004 37.6723 8.06276C37.7915 7.02111 37.4698 5.9764 36.7936 5.2005C36.1323 4.43988 35.1881 4.00611 34.2021 4.00611C33.2162 4.00611 32.2719 4.44293 31.6106 5.2005C30.9315 5.9764 30.6128 7.01805 30.7319 8.05971C30.8243 8.85698 31.2085 9.62982 31.8162 10.2285L32.4834 10.8853L31.134 12.2172C30.8481 12.4982 30.4638 12.6143 30.0826 12.5287C29.6894 12.4402 29.3766 12.1683 29.2157 11.7559L26.9847 6.35518C26.383 4.90114 25.1557 4 23.7766 4H18.5C15.4663 4 13 6.46632 13 9.5ZM18.5 6.5C16.8431 6.5 15.5 7.84315 15.5 9.5C15.5 11.1569 16.8431 12.5 18.5 12.5C20.1569 12.5 21.5 11.1569 21.5 9.5C21.5 7.84315 20.1569 6.5 18.5 6.5ZM33.386 6.82255C33.6004 6.57817 33.8894 6.44377 34.2021 6.44377C34.5149 6.44377 34.8068 6.57817 35.0183 6.82255C35.2387 7.07914 35.343 7.42433 35.3043 7.76951C35.2774 8.00778 35.1464 8.25521 34.9349 8.46293C34.5268 8.86615 33.8774 8.86615 33.4694 8.46293C33.2579 8.25521 33.1268 8.01083 33.1 7.76951C33.0583 7.42127 33.1626 7.07914 33.386 6.82255ZM45.75 3C46.5784 3 47.25 2.32843 47.25 1.5C47.25 0.671573 46.5784 0 45.75 0C44.9216 0 44.25 0.671573 44.25 1.5C44.25 2.32843 44.9216 3 45.75 3ZM51 5.75421C51.8586 4.68316 53.0639 4 54.5 4C57.0819 4 59 6.28184 59 9V14.5C59 14.7761 58.7761 15 58.5 15H57C56.7239 15 56.5 14.7761 56.5 14.5V9.5C56.5 7.90211 55.5 6.5 53.75 6.5C52 6.5 51 7.90211 51 9.5V14.5C51 14.7761 50.7761 15 50.5 15H49C48.7239 15 48.5 14.7761 48.5 14.5V4.5C48.5 4.22386 48.7239 4 49 4H50.5C50.7761 4 51 4.22386 51 4.5V5.75421ZM66 19C68.6443 19 70.9942 17.0096 71 13.8571V4.5C71 4.22386 70.7761 4 70.5 4H69C68.7239 4 68.5 4.22262 68.5 4.49876V4.88947C67.6372 4.32692 66.6068 4 65.5 4C62.4624 4 60 6.46243 60 9.5C60 12.5376 62.4624 15 65.5 15C66.5509 15 67.5329 14.7053 68.368 14.194C68.1392 15.1759 67.7077 16.5 66 16.5C65.4545 16.5043 64.8099 16.2424 64.42 15.9022C64.1894 15.701 63.8347 15.7205 63.651 15.9653L62.7574 17.1568C62.6093 17.3542 62.6261 17.6321 62.8087 17.7982C63.7215 18.6291 64.7815 19 66 19ZM65.5 12.5C67.1569 12.5 68.5 11.1569 68.5 9.5C68.5 7.84315 67.1569 6.5 65.5 6.5C63.8431 6.5 62.5 7.84315 62.5 9.5C62.5 11.1569 63.8431 12.5 65.5 12.5Z" fill="#212123"/>
</svg>
