<svg width="56" height="26" viewBox="0 0 56 26" fill="none" xmlns="http://www.w3.org/2000/svg">
<path fill-rule="evenodd" clip-rule="evenodd" d="M55.6124 18.6189C53.8901 18.074 52.7233 16.4865 52.682 14.6472V0H51.3217V14.5461C51.3217 17.0411 52.8849 19.2135 55.211 19.9493L55.4277 20.0178L55.829 18.6875L55.6124 18.6189ZM11.7861 14.0412V8.59393H10.4257V10.3068C9.34513 8.97733 7.71737 8.12965 5.89474 8.12965C2.63964 8.12965 0 10.8324 0 14.1654C0 17.4983 2.63964 20.2011 5.89474 20.2011C7.71737 20.2011 9.34513 19.3534 10.4257 18.0239V19.5592C10.4257 22.3003 8.24758 24.5305 5.57053 24.5305C4.21368 24.5305 2.90832 23.9427 1.9911 22.9181L1.83787 22.747L0.834774 23.6888L0.988071 23.8599C2.16346 25.1718 3.83264 25.9234 5.57053 25.9234C8.99793 25.9234 11.7861 23.0686 11.7861 19.5592V14.2884C11.7861 14.2739 11.7867 14.2585 11.7876 14.2374L11.7876 14.2356C11.7884 14.2164 11.7895 14.1918 11.7895 14.1665C11.7895 14.135 11.7882 14.0994 11.7871 14.0702L11.7861 14.0412ZM5.89474 18.8071H5.79262C3.33937 18.7513 1.36032 16.6904 1.36032 14.1654C1.36032 11.6054 3.39453 9.5225 5.89474 9.5225C8.39447 9.5225 10.3638 11.5405 10.4257 14.0464V14.2832C10.3638 16.7889 8.35497 18.8071 5.89474 18.8071ZM44.0644 8.12965C40.8093 8.12965 38.1697 10.8324 38.1697 14.1654C38.1697 17.4983 40.8093 20.2011 44.0644 20.2011C47.3195 20.2011 49.9591 17.4983 49.9591 14.1654C49.9591 10.8324 47.3195 8.12965 44.0644 8.12965ZM44.0644 18.8082C41.5642 18.8082 39.53 16.7254 39.53 14.1654C39.53 11.6054 41.5642 9.5225 44.0644 9.5225C46.5646 9.5225 48.5988 11.6054 48.5988 14.1654C48.5988 16.7254 46.5646 18.8082 44.0644 18.8082ZM14.465 14.5461V8.59393H13.1046V14.5461C13.1046 17.6643 15.5822 20.2011 18.6275 20.2011C20.2866 20.2011 21.777 19.4479 22.7901 18.2589V19.5592C22.7901 22.3003 20.612 24.5305 17.9349 24.5305C16.5781 24.5305 15.2727 23.9427 14.3555 22.9181L14.2023 22.747L13.1992 23.6888L13.3525 23.8599C14.5279 25.1718 16.197 25.9234 17.9349 25.9234C21.3623 25.9234 24.1505 23.0686 24.1505 19.5592V8.59509H22.7901V14.5461C22.7901 16.896 20.9226 18.8082 18.6275 18.8082C16.3325 18.8082 14.465 16.896 14.465 14.5461ZM27.3687 16.9732C27.3687 16.9731 27.3687 16.9731 27.3687 16.9731C27.901 17.0541 28.4249 16.821 28.7339 16.3938C28.4817 16.7425 28.0864 16.9618 27.6602 16.9867C27.5642 16.9923 27.4666 16.988 27.3687 16.9732ZM29.0546 15.6948C29.0976 15.6344 29.1531 15.5834 29.2188 15.5455C29.3423 15.4735 29.4852 15.4561 29.6223 15.4944C29.7333 15.5263 29.8458 15.5443 29.9579 15.5486C30.2215 15.559 30.4831 15.4939 30.7185 15.3563C30.8982 15.2515 31.0503 15.112 31.1681 14.9463C31.0503 15.1119 30.8982 15.2515 30.7185 15.3563C30.4831 15.4939 30.2215 15.5589 29.9579 15.5486C29.8457 15.5443 29.7333 15.5262 29.6223 15.4944C29.4852 15.4561 29.3423 15.4735 29.2188 15.5455C29.1531 15.5834 29.0976 15.6344 29.0546 15.6948ZM31.467 14.2859C31.5116 14.2167 31.572 14.1587 31.6447 14.1166C31.7682 14.0447 31.9111 14.0273 32.0482 14.0655C31.9111 14.0272 31.7682 14.0446 31.6447 14.1166C31.5719 14.1587 31.5116 14.2167 31.467 14.2859ZM26.3508 17.0602C26.359 17.0747 26.3672 17.0892 26.3756 17.1036C26.3672 17.0892 26.359 17.0747 26.3508 17.0602M31.2842 19.9596C31.5251 19.9596 31.7668 19.9441 32.0079 19.9124C31.7668 19.9441 31.5251 19.9597 31.2842 19.9597C29.5029 19.9597 27.7643 19.1056 26.6707 17.5639C27.7643 19.1056 29.5029 19.9596 31.2842 19.9596ZM11.5628 14.1665C11.5628 14.1394 11.5617 14.1123 11.5607 14.0853L11.5607 14.0853C11.5617 14.1124 11.5628 14.1394 11.5628 14.1665ZM32.4058 9.42733C31.2508 9.13918 29.9896 9.28633 28.881 9.93923C28.2776 10.2946 27.7685 10.7687 27.3767 11.3304C27.7685 10.7687 28.2776 10.2945 28.881 9.9392C29.9896 9.2863 31.2508 9.13918 32.4058 9.42733ZM29.1917 15.9308L29.192 15.9298C29.2127 15.8518 29.2614 15.7874 29.3303 15.7476L29.3309 15.7473C29.4011 15.7064 29.4818 15.696 29.562 15.7182C29.5739 15.7216 29.5857 15.7248 29.5976 15.7279C30.0166 15.8381 30.4535 15.7785 30.8308 15.5579C31.1445 15.375 31.3865 15.0994 31.5284 14.7671C31.5612 14.6903 31.5886 14.6105 31.6103 14.5281L31.6172 14.5037L31.6176 14.5019C31.6382 14.4235 31.687 14.3588 31.7562 14.3188L31.7568 14.3184C31.827 14.2775 31.9077 14.2671 31.9879 14.2893C32.1121 14.3249 32.2381 14.3455 32.3638 14.3513C32.6731 14.3656 32.9808 14.2904 33.2567 14.1291C33.4676 14.0061 33.6461 13.8409 33.7835 13.6448C33.8981 13.4812 33.9842 13.2962 34.0367 13.0963L34.0373 13.0943L34.0429 13.0714C34.0637 12.9938 34.1123 12.9296 34.181 12.8899L34.1816 12.8896C34.2518 12.8487 34.3325 12.8383 34.4127 12.8605C34.77 12.9629 35.1418 12.9411 35.48 12.8005C35.48 12.8005 35.4801 12.8005 35.4801 12.8005C35.5488 12.772 35.616 12.7385 35.6815 12.7003L35.6816 12.7002C36.0585 12.4804 36.3315 12.1248 36.4526 11.7006C36.5067 11.5263 36.495 11.329 36.4021 11.1538L36.3991 11.148L36.3961 11.1423L36.3955 11.1413L36.3934 11.137L36.3898 11.1306C34.7568 8.25621 31.1385 7.27066 28.3191 8.93127C26.9497 9.73732 25.9694 11.0417 25.5615 12.6011C25.1549 14.1568 25.3648 15.7826 26.1546 17.1766C27.249 19.1098 29.2403 20.1918 31.2842 20.1918C32.2861 20.1918 33.3026 19.9323 34.2304 19.3842C35.4891 18.6432 36.4323 17.4602 36.8885 16.0527L36.9599 15.8324L35.669 15.3935L35.5977 15.6141C35.248 16.696 34.5217 17.6058 33.5528 18.1764L33.5268 18.1917L33.5237 18.195C31.609 19.3065 29.2244 18.8425 27.8316 17.2013C28.461 17.1018 29.0068 16.6356 29.1826 15.9668L29.1829 15.9656L29.1917 15.9308ZM27.5018 15.8202L26.9666 15.6744C26.6715 14.8077 26.636 13.8716 26.8724 12.9637C27.1867 11.764 27.9387 10.762 28.994 10.1405C31.0519 8.92857 33.6614 9.54619 34.9994 11.495C34.9295 11.5335 34.8515 11.5424 34.7757 11.5206C34.3456 11.3971 33.8943 11.4536 33.506 11.6806C33.1191 11.9062 32.8415 12.2739 32.726 12.7134L32.7255 12.7154L32.7199 12.7383C32.699 12.816 32.6504 12.8801 32.5818 12.9198L32.5812 12.9201C32.5096 12.9618 32.4291 12.9719 32.3509 12.9495C31.9209 12.8259 31.4695 12.8825 31.0812 13.1094C30.6949 13.3348 30.4175 13.7018 30.3017 14.1404L30.2949 14.1649L30.2944 14.1666C30.2738 14.245 30.225 14.3098 30.1559 14.3498L30.1553 14.3501C30.085 14.391 30.0043 14.4014 29.9241 14.3792C29.4943 14.256 29.0433 14.3126 28.6553 14.5394C28.2687 14.7649 27.9907 15.1314 27.8763 15.5717L27.8761 15.5725L27.8671 15.608C27.8247 15.7671 27.6619 15.864 27.5021 15.8203L27.5018 15.8202Z" fill="#050505"/>
</svg>
