<svg width="17" height="16" viewBox="0 0 17 16" fill="none" xmlns="http://www.w3.org/2000/svg">
<path fill-rule="evenodd" clip-rule="evenodd" d="M2.9 9.12498C1.85 7.99998 1.49426 6.93054 1.50007 5.81748C1.50588 4.75857 1.89491 3.7899 2.6033 3.09199C4.45103 1.27276 6.88329 1.92601 8.5317 3.59136C10.1801 1.92601 12.549 1.27276 14.3967 3.09199C15.1051 3.7899 15.4941 4.75857 15.4999 5.81748C15.5057 6.93054 15.15 7.99998 14.1 9.12498L11.3 11.75L9.0975 13.5C8.73002 13.792 8.2089 13.7892 7.84467 13.4931L5.7 11.75L2.9 9.12498ZM11 6.75H6V8.25H11V6.75Z" fill="#BDBDC0"/>
</svg>
