<svg width="16" height="16" viewBox="0 0 16 16" fill="none" xmlns="http://www.w3.org/2000/svg">
<path fill-rule="evenodd" clip-rule="evenodd" d="M2.4 9.12498C1.35 7.99998 0.994263 6.93054 1.00007 5.81748C1.00588 4.75857 1.39491 3.7899 2.1033 3.09199C3.95103 1.27276 6.38329 1.92601 8.0317 3.59136C9.6801 1.92601 12.049 1.27276 13.8967 3.09199C14.6051 3.7899 14.9941 4.75857 14.9999 5.81748C15.0057 6.93054 14.65 7.99998 13.6 9.12498L10.8 11.75L8.5975 13.5C8.23002 13.792 7.7089 13.7892 7.34467 13.4931L5.2 11.75L2.4 9.12498ZM10.5 6.75H5.5V8.25H10.5V6.75Z" fill="url(#paint0_linear_2094_10084)"/>
<defs>
<linearGradient id="paint0_linear_2094_10084" x1="5" y1="2.54545" x2="10.7484" y2="13.6112" gradientUnits="userSpaceOnUse">
<stop stop-color="#EE5599"/>
<stop offset="0.87235" stop-color="#F288B7"/>
</linearGradient>
</defs>
</svg>
