<svg width="64" height="64" viewBox="0 0 64 64" fill="none" xmlns="http://www.w3.org/2000/svg">
<rect x="0.5" width="64" height="64" rx="32" fill="#E2F1FF"/>
<mask id="mask0_1232_10276" style="mask-type:alpha" maskUnits="userSpaceOnUse" x="0" y="0" width="65" height="64">
<rect x="0.5" width="64" height="64" rx="32" fill="#DDF3FF"/>
</mask>
<g mask="url(#mask0_1232_10276)">
<path d="M47.1287 21.8389C47.1287 21.8389 48.1009 25.4565 45.6705 30.3565L45.043 21.8389H47.1287Z" fill="#8F3900"/>
<path d="M25.9497 55.35L24.1016 40H39.9304L41.7786 58.0127L25.9497 55.35Z" fill="url(#paint0_linear_1232_10276)"/>
<path d="M21.3885 31.9635C21.3885 34.4047 20.005 36.383 18.2997 36.383C16.5944 36.383 15.2109 35.0475 15.2109 32.6063C15.2109 30.1651 16.5944 27.5439 18.2997 27.5439C20.005 27.5439 21.3885 29.5223 21.3885 31.9635Z" fill="#FBDFD1"/>
<path d="M21.0633 32.0755C21.0633 34.4547 19.7527 36.3829 18.1371 36.3829C16.5216 36.3829 15.2109 35.0812 15.2109 32.702C15.2109 30.3227 16.5216 27.7681 18.1371 27.7681C19.7527 27.7681 21.0633 29.6962 21.0633 32.0755Z" fill="url(#paint1_linear_1232_10276)"/>
<path d="M45.3732 30.3573C45.3732 30.3573 47.6125 28.7909 48.9986 30.044C50.3847 31.297 50.3847 33.6465 48.6906 35.2129C46.9965 36.7792 45.866 36.8121 44.1211 36.1699L45.3717 30.3573H45.3732Z" fill="url(#paint2_linear_1232_10276)"/>
<path d="M45.1185 30.1959C45.1185 30.1959 47.4823 28.5888 48.9454 29.8745C50.4085 31.1602 50.4085 33.5708 48.6202 35.178C46.832 36.7851 45.6388 36.8188 43.7969 36.1599L45.1169 30.1959H45.1185Z" fill="#FBDFD1"/>
<path d="M42.4785 17.1958C40.0806 14.7659 36.5838 13.4834 32.3636 13.4834C28.7367 13.4834 25.4789 14.8655 22.9412 17.4803C20.1109 20.3956 18.4511 24.6142 18.6056 28.4954C18.5747 28.7316 18.404 30.2487 18.7161 32.3492C18.8429 33.2074 19.0672 34.2327 19.4493 35.3352C19.5175 35.5297 19.6996 35.6614 19.9077 35.6614C18.456 31.8381 18.9307 28.5098 18.9307 28.5098C18.6657 22.1618 23.5264 13.8048 32.3636 13.8048C41.2007 13.8048 45.8566 19.4297 45.6648 27.1438C45.5851 30.3419 45.0145 33.2058 44.0066 35.6614C44.218 35.6614 44.4098 35.5345 44.4846 35.3384C45.4031 32.9358 45.9151 30.1796 45.9916 27.1518C46.094 23.0698 44.8796 19.6274 42.4801 17.1974L42.4785 17.1958Z" fill="#8F3900"/>
<path d="M18.93 28.5082C18.93 28.5082 17.4067 39.1746 28.1361 44.2482C28.1361 44.2482 32.0377 46.106 37.2399 43.374C42.442 40.6419 45.4706 34.8563 45.6641 27.1422C45.8575 19.4281 41.2016 13.8032 32.3629 13.8032C23.5241 13.8032 18.6634 22.1602 18.93 28.5082Z" fill="#FBDFD1"/>
<path d="M18.9416 28.9232C18.9416 28.9232 17.4192 39.3189 28.1431 44.2638C28.1431 44.2638 32.0427 46.0744 37.2422 43.4117C42.4417 40.7489 45.4688 35.1102 45.6622 27.5918C45.8555 20.0734 41.2004 14.5913 32.3677 14.5913C23.5351 14.5913 18.6752 22.7362 18.9416 28.9232Z" fill="url(#paint3_linear_1232_10276)"/>
<path d="M35.6984 30.4002C36.1403 30.4002 36.4984 29.6839 36.4984 28.8002C36.4984 27.9165 36.1403 27.2002 35.6984 27.2002C35.2566 27.2002 34.8984 27.9165 34.8984 28.8002C34.8984 29.6839 35.2566 30.4002 35.6984 30.4002Z" fill="black"/>
<path d="M28.4992 30.4002C28.941 30.4002 29.2992 29.6839 29.2992 28.8002C29.2992 27.9165 28.941 27.2002 28.4992 27.2002C28.0574 27.2002 27.6992 27.9165 27.6992 28.8002C27.6992 29.6839 28.0574 30.4002 28.4992 30.4002Z" fill="black"/>
<path d="M22.1168 15.9037C22.1168 15.9037 25.3161 8.26357 34.3759 8C34.3759 8 37.042 9.05426 33.4444 11.9519C33.4444 11.9519 45.7914 8.7907 50.3432 11.9519C54.8967 15.113 49.033 18.0107 46.9017 17.7487C46.9017 17.7487 51.9657 21.1734 44.2372 23.5455C36.5088 25.916 27.4473 23.0184 23.983 20.6479C23.983 20.6479 22.333 25.0498 18.8687 27.9474L18.2997 27.5456C18.2997 27.5456 13.8242 18.488 22.1168 15.9053V15.9037Z" fill="url(#paint4_linear_1232_10276)"/>
<path d="M33.0399 32.5596L32.6774 32.2462C33.0968 31.7738 33.2545 31.3543 33.1472 31.0007C32.9407 30.3209 31.8434 30.0156 31.832 30.0124L31.9588 29.5527C32.0141 29.5672 33.3244 29.9304 33.6089 30.8625C33.7682 31.3832 33.5764 31.9554 33.0415 32.5612L33.0399 32.5596Z" fill="#BA8469"/>
<path fill-rule="evenodd" clip-rule="evenodd" d="M28.9472 34.9282L28.9868 35.0007L28.9876 35.0021C29.0025 35.0307 29.2188 35.4453 29.649 35.858C30.0908 36.2819 30.7531 36.6991 31.651 36.6991C32.5562 36.6991 33.3186 36.3579 33.8585 36.0121C34.1282 35.8394 34.3413 35.6662 34.4875 35.5355C34.5605 35.4702 34.6168 35.4156 34.655 35.377C34.6916 35.3401 34.7129 35.3166 34.7129 35.3166L34.77 35.2502L35.1669 35.6055L35.1146 35.6659C35.0579 35.7312 33.7434 37.2327 31.651 37.2327H31.6492C30.5793 37.2327 29.8033 36.7529 29.2923 36.2664C28.7823 35.7808 28.5323 35.285 28.5108 35.2402L28.4766 35.1689L28.9472 34.9282Z" fill="#BA8469"/>
<path d="M39.8668 23.3721C39.3758 22.6232 38.7727 22.1844 38.0721 22.0687C36.817 21.8614 35.6449 22.7533 35.6336 22.763L35.4336 22.5107C35.4856 22.4705 36.726 21.5207 38.1241 21.7521C38.9207 21.8839 39.5986 22.3708 40.1399 23.1985L39.8668 23.3737V23.3721Z" fill="#682200"/>
<path d="M39.8184 23.5953L39.7306 23.4603C39.2657 22.7516 38.6999 22.337 38.0448 22.2277C36.8694 22.0332 35.7445 22.8818 35.7331 22.8898L35.6047 22.9878L35.2031 22.4832L35.3316 22.3836C35.3852 22.3418 36.6809 21.3502 38.1505 21.5929C38.9926 21.7327 39.7078 22.2421 40.2768 23.11L40.3646 23.245L39.8184 23.5937V23.5953ZM35.6648 22.5427C36.0176 22.3113 37.0255 21.7327 38.0984 21.9111C38.5049 21.9786 38.8804 22.1457 39.2218 22.4125C38.8804 22.1457 38.5049 21.9786 38.0968 21.9111C37.0076 21.7311 36.0143 22.308 35.6648 22.5427Z" fill="#471C00"/>
<path d="M24.0703 22.6763L23.8086 22.485C23.8574 22.4191 25.0181 20.8811 26.5072 20.9293C27.3477 20.955 28.1085 21.4822 28.7669 22.493L28.4938 22.6666C27.8955 21.749 27.2241 21.2733 26.4974 21.2491C25.1872 21.209 24.0817 22.6602 24.0703 22.6746V22.6763Z" fill="#682200"/>
<path d="M24.1039 22.8992L23.582 22.5184L23.6779 22.3898C23.7283 22.3207 24.9427 20.7184 26.5115 20.7682C27.4072 20.7955 28.2119 21.3468 28.9028 22.4059L28.9906 22.5409L28.4444 22.8896L28.3566 22.7546C27.7893 21.8836 27.1618 21.432 26.492 21.4111C25.276 21.3709 24.2112 22.7578 24.1998 22.7723L24.1022 22.9009L24.1039 22.8992ZM24.0388 22.4541C24.3493 22.0925 25.3329 21.0575 26.4806 21.0896C25.3085 21.0607 24.3445 22.0877 24.0372 22.4541H24.0388Z" fill="#471C00"/>
<path d="M20.4894 30.5155C20.5577 30.26 20.6373 30.0077 20.6845 29.7489C20.8178 29.0145 21.4778 27.814 24.5763 29.233C28.7852 31.1616 27.6472 32.7687 25.0461 33.8936C22.6613 34.9254 20.1415 31.8012 20.4894 30.5171V30.5155Z" fill="#FFD3C1"/>
<path d="M39.0117 33.8695C38.446 33.9128 37.8721 33.8245 37.3568 33.5882C36.4952 33.1929 35.5929 32.3266 36.9146 30.5186C39.028 27.6258 42.2793 28.9115 42.9296 30.0365C43.5441 31.1004 42.5605 33.6027 39.0117 33.8695Z" fill="#FFD3C1"/>
<path fill-rule="evenodd" clip-rule="evenodd" d="M42.5671 56.4962C51.7948 57.9578 59.7733 60.1096 61.3 63.0805V68.8002H0.5C0.5 68.8002 2.48657 53.8557 14.0109 53.9988C16.7776 54.0331 20.7539 54.2097 25.2445 54.5458L24.8479 50.6417C24.778 50.383 25.0251 50.1419 25.3404 50.1596L41.1907 51.0516C41.5418 51.0724 41.8198 51.3103 41.8361 51.6044L42.5671 56.4962Z" fill="url(#paint5_linear_1232_10276)"/>
<path fill-rule="evenodd" clip-rule="evenodd" d="M25.8242 51.3293L26.0518 55.7055L26.2111 55.6958L25.9835 51.3213L25.8242 51.3293ZM26.618 51.3583L26.8439 55.7328L27.0033 55.7232L26.7757 51.3486L26.618 51.3583ZM27.8018 55.7664L27.5742 51.3919L27.7335 51.3822L27.9611 55.7568L27.8018 55.7664ZM28.368 51.4192L28.5956 55.7937L28.7549 55.7857L28.5273 51.4111L28.368 51.4192ZM29.5518 55.8277L29.3242 51.4532L29.4835 51.4451L29.7095 55.8197L29.5518 55.8277ZM30.118 51.4821L30.3456 55.8566L30.5049 55.847L30.2773 51.4725L30.118 51.4821ZM31.3018 55.8902L31.0742 51.5157L31.2335 51.5061L31.4611 55.8806L31.3018 55.8902ZM31.8742 51.543L32.1018 55.9175L32.2611 55.9095L32.0335 51.535L31.8742 51.543ZM32.8939 55.9465L32.668 51.5719L32.8257 51.5623L33.0533 55.9368L32.8939 55.9465ZM33.4617 51.5993L33.6893 55.9738L33.8486 55.9658L33.621 51.5912L33.4617 51.5993ZM34.6456 56.0078L34.418 51.6332L34.5773 51.6252L34.8049 55.9997L34.6456 56.0078ZM35.218 51.6622L35.4456 56.0367L35.6033 56.0271L35.3773 51.6525L35.218 51.6622ZM36.4018 56.0703L36.1742 51.6958L36.3335 51.6861L36.5611 56.0607L36.4018 56.0703ZM36.968 51.7231L37.1956 56.0977L37.3549 56.0896L37.1273 51.7135L36.968 51.7231ZM38.1518 56.1313L37.9242 51.7567L38.0835 51.7471L38.3111 56.1232L38.1518 56.1313ZM38.8773 51.776L38.718 51.7856L38.9456 56.1602L39.1049 56.1505L38.8773 51.776ZM39.8018 56.1668L39.5742 51.7923L39.7335 51.7826L39.9595 56.1572L39.8018 56.1668ZM40.5305 51.8259L40.7581 56.2004L40.9174 56.1907L40.6898 51.8162L40.5305 51.8259ZM41.3242 51.8532L41.4835 51.8436L41.7111 56.2197L41.5518 56.2277L41.3242 51.8532Z" fill="black" fill-opacity="0.5"/>
</g>
<defs>
<linearGradient id="paint0_linear_1232_10276" x1="30.3628" y1="38.6232" x2="31.8484" y2="54.6075" gradientUnits="userSpaceOnUse">
<stop stop-color="#FFAD7B"/>
<stop offset="0.740514" stop-color="#FBDFD1"/>
</linearGradient>
<linearGradient id="paint1_linear_1232_10276" x1="18.1371" y1="27.7681" x2="18.1371" y2="36.3829" gradientUnits="userSpaceOnUse">
<stop offset="0.385917" stop-color="#FFD6C1"/>
<stop offset="1" stop-color="#FBDFD1"/>
</linearGradient>
<linearGradient id="paint2_linear_1232_10276" x1="46.3031" y1="29.5815" x2="47.9031" y2="36.7815" gradientUnits="userSpaceOnUse">
<stop stop-color="#FFD6C1"/>
<stop offset="1" stop-color="#FBDFD1"/>
</linearGradient>
<linearGradient id="paint3_linear_1232_10276" x1="26.685" y1="16.9929" x2="35.1072" y2="44.4572" gradientUnits="userSpaceOnUse">
<stop stop-color="#FFC8AC"/>
<stop offset="0.750181" stop-color="#FBDFD1"/>
</linearGradient>
<linearGradient id="paint4_linear_1232_10276" x1="43.8776" y1="9.28164" x2="20.3847" y2="26.0804" gradientUnits="userSpaceOnUse">
<stop stop-color="#8F3900"/>
<stop offset="1" stop-color="#6D2B00"/>
</linearGradient>
<linearGradient id="paint5_linear_1232_10276" x1="17.1117" y1="50.8779" x2="45.0725" y2="69.6197" gradientUnits="userSpaceOnUse">
<stop stop-color="#0171F1"/>
<stop offset="1" stop-color="#6DBCFF"/>
</linearGradient>
</defs>
</svg>
