<svg width="24" height="18" viewBox="0 0 24 18" fill="none" xmlns="http://www.w3.org/2000/svg">
<path d="M0.000119603 5.72622C-0.00983433 7.39581 0.599999 8.99998 2.4 10.6875L7.2 14.625L11.3726 17.5925C11.7164 17.837 12.1766 17.8394 12.523 17.5986L16.8 14.625L21.6 10.6875C23.4 8.99998 24.0098 7.39581 23.9999 5.72622C23.9899 4.13785 23.323 2.68486 22.1086 1.63798C18.9411 -1.09086 14.8802 -0.110984 12.0543 2.38704C9.22849 -0.110984 5.05892 -1.09086 1.89137 1.63798C0.676987 2.68486 0.0100735 4.13785 0.000119603 5.72622Z" fill="#F288B7"/>
<path fill-rule="evenodd" clip-rule="evenodd" d="M2.4 10.8332C0.599999 9.12268 -0.00983433 7.49664 0.000119603 5.80429C0.0100735 4.19427 0.676987 2.72146 1.89137 1.66031C5.03868 -1.08806 9.17524 -0.125037 12 2.37123V17.999C11.7652 18.0091 11.5273 17.9439 11.3326 17.8035L7.2 14.8244L2.4 10.8332Z" fill="#EE5599"/>
</svg>
