<svg width="31" height="21" viewBox="0 0 31 21" fill="none" xmlns="http://www.w3.org/2000/svg">
<path d="M29.9011 8.39298C29.6246 10.0187 28.7516 11.4735 26.6975 12.8038L15.9785 18.2475L16.453 15.5566C16.482 15.392 16.4269 15.2237 16.306 15.1082L14.4347 13.3206C14.1767 13.0741 14.2524 12.6445 14.5792 12.5012L16.5073 11.6552C16.834 11.5118 16.9097 11.0822 16.6518 10.8358L15.1293 9.38134C14.8713 9.13488 14.947 8.70528 15.2737 8.56193L17.2019 7.71594C17.5286 7.57259 17.6043 7.14299 17.3464 6.89653L15.8239 5.44211C15.5659 5.19565 15.6416 4.76605 15.9683 4.6227L18.0932 3.6904C18.3994 3.55606 18.6181 3.27759 18.6762 2.94831L18.7488 2.53682C21.9475 0.595575 26.1108 0.887774 28.7482 4.08957C29.7592 5.31776 30.1638 6.84632 29.9011 8.39298Z" fill="#BDBDC0"/>
<path d="M1.0208 8.13278C1.29739 9.75845 2.17038 11.2133 4.22446 12.5436L14.9434 17.9873L14.4689 15.2964C14.4399 15.1317 14.3305 14.9925 14.1774 14.9253L11.8076 13.8855C11.4808 13.7422 11.4051 13.3126 11.6631 13.0661L13.1856 11.6117C13.4436 11.3652 13.3678 10.9356 13.0411 10.7923L11.113 9.9463C10.7862 9.80294 10.7105 9.37334 10.9685 9.12689L12.491 7.67246C12.749 7.42601 12.6732 6.99641 12.3465 6.85305L10.4184 6.00707C10.0916 5.86371 10.0159 5.43411 10.2739 5.18766L12.1452 3.40001C12.2661 3.28453 12.3213 3.11628 12.2922 2.95164L12.1732 2.27662C8.97441 0.335373 4.81112 0.627571 2.17377 3.82937C1.16277 5.05755 0.758146 6.58611 1.0208 8.13278Z" fill="#9E9EA1"/>
</svg>
