<svg width="18" height="16" viewBox="0 0 18 16" fill="none" xmlns="http://www.w3.org/2000/svg">
<circle cx="9" cy="7" r="7" fill="#212123"/>
<path fill-rule="evenodd" clip-rule="evenodd" d="M14.26 11.8872C13.2396 13.7426 11.2661 15 8.99903 15C6.73192 15 4.75849 13.7426 3.73807 11.8872C3.70776 11.8972 3.67703 11.9065 3.64587 11.9148C2.57894 12.2007 1.42433 11.3513 1.06697 10.0176C0.709616 8.68397 1.28484 7.37107 2.35177 7.08519C2.66836 7.00036 2.99267 7.01549 3.30158 7.11357C4.09233 4.72405 6.34434 3 8.99903 3C11.6537 3 13.9057 4.72404 14.6965 7.11354C15.0054 7.01548 15.3296 7.00036 15.6462 7.08519C16.7131 7.37107 17.2884 8.68397 16.931 10.0176C16.5737 11.3513 15.419 12.2007 14.3521 11.9148C14.321 11.9065 14.2903 11.8973 14.26 11.8872Z" fill="url(#paint0_linear_1564_14348)"/>
<path fill-rule="evenodd" clip-rule="evenodd" d="M16 7C16 7.07487 15.9988 7.14947 15.9965 7.22378C15.8871 7.16492 15.7704 7.1182 15.6472 7.08519C15.3306 7.00036 15.0063 7.01548 14.6974 7.11354C14.6969 7.11205 14.6965 7.11055 14.696 7.10906L14.5412 7.90195L14.2696 7.10629C10.6696 7.10629 9.16703 6 9.00037 5V3C9.00028 3 9.0002 3 9.00012 3V5C8.83346 6 7.33093 7.10629 3.73093 7.10629L3.45924 7.90195L3.30435 7.10814C3.30375 7.10995 3.30316 7.11176 3.30256 7.11357C2.99365 7.01549 2.66934 7.00036 2.35275 7.08519C2.22955 7.1182 2.11291 7.1649 2.00351 7.22375C2.00118 7.14945 2 7.07486 2 7C2 3.13401 5.13401 0 9 0C12.866 0 16 3.13401 16 7Z" fill="url(#paint1_linear_1564_14348)"/>
<ellipse cx="7.5" cy="9" rx="0.5" ry="1" fill="#212123"/>
<ellipse cx="10.5" cy="9" rx="0.5" ry="1" fill="#212123"/>
<path fill-rule="evenodd" clip-rule="evenodd" d="M8.69833 12.3843C8.09804 12.2865 7.60251 11.9551 7.32422 11.6768L7.67777 11.3232C7.89948 11.545 8.30395 11.8135 8.77866 11.8908C9.23787 11.9655 9.78183 11.8656 10.3242 11.3232L10.6778 11.6768C10.0202 12.3344 9.31412 12.4845 8.69833 12.3843Z" fill="#212123"/>
<defs>
<linearGradient id="paint0_linear_1564_14348" x1="5.65038" y1="3.95194" x2="7.9687" y2="15.3923" gradientUnits="userSpaceOnUse">
<stop stop-color="#FFC8AC"/>
<stop offset="0.750181" stop-color="#FBDFD1"/>
</linearGradient>
<linearGradient id="paint1_linear_1564_14348" x1="5.5" y1="0.5" x2="14" y2="9" gradientUnits="userSpaceOnUse">
<stop stop-color="#212123"/>
<stop offset="1" stop-color="#424245"/>
</linearGradient>
</defs>
</svg>
