<svg width="80" height="80" viewBox="0 0 80 80" fill="none" xmlns="http://www.w3.org/2000/svg">
<path d="M2.00038 29.7236C1.96886 35.4744 3.9 40.9999 9.6 46.8124L24.8 60.3749L39.2229 71.532C39.58 71.8082 40.0779 71.811 40.438 71.5386L55.2 60.3749L70.4 46.8124C76.1 40.9999 78.0311 35.4744 77.9996 29.7236C77.9681 24.2526 75.8562 19.2478 72.0107 15.6419C61.9801 6.2426 49.1206 9.61772 40.1721 18.222C31.2235 9.61772 18.0199 6.2426 7.98933 15.6419C4.14379 19.2478 2.0319 24.2526 2.00038 29.7236Z" fill="url(#paint0_linear_1893_16408)"/>
<path fill-rule="evenodd" clip-rule="evenodd" d="M40.0002 41.8286L46.5859 48.4144L49.4144 45.5859L42.8286 39.0002L49.4144 32.4144L46.5859 29.5859L40.0002 36.1717L33.4144 29.5859L30.5859 32.4144L37.1717 39.0002L30.5859 45.5859L33.4144 48.4144L40.0002 41.8286Z" fill="#BDBDC0"/>
<defs>
<linearGradient id="paint0_linear_1893_16408" x1="10.5" y1="10" x2="61.5" y2="68.5" gradientUnits="userSpaceOnUse">
<stop stop-color="#F5F5F8"/>
<stop offset="1" stop-color="#E0E0E3"/>
</linearGradient>
</defs>
</svg>
