<svg width="107" height="144" viewBox="0 0 107 144" fill="none" xmlns="http://www.w3.org/2000/svg">
<rect width="107" height="142" rx="12" fill="#FBE3EE"/>
<path d="M75.6087 65.0638C75.6087 75.1718 70.9796 83.9855 64.1207 88.6328C62.8881 89.468 62.0435 90.8089 62.0435 92.2977V98.6741C62.0435 100.191 62.9011 101.577 64.2581 102.254L93.9267 117.051C100.712 120.436 105 127.366 105 134.949V144H1V134.949C1 127.366 5.28797 120.436 12.0733 117.051L41.7419 102.254C43.0989 101.577 43.9565 100.191 43.9565 98.6741V92.2977C43.9565 90.8089 43.1119 89.468 41.8793 88.6328C35.0204 83.9854 30.3913 75.1718 30.3913 65.0638C30.3913 50.1169 40.5136 38 53 38C65.4864 38 75.6087 50.1169 75.6087 65.0638Z" fill="white"/>
<rect x="0.5" y="0.5" width="106" height="141" rx="11.5" stroke="#F288B7" stroke-dasharray="6 3"/>
</svg>
