<svg width="24" height="24" viewBox="0 0 24 24" fill="none" xmlns="http://www.w3.org/2000/svg">
<path fill-rule="evenodd" clip-rule="evenodd" d="M11.25 1V4H12.75V1H11.25ZM17.5 13C17.5 9.96243 15.0376 7.5 12 7.5C8.96243 7.5 6.5 9.96243 6.5 13V15.5C6.5 16.8807 7.61929 18 9 18H17.5V13ZM12 6C8.13401 6 5 9.13401 5 13V15.5C5 17.7091 6.79086 19.5 9 19.5H18C18.5523 19.5 19 19.0523 19 18.5V13C19 9.13401 15.866 6 12 6ZM3 22V20.5H21V22H3ZM18.9785 2.66828L20.0391 3.72894L17.9178 5.85026L16.8571 4.7896L18.9785 2.66828ZM5.27154 2.66828L4.21088 3.72894L6.3322 5.85026L7.39286 4.7896L5.27154 2.66828Z" fill="#212123"/>
</svg>
