<svg width="178" height="259" viewBox="0 0 178 259" fill="none" xmlns="http://www.w3.org/2000/svg">
<path d="M156.117 204.5C158.117 226.9 170.95 249.833 177.117 258.5H120.616L114.616 245.5C112.783 244.667 106.916 240.5 98.1165 230.5C89.3165 220.5 84.4498 207.667 83.1165 202.5C82.7831 198.667 79.7165 191 70.1165 191C60.5165 191 53.1165 192 50.6165 192.5C46.2831 193.333 36.9165 193.9 34.1165 189.5C31.3165 185.1 38.9498 180.667 43.1165 179L32.6165 166.5C28.2832 164.667 19.9165 159.5 21.1165 153.5C22.3165 147.5 27.9498 146.667 30.6165 147V88.5H110.616C115.783 99.6667 128.916 125.8 140.116 141C154.116 160 153.617 176.5 156.117 204.5Z" fill="url(#paint0_linear_2512_31098)"/>
<mask id="mask0_2512_31098" style="mask-type:alpha" maskUnits="userSpaceOnUse" x="90" y="154" width="37" height="67">
<path d="M90.1172 154H126.117V208L100.117 221L90.1172 154Z" fill="#D9D9D9"/>
</mask>
<g mask="url(#mask0_2512_31098)">
<g filter="url(#filter0_f_2512_31098)">
<path d="M101.617 171C104.017 191.4 115.951 200.5 122.117 202.5L112.117 169.5L101.617 171Z" fill="#E18357" fill-opacity="0.72"/>
</g>
</g>
<rect x="32.6172" y="2.5" width="83" height="175" rx="13.5" fill="#F5F5F8" stroke="#212123" stroke-width="5"/>
<rect x="60.1172" y="10" width="28" height="6" rx="3" fill="#212123"/>
<path d="M28.1172 24.5C28.1172 24.2239 28.341 24 28.6172 24H33.1172V30H28.6172C28.341 30 28.1172 29.7761 28.1172 29.5V24.5Z" fill="#212123"/>
<path d="M28.1172 34.5C28.1172 34.2239 28.341 34 28.6172 34H33.1172V46H28.6172C28.341 46 28.1172 45.7761 28.1172 45.5V34.5Z" fill="#212123"/>
<path d="M28.1172 47.5C28.1172 47.2239 28.341 47 28.6172 47H33.1172V59H28.6172C28.341 59 28.1172 58.7761 28.1172 58.5V47.5Z" fill="#212123"/>
<mask id="mask1_2512_31098" style="mask-type:alpha" maskUnits="userSpaceOnUse" x="30" y="76" width="58" height="104">
<rect x="32.5" y="78.5" width="53" height="99" rx="13.5" fill="white" stroke="#212123" stroke-width="5"/>
</mask>
<g mask="url(#mask1_2512_31098)">
<g opacity="0.16" filter="url(#filter1_f_2512_31098)">
<path d="M0.117188 76H88.1172V150L0.117188 162V76Z" fill="#212123"/>
</g>
</g>
<rect y="62" width="88" height="88" fill="white"/>
<rect x="28" y="70" width="32" height="32" rx="16" fill="#FBE3EE"/>
<mask id="mask2_2512_31098" style="mask-type:alpha" maskUnits="userSpaceOnUse" x="28" y="70" width="32" height="32">
<rect x="28" y="70" width="32" height="32" rx="16" fill="#D9D9D9"/>
</mask>
<g mask="url(#mask2_2512_31098)">
<path d="M35.8361 84.5332C35.8361 84.5332 35.6264 85.8724 34.0188 86.9297C32.4112 87.9869 31.2579 89.2204 32.4461 91.2645C32.4461 91.2645 32.9354 92.0398 34.6129 91.8988C34.6129 91.8988 34.6129 93.8724 36.5001 94.0839C38.3874 94.2953 38.8067 93.238 38.8766 93.379C38.9465 93.52 39.7154 95.705 41.6725 94.8592C43.6296 94.0134 47.6138 96.1279 47.6138 96.1279C47.6138 96.1279 49.9204 96.4803 51.0387 94.2248C51.0387 94.2248 53.0657 95.0706 53.9045 93.4495C53.9045 93.4495 54.953 91.8284 53.6948 89.9958C52.4367 88.1632 50.4041 86.7126 50.4041 86.7126L35.8361 84.5332Z" fill="url(#paint1_linear_2512_31098)"/>
<path d="M41.9169 96.4451L41.0781 89.5376H46.8097L47.6484 97.6433L41.9169 96.4451Z" fill="url(#paint2_linear_2512_31098)"/>
<path d="M49.4648 80.5156C49.4648 80.5156 51.2591 80.1617 51.8295 81.255C51.8295 81.255 53.4783 80.6023 54.0228 81.9683C54.5673 83.3343 53.8684 84.2506 52.051 84.7439C50.2337 85.2373 49.6368 85.3078 49.6368 85.3078L49.4648 80.5156Z" fill="#8F3900"/>
<path d="M39.4334 86.0838C39.4334 87.1545 38.8386 88.0222 38.1054 88.0222C37.3722 88.0222 36.7773 87.4364 36.7773 86.3658C36.7773 85.2951 37.3722 84.1455 38.1054 84.1455C38.8386 84.1455 39.4334 85.0132 39.4334 86.0838Z" fill="url(#paint3_linear_2512_31098)"/>
<path d="M49.6386 85.3088C49.6386 85.3088 50.6549 84.604 51.284 85.1679C51.913 85.7317 51.913 86.789 51.1442 87.4939C50.3753 88.1987 49.8622 88.2135 49.0703 87.9245L49.6379 85.3088H49.6386Z" fill="url(#paint4_linear_2512_31098)"/>
<path d="M47.9486 89.7287C49.1397 88.3556 49.8156 86.3764 49.8743 83.9694C49.9568 80.5861 47.9556 78.1191 44.1553 78.1191C40.355 78.1191 38.2651 81.7843 38.3797 84.5685C38.3797 84.5685 37.9939 87.323 39.8993 89.6102L47.9486 89.7287Z" fill="#FED4C2"/>
<path d="M44.1544 78.119C47.954 78.119 49.9558 80.586 49.8733 83.9692C49.8146 86.3763 49.138 88.3555 47.9477 89.7285L39.8983 89.6101C37.9929 87.3229 38.3788 84.5683 38.3788 84.5683C38.2648 81.7842 40.3548 78.119 44.1544 78.119ZM44.1544 77.978C42.595 77.978 41.1942 78.5842 40.1031 79.731C38.8862 81.0096 38.1726 82.8598 38.239 84.562C38.2257 84.6656 38.1523 85.331 38.2865 86.2522C38.4186 87.1593 38.787 88.4943 39.7921 89.701L39.8333 89.7504H39.8969L47.9463 89.8695H48.0113L48.0539 89.8216C49.2771 88.4104 49.9551 86.3882 50.0145 83.9734C50.0586 82.1831 49.5364 80.6734 48.5048 79.6076C47.4738 78.5419 45.9703 77.9794 44.1558 77.9794L44.1544 77.978Z" fill="#8F3900" stroke="#8F3900" stroke-width="0.1"/>
<path d="M38.3758 84.5685C38.3758 84.5685 37.7208 89.2465 42.334 91.4717C42.334 91.4717 44.0116 92.2865 46.2483 91.0883C48.485 89.8901 49.7872 87.3526 49.8703 83.9694C49.9535 80.5861 47.951 78.1191 44.1514 78.1191C40.3518 78.1191 38.2611 81.7843 38.3758 84.5685Z" fill="url(#paint5_linear_2512_31098)"/>
<path d="M39.0491 86.2524C39.0784 86.1404 39.1127 86.0297 39.1329 85.9162C39.1903 85.5941 39.474 85.0676 40.8063 85.69C42.6159 86.5358 42.1266 87.2406 41.0083 87.734C39.9829 88.1865 38.8995 86.8163 39.0491 86.2531V86.2524Z" fill="#FFD3C1"/>
<path d="M47.0094 87.7235C46.7662 87.7425 46.5194 87.7037 46.2979 87.6001C45.9274 87.4267 45.5395 87.0468 46.1077 86.2539C47.0164 84.9851 48.4143 85.549 48.6939 86.0424C48.9581 86.509 48.5353 87.6065 47.0094 87.7235Z" fill="#FFD3C1"/>
<path d="M45.3396 85.6797C45.5402 85.6797 45.7027 85.3574 45.7027 84.9597C45.7027 84.5621 45.5402 84.2397 45.3396 84.2397C45.1391 84.2397 44.9766 84.5621 44.9766 84.9597C44.9766 85.3574 45.1391 85.6797 45.3396 85.6797Z" fill="black"/>
<path d="M42.4334 85.6797C42.6339 85.6797 42.7965 85.3574 42.7965 84.9597C42.7965 84.5621 42.6339 84.2397 42.4334 84.2397C42.2329 84.2397 42.0703 84.5621 42.0703 84.9597C42.0703 85.3574 42.2329 85.6797 42.4334 85.6797Z" fill="black"/>
<path fill-rule="evenodd" clip-rule="evenodd" d="M43.9735 85.4596L43.9361 85.4497L43.8789 85.6597L43.9185 85.6677C43.9174 85.6675 43.9176 85.6675 43.9192 85.668L43.9193 85.668L43.9291 85.6711C43.9377 85.6739 43.9501 85.678 43.965 85.6837C43.9951 85.695 44.0353 85.712 44.077 85.7348C44.1623 85.7816 44.2453 85.8482 44.271 85.9341C44.2965 86.0211 44.2611 86.1323 44.1423 86.2686L44.1186 86.2958L44.2616 86.4227H44.2952L44.3067 86.4094C44.4661 86.2254 44.5295 86.0437 44.4785 85.8728C44.4336 85.7216 44.3081 85.6194 44.1976 85.5556C44.0863 85.4913 43.9836 85.4622 43.9735 85.4596Z" fill="#BA8469"/>
<path fill-rule="evenodd" clip-rule="evenodd" d="M42.548 87.5233L42.53 87.4907L42.3164 87.599L42.3319 87.6311C42.3417 87.6513 42.4551 87.8744 42.6866 88.0929C42.9185 88.3118 43.2707 88.5277 43.7563 88.5277H43.7571C44.7067 88.5277 45.3033 87.8521 45.329 87.8227L45.3528 87.7955L45.1726 87.6356L45.1467 87.6655C45.1459 87.6664 45.1371 87.6761 45.1205 87.6927C45.1031 87.71 45.0776 87.7346 45.0444 87.764C44.9781 87.8228 44.8814 87.9008 44.759 87.9785C44.5139 88.1341 44.1679 88.2876 43.7571 88.2876C43.3496 88.2876 43.049 88.0999 42.8485 87.9091C42.6533 87.7234 42.5551 87.5369 42.5483 87.524L42.548 87.5233Z" fill="#BA8469"/>
<path d="M43.0356 78.9649C43.0356 78.9649 42.6861 84.8151 36.7798 84.8856C36.7798 84.8856 32.795 84.8151 33.8609 81.7138C33.8609 81.7138 34.3683 80.3041 36.605 80.6565C36.605 80.6565 37.353 77.3996 43.6919 77.484C43.6919 77.484 48.2453 77.484 49.6976 80.6396C49.6976 80.6396 50.5041 84.1138 49.8855 85.0266C49.8855 85.0266 49.838 85.3741 49.8156 85.3085C49.752 85.121 49.8156 84.7446 49.4193 84.7397C48.5588 84.7291 44.9822 84.1772 43.8701 79.0777C43.852 78.9938 43.7772 78.9346 43.6919 78.9381L43.0356 78.9649Z" fill="#8F3900"/>
<path d="M46.5728 83.6867C43.1912 82.6985 43.454 78.8247 43.454 78.8247H43.8111C43.8111 78.8247 43.4714 82.2263 46.5728 83.4154V83.6867Z" fill="#8F3900"/>
<path d="M47.3787 82.3167C47.1677 81.9883 46.9083 81.7958 46.6071 81.7451C46.0675 81.6542 45.5635 82.0454 45.5586 82.0496L45.4727 81.9389C45.495 81.9213 46.0283 81.5047 46.6295 81.6062C46.9719 81.664 47.2634 81.8776 47.4962 82.2406L47.3787 82.3174V82.3167Z" fill="#471C00"/>
<path fill-rule="evenodd" clip-rule="evenodd" d="M45.5282 81.9459L45.5683 81.9974C45.6195 81.9613 45.7266 81.8915 45.8682 81.828C46.0658 81.7395 46.3351 81.6612 46.6158 81.7085C46.9208 81.7599 47.1812 81.9498 47.3924 82.265L47.4459 82.23C47.2208 81.8919 46.9444 81.6967 46.6249 81.6428C46.335 81.5938 46.0596 81.6696 45.8522 81.7616C45.6957 81.831 45.5798 81.9086 45.5282 81.9459ZM47.3424 82.3273C47.1363 82.0104 46.8872 81.8296 46.6026 81.7816C46.3437 81.738 46.0912 81.8099 45.9006 81.8953C45.7145 81.9787 45.5919 82.0729 45.5866 82.0771C45.5864 82.0772 45.5866 82.0771 45.5866 82.0771L45.5551 82.1042L45.4219 81.9327L45.4504 81.9102C45.463 81.9003 45.6047 81.7897 45.8201 81.6942C46.0351 81.5989 46.327 81.5172 46.6382 81.5697C46.9943 81.6298 47.2941 81.8517 47.531 82.2211L47.5504 82.2513L47.3424 82.3874V82.3273Z" fill="#471C00"/>
<path d="M40.5891 82.0108L40.4766 81.9269C40.4975 81.898 40.9966 81.2235 41.6369 81.2446C41.9982 81.2559 42.3253 81.4871 42.6084 81.9304L42.491 82.0066C42.2338 81.6041 41.9451 81.3955 41.6327 81.3849C41.0693 81.3673 40.594 82.0037 40.5891 82.0101V82.0108Z" fill="#471C00"/>
<path fill-rule="evenodd" clip-rule="evenodd" d="M40.5276 81.9197L40.5794 81.9583C40.5793 81.9585 40.5795 81.9581 40.5794 81.9583C40.5943 81.9399 40.6163 81.9136 40.6438 81.883C40.6987 81.8217 40.7775 81.7407 40.8742 81.6604C41.0663 81.5008 41.3353 81.3385 41.6317 81.3478C41.9541 81.3587 42.2453 81.5684 42.5003 81.9544L42.5539 81.9197C42.2789 81.5015 41.9684 81.2921 41.6335 81.2817C41.3275 81.2716 41.0518 81.428 40.8472 81.5953C40.6866 81.7266 40.5732 81.8617 40.5276 81.9197ZM40.6254 82.0223V82.0863L40.4219 81.9346L40.4429 81.9056C40.4543 81.8899 40.5865 81.7112 40.7975 81.5387C41.0077 81.3668 41.3017 81.1965 41.636 81.2075C42.0158 81.2194 42.3527 81.4626 42.639 81.911L42.6584 81.9413L42.4771 82.0588L42.4561 82.026C42.2017 81.6279 41.9227 81.4319 41.6292 81.4219C41.3623 81.4136 41.112 81.5607 40.9244 81.7166C40.764 81.8498 40.6543 81.9852 40.6254 82.0223Z" fill="#471C00"/>
<path fill-rule="evenodd" clip-rule="evenodd" d="M41.6248 96.0303C39.477 95.8555 37.5601 95.7648 36.2623 95.7484C31.3073 95.6857 30.4531 102.24 30.4531 102.24H56.5946V99.7315C55.9038 98.3602 52.1405 97.3868 47.9121 96.7454L47.6583 94.698C47.652 94.569 47.5513 94.4647 47.4234 94.4556L41.6569 94.0644C41.5423 94.0566 41.4521 94.1623 41.4773 94.2758L41.6248 96.0303Z" fill="url(#paint6_linear_2512_31098)"/>
<path d="M41.832 94.6641L41.9592 96.5813L42.0277 96.5764L41.8998 94.6592L41.832 94.6641Z" fill="black" fill-opacity="0.5"/>
<path d="M42.1758 94.6709L42.303 96.5881L42.3715 96.5832L42.2436 94.666L42.1758 94.6709Z" fill="black" fill-opacity="0.5"/>
<path d="M42.5859 94.6797L42.7138 96.5962L42.7823 96.5913L42.6544 94.6748L42.5859 94.6797Z" fill="black" fill-opacity="0.5"/>
<path d="M42.9258 94.6868L43.0537 96.6033L43.1222 96.5983L42.9943 94.6812L42.9258 94.6868Z" fill="black" fill-opacity="0.5"/>
<path d="M43.3398 94.6944L43.4678 96.6116L43.5363 96.6066L43.4083 94.6895L43.3398 94.6944Z" fill="black" fill-opacity="0.5"/>
<path d="M43.6797 94.7017L43.8076 96.6189L43.8761 96.614L43.7482 94.6968L43.6797 94.7017Z" fill="black" fill-opacity="0.5"/>
<path d="M44.0938 94.71L44.2217 96.6272L44.2902 96.6216L44.1622 94.7051L44.0938 94.71Z" fill="black" fill-opacity="0.5"/>
<path d="M44.4336 94.7168L44.5615 96.6333L44.63 96.6284L44.5021 94.7119L44.4336 94.7168Z" fill="black" fill-opacity="0.5"/>
<path d="M44.7773 94.7239L44.9053 96.6404L44.9731 96.6354L44.8458 94.7183L44.7773 94.7239Z" fill="black" fill-opacity="0.5"/>
<path d="M45.1211 94.7305L45.249 96.6477L45.3168 96.6428L45.1896 94.7256L45.1211 94.7305Z" fill="black" fill-opacity="0.5"/>
<path d="M45.5312 94.7388L45.6592 96.656L45.727 96.6511L45.5997 94.7339L45.5312 94.7388Z" fill="black" fill-opacity="0.5"/>
<path d="M45.8711 94.7457L45.9983 96.6628L46.0668 96.6572L45.9396 94.7407L45.8711 94.7457Z" fill="black" fill-opacity="0.5"/>
<path d="M46.2852 94.7544L46.4124 96.6709L46.4809 96.666L46.3537 94.7495L46.2852 94.7544Z" fill="black" fill-opacity="0.5"/>
<path d="M46.625 94.7615L46.7522 96.678L46.8207 96.673L46.6935 94.7559L46.625 94.7615Z" fill="black" fill-opacity="0.5"/>
<path d="M47.0391 94.7691L47.1663 96.6863L47.2348 96.6813L47.1076 94.7642L47.0391 94.7691Z" fill="black" fill-opacity="0.5"/>
<path d="M47.4474 94.7715L47.3789 94.7764L47.5061 96.6936L47.5746 96.6887L47.4474 94.7715Z" fill="black" fill-opacity="0.5"/>
<path fill-rule="evenodd" clip-rule="evenodd" d="M50.2044 86.5052C50.0727 86.7424 50.0303 87.0099 50.0321 87.181L49.8399 87.183C49.8379 86.9856 49.8854 86.6842 50.0362 86.4127C50.1887 86.1381 50.4487 85.8917 50.8661 85.8218L50.898 86.0104C50.5493 86.0687 50.3344 86.271 50.2044 86.5052Z" fill="#F6B397"/>
<path fill-rule="evenodd" clip-rule="evenodd" d="M38.0942 86.8356C37.955 86.0604 37.5774 85.6161 37.4219 85.4984L37.5382 85.3462C37.7361 85.4959 38.1367 85.9846 38.2835 86.8019L38.0942 86.8356Z" fill="#F6B397"/>
</g>
<rect opacity="0.5" x="8" y="110" width="72" height="5" rx="1" fill="url(#paint7_linear_2512_31098)"/>
<rect opacity="0.5" x="8" y="119" width="40" height="5" rx="1" fill="url(#paint8_linear_2512_31098)"/>
<rect opacity="0.5" x="8" y="128" width="28" height="5" rx="1" fill="url(#paint9_linear_2512_31098)"/>
<path d="M40.1172 135C40.1172 130.029 44.1466 126 49.1172 126H72.1172C77.0877 126 81.1172 130.029 81.1172 135V142C81.1172 143.105 80.2218 144 79.1172 144H49.1172C44.1466 144 40.1172 139.971 40.1172 135Z" fill="#EE5599"/>
<path d="M92.1176 135L110.172 137.579C112.092 137.853 113.887 138.693 115.329 139.99C117.124 141.606 119.454 142.5 121.869 142.5H126.118V208.5C124.618 207.5 109.618 194 109.618 178C109.618 162 103.118 160 94.6176 157.5C86.1176 155 77.1176 150.5 77.6176 142C78.0176 135.2 87.4509 134.5 92.1176 135Z" fill="url(#paint10_linear_2512_31098)"/>
<defs>
<filter id="filter0_f_2512_31098" x="89.6172" y="157.5" width="44.5" height="57" filterUnits="userSpaceOnUse" color-interpolation-filters="sRGB">
<feFlood flood-opacity="0" result="BackgroundImageFix"/>
<feBlend mode="normal" in="SourceGraphic" in2="BackgroundImageFix" result="shape"/>
<feGaussianBlur stdDeviation="6" result="effect1_foregroundBlur_2512_31098"/>
</filter>
<filter id="filter1_f_2512_31098" x="-7.88281" y="68" width="104" height="102" filterUnits="userSpaceOnUse" color-interpolation-filters="sRGB">
<feFlood flood-opacity="0" result="BackgroundImageFix"/>
<feBlend mode="normal" in="SourceGraphic" in2="BackgroundImageFix" result="shape"/>
<feGaussianBlur stdDeviation="4" result="effect1_foregroundBlur_2512_31098"/>
</filter>
<linearGradient id="paint0_linear_2512_31098" x1="74.1165" y1="149.5" x2="139.272" y2="259.948" gradientUnits="userSpaceOnUse">
<stop stop-color="#FFC8AC"/>
<stop offset="0.515357" stop-color="#FBDFD1"/>
<stop offset="1" stop-color="#FBDFD1" stop-opacity="0"/>
</linearGradient>
<linearGradient id="paint1_linear_2512_31098" x1="43.1355" y1="84.5332" x2="43.1355" y2="96.1479" gradientUnits="userSpaceOnUse">
<stop stop-color="#552200"/>
<stop offset="1" stop-color="#8F3900"/>
</linearGradient>
<linearGradient id="paint2_linear_2512_31098" x1="42.7985" y1="89.9996" x2="45.3022" y2="96.8534" gradientUnits="userSpaceOnUse">
<stop stop-color="#FFAD7B"/>
<stop offset="0.740514" stop-color="#FBDFD1"/>
</linearGradient>
<linearGradient id="paint3_linear_2512_31098" x1="38.1054" y1="84.1455" x2="38.1054" y2="88.0222" gradientUnits="userSpaceOnUse">
<stop offset="0.385917" stop-color="#FFD6C1"/>
<stop offset="1" stop-color="#FBDFD1"/>
</linearGradient>
<linearGradient id="paint4_linear_2512_31098" x1="50.0606" y1="84.9598" x2="50.7751" y2="88.2023" gradientUnits="userSpaceOnUse">
<stop stop-color="#FFD6C1"/>
<stop offset="1" stop-color="#FBDFD1"/>
</linearGradient>
<linearGradient id="paint5_linear_2512_31098" x1="41.7068" y1="79.1998" x2="45.6396" y2="91.4594" gradientUnits="userSpaceOnUse">
<stop stop-color="#FFC8AC"/>
<stop offset="0.750181" stop-color="#FBDFD1"/>
</linearGradient>
<linearGradient id="paint6_linear_2512_31098" x1="40.2562" y1="94.6799" x2="46.013" y2="100.849" gradientUnits="userSpaceOnUse">
<stop stop-color="#EE5599"/>
<stop offset="1" stop-color="#F288B7"/>
</linearGradient>
<linearGradient id="paint7_linear_2512_31098" x1="8" y1="112.5" x2="80" y2="112.5" gradientUnits="userSpaceOnUse">
<stop stop-color="#F6B8D4"/>
<stop offset="1" stop-color="white"/>
</linearGradient>
<linearGradient id="paint8_linear_2512_31098" x1="8" y1="121.5" x2="48" y2="121.5" gradientUnits="userSpaceOnUse">
<stop stop-color="#F6B8D4"/>
<stop offset="1" stop-color="white"/>
</linearGradient>
<linearGradient id="paint9_linear_2512_31098" x1="8" y1="130.5" x2="36" y2="130.5" gradientUnits="userSpaceOnUse">
<stop stop-color="#F6B8D4"/>
<stop offset="1" stop-color="white"/>
</linearGradient>
<linearGradient id="paint10_linear_2512_31098" x1="121.118" y1="143" x2="133.652" y2="206.209" gradientUnits="userSpaceOnUse">
<stop stop-color="#FED0B9"/>
<stop offset="0.65497" stop-color="#FCDCCC"/>
<stop offset="1" stop-color="#FCE4D9"/>
</linearGradient>
</defs>
</svg>
