<svg width="296" height="265" viewBox="0 0 296 265" fill="none" xmlns="http://www.w3.org/2000/svg">
<path d="M58.2734 27.7008C57.8187 29.3605 57.9599 31.1101 59.1898 33.2403L62.6195 38.3607L65.6886 42.3151C65.9611 42.6662 66.4327 42.7953 66.8461 42.632L71.5796 40.7616L77.11 38.042C79.2401 36.8121 80.2372 35.3676 80.6733 33.7029C81.0878 32.1191 80.8529 30.5058 79.9987 29.1598C77.7703 25.6509 73.7187 25.6109 70.4148 27.3911C68.4437 24.1974 64.8135 22.1792 61.1291 24.1037C59.7164 24.8423 58.7064 26.122 58.2734 27.7008Z" fill="#F288B7"/>
<path d="M93.9198 21.0462C94.1824 22.0486 94.7827 22.9183 96.0653 23.6588L99.3952 25.2963L101.91 26.3216C102.321 26.4894 102.794 26.3655 103.071 26.0173L104.79 23.8507L106.855 20.7677C107.596 19.4851 107.681 18.4317 107.407 17.4324C107.146 16.4818 106.538 15.7112 105.687 15.2665C103.469 14.1077 101.344 15.3066 100.158 17.2295C98.1683 16.1576 95.6677 16.1981 94.326 18.3108C93.8117 19.1212 93.6703 20.0926 93.9198 21.0462Z" fill="#F6B8D4"/>
<path d="M19.4502 135.976C25.0204 153.45 36.4211 168.274 59.7275 180.191L119.968 206.096L177.06 226.048C177.48 226.195 177.947 226.046 178.205 225.683L213.719 175.634L247.229 119.268C259.079 95.9275 259.589 77.2336 253.825 59.823C248.336 43.2608 236.891 30.1975 221.478 23.1141C181.282 4.65668 144.95 27.779 125.833 62.8425C89.7577 45.7122 45.7128 48.7058 24.0423 87.2649C15.7366 102.055 14.1558 119.351 19.4502 135.976Z" fill="url(#paint0_linear_2512_31099)"/>
<mask id="mask0_2512_31099" style="mask-type:alpha" maskUnits="userSpaceOnUse" x="16" y="16" width="242" height="211">
<path d="M19.4502 135.974C25.0204 153.448 36.4211 168.272 59.7275 180.19L119.968 206.094L177.06 226.047C177.48 226.194 177.947 226.045 178.205 225.682L213.719 175.633L247.229 119.267C259.079 95.9261 259.589 77.2322 253.825 59.8215C248.336 43.2594 236.891 30.1961 221.478 23.1126C181.282 4.65521 144.95 27.7775 125.833 62.8411C89.7577 45.7107 45.7128 48.7043 24.0423 87.2634C15.7366 102.053 14.1558 119.349 19.4502 135.974Z" fill="#FBE3EE"/>
</mask>
<g mask="url(#mask0_2512_31099)">
<path d="M79.8364 115.752C79.8364 115.752 78.0906 120.986 71.069 124.146C64.0474 127.306 58.682 131.479 61.9198 140.482C61.9198 140.482 63.2989 143.924 69.961 144.488C69.961 144.488 68.5975 152.408 75.8367 154.528C83.076 156.648 85.4476 152.688 85.6237 153.301C85.7998 153.913 87.2991 163.2 95.5423 161.124C103.785 159.048 117.916 170.218 117.916 170.218C117.916 170.218 126.699 173.187 132.634 164.888C132.634 164.888 139.982 169.648 144.384 163.707C144.384 163.707 149.607 157.908 145.949 149.706C142.292 141.503 135.34 134.313 135.34 134.313L79.8364 115.752Z" fill="url(#paint1_linear_2512_31099)"/>
<path d="M92.9651 167.234L96.8906 139.368L116.725 142.782L111.971 175.457L92.9651 167.234Z" fill="url(#paint2_linear_2512_31099)"/>
<path d="M135.951 108.812C135.951 108.812 143.216 108.601 144.693 113.372C144.693 113.372 151.597 111.864 152.784 117.713C153.971 123.561 150.603 126.768 143.15 127.523C135.697 128.279 133.313 128.16 133.313 128.16L135.951 108.812Z" fill="#8F3900"/>
<path d="M92.8519 124.402C92.1122 128.698 89.185 131.78 86.3157 131.286C83.4464 130.792 81.5233 128.041 82.263 123.744C83.0027 119.447 86.1246 115.234 88.9939 115.728C91.8633 116.222 93.5916 120.105 92.8519 124.402Z" fill="url(#paint3_linear_2512_31099)"/>
<path d="M133.311 128.161C133.311 128.161 137.775 126.017 139.848 128.704C141.92 131.391 141.189 135.634 137.694 137.945C134.198 140.255 132.18 139.969 129.28 138.276L133.309 128.161L133.311 128.161Z" fill="url(#paint4_linear_2512_31099)"/>
<path d="M123.637 144.763C129.247 140.055 133.259 132.567 135.152 122.947C137.812 109.425 131.685 98.1763 116.813 95.6161C101.941 93.0559 91.2307 106.357 89.7558 117.608C89.7558 117.608 86.3429 128.402 92.2192 138.865L123.637 144.763Z" fill="#FED4C2"/>
<path d="M116.817 95.6167C131.686 98.1764 137.816 109.425 135.156 122.947C133.263 132.568 129.248 140.055 123.641 144.763L92.2231 138.865C86.3468 128.403 89.7597 117.608 89.7597 117.608C91.2373 106.358 101.948 93.057 116.817 95.6167ZM116.914 95.051C110.812 94.0005 104.912 95.4895 99.8496 99.3567C94.2041 103.668 90.1332 110.613 89.217 117.489C89.0935 117.895 88.3466 120.516 88.2353 124.304C88.1256 128.033 88.6448 133.639 91.7445 139.159L91.8718 139.384L92.1207 139.427L123.538 145.328L123.792 145.372L123.992 145.208C129.754 140.369 133.804 132.71 135.705 123.06C137.114 115.904 136.114 109.494 132.813 104.522C129.515 99.5501 124.02 96.28 116.919 95.0576L116.914 95.051Z" fill="#8F3900" stroke="#8F3900" stroke-width="0.1"/>
<path d="M89.7596 117.607C89.7596 117.607 83.9647 135.939 100.48 147.977C100.48 147.977 106.482 152.377 116.063 149.075C125.644 145.773 132.493 136.467 135.155 122.946C137.818 109.424 131.686 98.1748 116.817 95.6151C101.948 93.0554 91.2344 106.356 89.7596 117.607Z" fill="url(#paint5_linear_2512_31099)"/>
<path d="M91.2197 124.816C91.412 124.386 91.6225 123.965 91.7802 123.523C92.227 122.269 93.7013 120.347 98.4848 123.742C104.982 128.356 102.581 130.855 97.8632 132.081C93.5379 133.206 90.2448 126.978 91.2192 124.818L91.2197 124.816Z" fill="#FFD3C1"/>
<path d="M121.366 136.085C120.401 135.998 119.462 135.676 118.666 135.111C117.337 134.166 116.081 132.38 118.853 129.58C123.285 125.101 128.366 128.305 129.119 130.474C129.831 132.524 127.418 136.644 121.366 136.085Z" fill="#FFD3C1"/>
<path d="M116.188 127.082C116.914 127.207 117.728 126 118.005 124.387C118.283 122.773 117.92 121.364 117.194 121.239C116.468 121.114 115.654 122.321 115.376 123.934C115.098 125.548 115.462 126.957 116.188 127.082Z" fill="black"/>
<path d="M105.314 125.212C106.048 125.339 106.867 124.133 107.145 122.519C107.423 120.906 107.054 119.495 106.32 119.369C105.587 119.243 104.767 120.449 104.489 122.062C104.211 123.676 104.581 125.086 105.314 125.212Z" fill="black"/>
<path fill-rule="evenodd" clip-rule="evenodd" d="M111.041 124.953L110.901 124.888L110.532 125.692L110.681 125.751C110.677 125.749 110.678 125.75 110.684 125.753L110.684 125.753C110.69 125.756 110.702 125.762 110.721 125.772C110.752 125.789 110.798 125.814 110.853 125.846C110.962 125.912 111.108 126.007 111.255 126.127C111.557 126.372 111.836 126.696 111.877 127.057C111.916 127.424 111.701 127.846 111.142 128.313L111.031 128.406L111.502 129.012L111.634 129.035L111.688 128.989C112.439 128.358 112.813 127.672 112.731 126.951C112.66 126.314 112.239 125.82 111.851 125.489C111.46 125.156 111.078 124.97 111.041 124.953Z" fill="#BA8469"/>
<path fill-rule="evenodd" clip-rule="evenodd" d="M104.036 132.275L103.988 132.132L103.078 132.422L103.116 132.562C103.14 132.649 103.43 133.621 104.185 134.654C104.941 135.689 106.171 136.792 108.071 137.119L108.074 137.12C111.79 137.76 114.591 135.45 114.712 135.349L114.824 135.256L114.23 134.493L114.108 134.596L114.108 134.596C114.104 134.599 114.062 134.632 113.986 134.687C113.906 134.745 113.789 134.827 113.639 134.922C113.339 135.114 112.907 135.361 112.374 135.591C111.308 136.05 109.847 136.433 108.24 136.156C106.645 135.882 105.598 134.926 104.946 134.025C104.31 133.148 104.055 132.334 104.037 132.278L104.036 132.275Z" fill="#BA8469"/>
<path d="M112.752 98.373C112.243 98.3071 111.765 98.6262 111.617 99.1179C110.36 103.29 103.757 121.07 83.2837 117.803C83.2837 117.803 67.7385 114.836 74.0524 103.108C74.0524 103.108 77.0121 97.7925 85.5216 100.714C85.5216 100.714 92.4097 86.2269 117.158 90.836C117.158 90.836 133.265 95.8235 136.769 109.466C136.769 109.466 137.525 123.952 134.473 127.198C134.473 127.198 134.047 128.561 134.005 128.282C133.885 127.487 134.394 126.02 132.847 125.733C129.487 125.111 115.872 120.486 115.043 99.2717C115.03 98.9229 114.778 98.6349 114.442 98.5916L112.752 98.373Z" fill="#8F3900"/>
<path d="M122.439 119.589C109.888 113.345 113.593 97.9754 113.593 97.9754L114.991 98.216C114.991 98.216 111.311 111.638 122.626 118.5L122.439 119.589Z" fill="#8F3900"/>
<path d="M126.543 114.634C125.944 113.173 125.062 112.227 123.918 111.82C121.87 111.091 119.627 112.322 119.605 112.336L119.345 111.834C119.445 111.778 121.82 110.465 124.102 111.278C125.402 111.74 126.395 112.794 127.055 114.407L126.543 114.637L126.543 114.634Z" fill="#471C00"/>
<path fill-rule="evenodd" clip-rule="evenodd" d="M119.551 111.897L119.672 112.131C119.898 112.02 120.365 111.812 120.963 111.653C121.797 111.431 122.905 111.298 123.971 111.677C125.129 112.089 126.017 113.026 126.626 114.434L126.859 114.329C126.212 112.821 125.265 111.851 124.052 111.419C122.951 111.028 121.822 111.146 120.946 111.376C120.286 111.549 119.779 111.782 119.551 111.897ZM126.387 114.65C125.799 113.239 124.95 112.346 123.869 111.962C122.886 111.612 121.848 111.73 121.043 111.945C120.258 112.154 119.713 112.45 119.689 112.463C119.688 112.463 119.689 112.463 119.689 112.463L119.547 112.551L119.144 111.772L119.271 111.701C119.327 111.67 119.958 111.322 120.867 111.084C121.775 110.846 122.973 110.715 124.155 111.135C125.507 111.616 126.527 112.709 127.198 114.351L127.253 114.485L126.346 114.891L126.387 114.65Z" fill="#471C00"/>
<path d="M100.176 108.831L99.7939 108.419C99.8959 108.317 102.315 105.946 104.806 106.462C106.212 106.751 107.333 107.899 108.134 109.869L107.622 110.096C106.893 108.307 105.908 107.275 104.693 107.022C102.5 106.572 100.2 108.806 100.177 108.828L100.176 108.831Z" fill="#471C00"/>
<path fill-rule="evenodd" clip-rule="evenodd" d="M100.007 108.425L100.183 108.615C100.183 108.616 100.184 108.615 100.183 108.615C100.254 108.551 100.359 108.461 100.487 108.356C100.745 108.147 101.109 107.875 101.543 107.618C102.405 107.107 103.57 106.637 104.723 106.874C105.977 107.135 106.972 108.173 107.703 109.894L107.937 109.79C107.15 107.927 106.079 106.878 104.776 106.61C103.585 106.363 102.398 106.805 101.482 107.339C100.763 107.757 100.226 108.224 100.007 108.425ZM100.319 108.903L100.275 109.16L99.5833 108.414L99.6856 108.312C99.7412 108.256 100.382 107.628 101.327 107.078C102.268 106.53 103.536 106.045 104.837 106.314C106.315 106.618 107.465 107.821 108.276 109.813L108.331 109.948L107.54 110.297L107.481 110.151C106.76 108.382 105.804 107.408 104.662 107.17C103.623 106.957 102.542 107.378 101.7 107.878C100.981 108.304 100.458 108.774 100.319 108.903Z" fill="#471C00"/>
<path d="M115.197 159.81L96.2236 154.007C95.1851 153.69 94.0893 154.267 93.7142 155.286C90.9057 162.915 89.7567 158.559 73.7327 156.81C59.986 155.311 56.3003 184.68 56.1758 199.552L129.392 231.046C130.015 230.672 131.783 226.172 133.875 211.175C136.489 192.429 135.397 187.718 133.875 182.681C132.114 176.853 117.065 169.933 115.197 168.433C113.329 166.933 115.197 163.184 115.571 161.684C115.869 160.485 115.446 159.935 115.197 159.81Z" fill="url(#paint6_linear_2512_31099)"/>
<path d="M95.2212 155.461L93.5902 162.53L93.8372 162.585L95.4657 155.515L95.2212 155.461Z" fill="black" fill-opacity="0.5"/>
<path d="M96.4556 155.853L94.8246 162.922L95.0716 162.977L96.7001 155.907L96.4556 155.853Z" fill="black" fill-opacity="0.5"/>
<path d="M97.6821 156.292L96.0544 163.36L96.3013 163.414L97.9291 156.347L97.6821 156.292Z" fill="black" fill-opacity="0.5"/>
<path d="M98.9197 156.683L97.2919 163.75L97.5389 163.805L99.1674 156.735L98.9197 156.683Z" fill="black" fill-opacity="0.5"/>
<path d="M100.151 157.122L98.5224 164.192L98.7693 164.246L100.398 157.176L100.151 157.122Z" fill="black" fill-opacity="0.5"/>
<path d="M101.389 157.514L99.7607 164.584L100.008 164.639L101.636 157.569L101.389 157.514Z" fill="black" fill-opacity="0.5"/>
<path d="M102.62 157.952L100.991 165.022L101.239 165.074L102.867 158.007L102.62 157.952Z" fill="black" fill-opacity="0.5"/>
<path d="M103.858 158.345L102.23 165.413L102.477 165.468L104.105 158.4L103.858 158.345Z" fill="black" fill-opacity="0.5"/>
<path d="M105.092 158.737L103.464 165.805L103.708 165.858L105.339 158.789L105.092 158.737Z" fill="black" fill-opacity="0.5"/>
<path d="M106.327 159.127L104.698 166.197L104.943 166.251L106.574 159.181L106.327 159.127Z" fill="black" fill-opacity="0.5"/>
<path d="M107.557 159.566L105.929 166.636L106.173 166.69L107.804 159.621L107.557 159.566Z" fill="black" fill-opacity="0.5"/>
<path d="M108.792 159.959L107.161 167.028L107.408 167.08L109.038 160.013L108.792 159.959Z" fill="black" fill-opacity="0.5"/>
<path d="M110.018 160.399L108.388 167.465L108.635 167.52L110.265 160.453L110.018 160.399Z" fill="black" fill-opacity="0.5"/>
<path d="M111.252 160.79L109.621 167.857L109.868 167.912L111.499 160.842L111.252 160.79Z" fill="black" fill-opacity="0.5"/>
<path d="M112.483 161.226L110.852 168.296L111.099 168.35L112.73 161.281L112.483 161.226Z" fill="black" fill-opacity="0.5"/>
<path d="M113.96 161.673L113.713 161.618L112.082 168.688L112.329 168.742L113.96 161.673Z" fill="black" fill-opacity="0.5"/>
<path fill-rule="evenodd" clip-rule="evenodd" d="M134.705 133.347C134.025 134.21 133.675 135.255 133.563 135.943L132.81 135.822C132.938 135.028 133.333 133.851 134.11 132.863C134.897 131.863 136.084 131.05 137.766 131.05L137.76 131.829C136.356 131.828 135.375 132.495 134.705 133.347Z" fill="#F6B397"/>
<path fill-rule="evenodd" clip-rule="evenodd" d="M86.2845 126.523C87.0819 123.419 86.4613 121.153 86.0961 120.461L86.7726 120.087C87.2371 120.966 87.8663 123.435 87.0256 126.708L86.2845 126.523Z" fill="#F6B397"/>
<path d="M161.027 144.309L158.578 105.303L187.378 102.728L190.26 146.578L161.027 144.309Z" fill="url(#paint7_linear_2512_31099)"/>
<path d="M151.526 101.528C151.852 105.169 150.147 108.295 147.721 108.512C145.295 108.729 143.149 106.913 142.824 103.273C142.498 99.6318 144.117 95.5467 146.543 95.3297C148.969 95.1128 151.201 97.8872 151.526 101.528Z" fill="url(#paint8_linear_2512_31099)"/>
<path d="M193.546 95.9525C193.546 95.9525 197.585 92.6439 200.456 94.7451C203.327 96.8462 203.72 101.232 200.728 104.447C197.735 107.662 195.252 106.962 191.794 106.062L193.543 95.9528L193.546 95.9525Z" fill="#FBDFD1"/>
<path d="M187.698 72.1785C182.94 68.1475 176.369 66.3831 168.69 67.0697C162.092 67.6598 156.389 70.7046 152.197 75.8748C147.522 81.6395 145.189 89.5852 146.101 96.6215C146.083 97.0564 146.02 99.8445 146.929 103.615C147.3 105.156 147.875 106.985 148.749 108.929C148.905 109.272 149.258 109.482 149.636 109.448C146.373 102.728 147.794 96.4967 147.794 96.4967C146.279 84.9899 152.664 69.0924 168.743 67.6545C184.821 66.2167 194.208 75.6933 195.114 89.7598C195.489 95.5916 194.721 98.698 193.286 103.33C193.671 103.295 193.999 103.033 194.103 102.664C195.383 98.1435 196.827 95.8321 196.473 90.3108C195.995 82.8671 192.462 76.2119 187.701 72.1812L187.698 72.1785Z" fill="#6D2C01"/>
<path d="M147.233 96.2691C147.233 96.2691 144.055 116.726 164.371 123.978C164.371 123.978 171.761 126.638 180.788 120.947C189.815 115.257 196.25 104.119 195.379 90.4088C194.507 76.6982 185.497 67.6701 169.427 69.1073C153.356 70.5444 147.856 85.2464 147.233 96.2691Z" fill="url(#paint9_linear_2512_31099)"/>
<path d="M147.037 83.2555C147.037 83.2555 143.56 89.7617 146.265 99.3802L149.85 84.1401L147.037 83.2555Z" fill="#6D2C01"/>
<path d="M175.043 98.299C175.846 98.2271 176.382 96.8655 176.238 95.2577C176.094 93.6499 175.326 92.4049 174.522 92.4768C173.718 92.5487 173.183 93.9103 173.327 95.518C173.471 97.1258 174.239 98.3709 175.043 98.299Z" fill="black"/>
<path d="M161.945 99.4694C162.749 99.3975 163.284 98.0359 163.14 96.4281C162.996 94.8204 162.228 93.5753 161.424 93.6472C160.62 93.7191 160.085 95.0807 160.229 96.6884C160.373 98.2962 161.141 99.5413 161.945 99.4694Z" fill="black"/>
<path d="M191.126 71.9642C191.126 71.9642 185.593 56.2249 167.408 54.6271C167.408 54.6271 161.923 56.4326 168.815 62.6829C168.815 62.6829 144.361 54.8714 134.836 60.6911C125.308 66.5106 136.757 73.028 141.073 72.7525C141.073 72.7525 130.487 79.0418 145.747 84.7223C161.007 90.3996 179.569 85.6414 186.814 81.2834C186.814 81.2834 189.552 88.6121 196.177 94.8467L197.368 94.1059C197.368 94.1059 207.495 78.1378 191.126 71.9674L191.126 71.9642Z" fill="url(#paint10_linear_2512_31099)"/>
<path d="M167.295 102.954L167.904 102.324C167.064 101.533 166.709 100.795 166.847 100.135C167.112 98.8642 169.059 98.1301 169.079 98.1224L168.773 97.3068C168.675 97.3421 166.35 98.2161 165.984 99.9583C165.779 100.932 166.221 101.941 167.293 102.957L167.295 102.954Z" fill="#BA8469"/>
<path fill-rule="evenodd" clip-rule="evenodd" d="M163.493 107.637L163.577 107.762L163.578 107.765C163.61 107.814 164.071 108.533 164.921 109.214C165.794 109.914 167.067 110.565 168.701 110.419C170.347 110.272 171.679 109.527 172.605 108.81C173.068 108.452 173.427 108.102 173.672 107.84C173.794 107.71 173.888 107.601 173.951 107.525C174.012 107.452 174.046 107.405 174.046 107.405L174.14 107.275L174.92 107.857L174.834 107.975C174.742 108.104 172.594 111.049 168.787 111.39L168.784 111.39C166.838 111.564 165.348 110.817 164.339 110.015C163.332 109.215 162.796 108.354 162.75 108.275L162.676 108.151L163.493 107.637Z" fill="#BA8469"/>
<path fill-rule="evenodd" clip-rule="evenodd" d="M181.446 87.2149L181.628 87.4463L181.627 87.4433L182.564 86.72L182.383 86.4886C181.206 85.0022 179.822 84.1917 178.267 84.0743C175.554 83.8719 173.358 85.8868 173.267 85.9716L173.05 86.1738L173.862 87.0266L174.08 86.8273C174.08 86.827 174.081 86.8262 174.083 86.8248C174.168 86.7496 176.047 85.0868 178.178 85.2465C179.388 85.3387 180.485 86.0011 181.446 87.2149Z" fill="#471C00"/>
<path fill-rule="evenodd" clip-rule="evenodd" d="M152.921 88.735L152.921 88.7353L152.919 88.7385L152.921 88.735ZM151.91 88.1273L152.921 88.735L153.075 88.4887C153.075 88.4884 153.076 88.4879 153.076 88.487C153.129 88.4047 154.828 85.7626 157.024 85.6391C158.246 85.5682 159.461 86.2877 160.635 87.7802L160.817 88.0116L161.754 87.2882L161.573 87.0569C160.143 85.2423 158.589 84.3703 156.955 84.4664C154.093 84.631 152.144 87.7438 152.064 87.8777L151.91 88.1273Z" fill="#471C00"/>
<path d="M152.941 101.894C153.013 101.478 153.104 101.066 153.142 100.648C153.249 99.4607 154.127 97.4579 159.252 99.2743C166.214 101.743 164.634 104.46 160.661 106.619C157.019 108.599 152.571 103.988 152.941 101.897L152.941 101.894Z" fill="#FFD3C1"/>
<path d="M180.446 105.699C179.424 105.87 178.365 105.802 177.389 105.456C175.757 104.877 173.975 103.448 176.085 99.9433C179.46 94.3362 185.584 96.1464 186.95 98.0874C188.242 99.9232 186.859 104.636 180.446 105.699Z" fill="#FFD3C1"/>
<path fill-rule="evenodd" clip-rule="evenodd" d="M191.037 135.567C202.01 137.316 212.597 141.223 220.715 144.906C226.812 147.671 232.345 151.988 234.677 158.264C241.878 177.652 234.953 206.347 229.795 220.006L174.933 231.381L127.764 215.658C126.659 193.361 128.133 178.244 129.85 169.497C130.917 164.064 134.018 159.368 138.067 155.592C144.993 149.132 152.246 143.649 159.275 139.923L158.995 132.269C158.976 131.732 159.444 131.254 160.079 131.159L189.871 126.859C190.442 126.775 190.931 127.174 190.846 127.656L191.037 135.567Z" fill="url(#paint11_linear_2512_31099)"/>
<path fill-rule="evenodd" clip-rule="evenodd" d="M189.056 129.078L189.354 137.077L189.062 137.085L188.765 129.089L189.056 129.078ZM187.617 129.26L187.917 137.255L187.626 137.264L187.328 129.268L187.617 129.26ZM186.18 137.472L185.882 129.476L185.591 129.484L185.889 137.48L186.18 137.472ZM184.443 129.655L184.74 137.651L184.449 137.662L184.151 129.666L184.443 129.655ZM183.006 137.868L182.708 129.872L182.417 129.883L182.718 137.879L183.006 137.868ZM181.269 130.054L181.566 138.05L181.275 138.058L180.977 130.062L181.269 130.054ZM179.832 138.267L179.534 130.271L179.243 130.279L179.541 138.276L179.832 138.267ZM178.083 130.451L178.381 138.447L178.09 138.458L177.792 130.462L178.083 130.451ZM176.945 138.628L176.644 130.632L176.355 130.64L176.653 138.636L176.945 138.628ZM175.204 130.811L175.502 138.808L175.21 138.819L174.913 130.823L175.204 130.811ZM173.767 139.025L173.47 131.029L173.179 131.04L173.476 139.036L173.767 139.025ZM172.019 131.211L172.317 139.208L172.028 139.216L171.727 131.22L172.019 131.211ZM170.582 139.424L170.285 131.428L169.993 131.436L170.291 139.432L170.582 139.424ZM168.845 131.607L169.143 139.603L168.851 139.614L168.553 131.615L168.845 131.607ZM167.408 139.82L167.111 131.824L166.819 131.832L167.117 139.832L167.408 139.82ZM165.38 132.014L165.671 132.006L165.969 140.002L165.677 140.01L165.38 132.014ZM164.412 140.153L164.114 132.157L163.823 132.166L164.123 140.161L164.412 140.153ZM162.38 132.373L162.677 140.37L162.386 140.378L162.088 132.382L162.38 132.373ZM160.94 132.553L160.649 132.561L160.947 140.56L161.238 140.549L160.94 132.553Z" fill="black" fill-opacity="0.5"/>
<path d="M145.828 179.529C147.501 185.774 150.98 200.471 151.515 209.302" stroke="#1D5597"/>
<path d="M154.718 211.506C154.487 216.16 154.192 222.246 154.192 222.682V224.69L144.825 224.02V219.672V217.664C144.49 215.992 135.458 214.319 133.451 214.319C131.444 214.319 129.102 212.312 135.458 211.643C141.814 210.974 143.821 212.647 144.825 212.647C145.628 212.647 144.936 211.754 144.49 211.308C142.149 208.632 130.839 205.944 130.44 203.949C130.106 202.276 131.555 202.165 132.113 202.276C131.444 201.942 130.44 201.942 130.44 200.938C130.44 200.092 130.963 199.663 131.444 199.6C137.53 198.806 143.683 200.782 146.083 201.904C144.37 201.087 140.576 198.747 138.469 195.585C136.328 192.374 137.8 191.794 138.803 191.906L148.434 198.987C149.583 199.832 150.538 200.913 151.235 202.157L153.454 206.121C154.373 207.762 154.811 209.628 154.718 211.506Z" fill="url(#paint12_linear_2512_31099)"/>
</g>
<path d="M133 200C135.346 200.143 140.63 200.943 143 203" stroke="#F6B397" stroke-width="0.5"/>
<defs>
<linearGradient id="paint0_linear_2512_31099" x1="117.2" y1="38.0774" x2="178.3" y2="226.124" gradientUnits="userSpaceOnUse">
<stop stop-color="#FF96C6"/>
<stop offset="1" stop-color="#EE5599"/>
</linearGradient>
<linearGradient id="paint1_linear_2512_31099" x1="108.401" y1="120.67" x2="100.377" y2="167.282" gradientUnits="userSpaceOnUse">
<stop stop-color="#552200"/>
<stop offset="1" stop-color="#8F3900"/>
</linearGradient>
<linearGradient id="paint2_linear_2512_31099" x1="100.469" y1="141.892" x2="107.116" y2="170.252" gradientUnits="userSpaceOnUse">
<stop stop-color="#FFAD7B"/>
<stop offset="0.740514" stop-color="#FBDFD1"/>
</linearGradient>
<linearGradient id="paint3_linear_2512_31099" x1="88.9939" y1="115.728" x2="86.3157" y2="131.286" gradientUnits="userSpaceOnUse">
<stop offset="0.385917" stop-color="#FFD6C1"/>
<stop offset="1" stop-color="#FBDFD1"/>
</linearGradient>
<linearGradient id="paint4_linear_2512_31099" x1="135.204" y1="127.045" x2="135.903" y2="140.532" gradientUnits="userSpaceOnUse">
<stop stop-color="#FFD6C1"/>
<stop offset="1" stop-color="#FBDFD1"/>
</linearGradient>
<linearGradient id="paint5_linear_2512_31099" x1="106.504" y1="98.3053" x2="114.183" y2="150.042" gradientUnits="userSpaceOnUse">
<stop stop-color="#FFC8AC"/>
<stop offset="0.750181" stop-color="#FBDFD1"/>
</linearGradient>
<linearGradient id="paint6_linear_2512_31099" x1="95.65" y1="153.436" x2="95.65" y2="231.046" gradientUnits="userSpaceOnUse">
<stop stop-color="#FF9FCB"/>
<stop offset="1" stop-color="#FF77B6"/>
</linearGradient>
<linearGradient id="paint7_linear_2512_31099" x1="166.335" y1="113.158" x2="171.638" y2="141.998" gradientUnits="userSpaceOnUse">
<stop stop-color="#FFAD7B"/>
<stop offset="0.740514" stop-color="#FBDFD1"/>
</linearGradient>
<linearGradient id="paint8_linear_2512_31099" x1="146.543" y1="95.3297" x2="147.721" y2="108.512" gradientUnits="userSpaceOnUse">
<stop offset="0.385917" stop-color="#FFD6C1"/>
<stop offset="1" stop-color="#FBDFD1"/>
</linearGradient>
<linearGradient id="paint9_linear_2512_31099" x1="159.478" y1="74.4013" x2="179.27" y2="123.001" gradientUnits="userSpaceOnUse">
<stop stop-color="#FFC8AC"/>
<stop offset="0.750181" stop-color="#FBDFD1"/>
</linearGradient>
<linearGradient id="paint10_linear_2512_31099" x1="148.151" y1="56.0838" x2="193.409" y2="92.6303" gradientUnits="userSpaceOnUse">
<stop stop-color="#8F3900"/>
<stop offset="1" stop-color="#6D2B00"/>
</linearGradient>
<linearGradient id="paint11_linear_2512_31099" x1="151.545" y1="134.265" x2="224.493" y2="144.059" gradientUnits="userSpaceOnUse">
<stop stop-color="#0171F1"/>
<stop offset="1" stop-color="#0092FF"/>
</linearGradient>
<linearGradient id="paint12_linear_2512_31099" x1="137.529" y1="194.495" x2="147.988" y2="223.24" gradientUnits="userSpaceOnUse">
<stop stop-color="#FFC8AC"/>
<stop offset="0.750181" stop-color="#FBDFD1"/>
</linearGradient>
</defs>
</svg>
