<svg width="300" height="270" viewBox="0 0 300 270" fill="none" xmlns="http://www.w3.org/2000/svg">
<path opacity="0.6" d="M86.6211 44.0254L208.737 22.493L239.994 199.758L117.878 221.291L86.6211 44.0254Z" fill="#F6B8D4"/>
<mask id="mask0_2512_31095" style="mask-type:alpha" maskUnits="userSpaceOnUse" x="84" y="22" width="156" height="205">
<path d="M86.6207 44.0248L208.737 22.4924L239.994 199.758L84.5 227L86.6207 44.0248Z" fill="#F6B8D4"/>
</mask>
<g mask="url(#mask0_2512_31095)">
<g opacity="0.22" filter="url(#filter0_f_2512_31095)">
<path d="M76.8555 31.7686L200.384 20.9612L216.159 201.272L110.998 215.492L92.4563 210.087L76.8555 31.7686Z" fill="#F288B7"/>
</g>
</g>
<path d="M76.8555 31.7686L200.384 20.9612L216.072 200.276L110.475 209.515L91.9334 204.11L76.8555 31.7686Z" fill="white"/>
<path d="M91.9336 204.11L109.865 202.542L110.475 209.515L91.9336 204.11Z" fill="url(#paint0_linear_2512_31095)"/>
<mask id="mask1_2512_31095" style="mask-type:alpha" maskUnits="userSpaceOnUse" x="76" y="20" width="141" height="190">
<path d="M77.3971 32.2231L199.929 21.5029L215.53 199.822L110.525 209.009L92.4017 203.726L77.3971 32.2231Z" fill="#F6F8FD" stroke="url(#paint1_linear_2512_31095)"/>
</mask>
<g mask="url(#mask1_2512_31095)">
<rect x="100.516" y="49.7749" width="80" height="80" rx="40" transform="rotate(-5 100.516 49.7749)" fill="#FBE3EE"/>
<mask id="mask2_2512_31095" style="mask-type:alpha" maskUnits="userSpaceOnUse" x="103" y="46" width="81" height="81">
<rect x="100.516" y="49.7749" width="80" height="80" rx="40" transform="rotate(-5 100.516 49.7749)" fill="#D9D9D9"/>
</mask>
<g mask="url(#mask2_2512_31095)">
<path d="M124.454 83.1493C124.454 83.1493 124.228 86.5298 120.488 89.5103C116.749 92.4907 114.17 95.8118 117.549 100.646C117.549 100.646 118.927 102.471 123.038 101.758C123.038 101.758 123.468 106.673 128.175 106.792C132.881 106.91 133.686 104.187 133.89 104.523C134.093 104.859 136.468 110.134 141.116 107.605C145.765 105.076 156.064 109.481 156.064 109.481C156.064 109.481 161.837 109.861 164.107 104.002C164.107 104.002 169.297 105.67 171.015 101.452C171.015 101.452 173.25 97.1877 169.744 92.8954C166.238 88.6032 160.903 85.4297 160.903 85.4297L124.454 83.1493Z" fill="url(#paint2_linear_2512_31095)"/>
<path d="M142.065 111.502L138.488 94.48L152.642 93.2417L156.479 113.248L142.065 111.502Z" fill="url(#paint3_linear_2512_31095)"/>
<path d="M157.235 70.1986C157.235 70.1986 161.588 68.9297 163.235 71.5291C163.235 71.5291 167.164 69.5474 168.807 72.8317C170.449 76.1161 168.922 78.5491 164.542 80.1705C160.162 81.7919 158.703 82.0965 158.703 82.0965L157.235 70.1986Z" fill="#8F3900"/>
<path d="M133.68 86.2335C133.914 88.9 132.634 91.1894 130.823 91.3478C129.013 91.5062 127.416 90.176 127.183 87.5095C126.95 84.8431 128.168 81.8515 129.979 81.6931C131.789 81.5347 133.447 83.5671 133.68 86.2335Z" fill="url(#paint4_linear_2512_31095)"/>
<path d="M158.704 82.098C158.704 82.098 161.06 80.1231 162.737 81.3915C164.413 82.6599 164.643 85.293 162.898 87.2145C161.153 89.1361 159.889 89.2838 157.871 88.7351L158.703 82.0982L158.704 82.098Z" fill="url(#paint5_linear_2512_31095)"/>
<path d="M155.492 93.4719C158.134 89.7951 159.372 84.7199 158.992 78.7125C158.459 70.2687 152.98 64.5571 143.595 65.3781C134.211 66.1991 129.849 75.7788 130.738 82.6879C130.738 82.6879 130.386 89.6314 135.589 94.916L155.492 93.4719Z" fill="#FED4C2"/>
<path d="M143.596 65.3777C152.979 64.5568 158.459 70.2683 158.993 78.7121C159.372 84.7195 158.133 89.7948 155.493 93.4715L135.59 94.9156C130.386 89.631 130.739 82.6875 130.739 82.6875C129.851 75.7782 134.213 66.1986 143.596 65.3777ZM143.565 65.0266C139.714 65.3635 136.388 67.1758 133.943 70.2676C131.217 73.7148 129.858 78.4769 130.392 82.7019C130.382 82.9628 130.346 84.6358 130.878 86.9011C131.402 89.1318 132.602 92.3769 135.347 95.165L135.46 95.279L135.617 95.2653L155.52 93.8229L155.68 93.8089L155.775 93.6803C158.488 89.9017 159.722 84.719 159.343 78.6921C159.061 74.2239 157.443 70.5766 154.663 68.1453C151.885 65.7138 148.05 64.6378 143.569 65.0299L143.565 65.0266Z" fill="#8F3900" stroke="#8F3900" stroke-width="0.1"/>
<path d="M130.738 82.6879C130.738 82.6879 130.14 94.48 142.017 99.0252C142.017 99.0252 146.337 100.692 151.599 97.2246C156.861 93.7572 159.524 87.1564 158.992 78.7125C158.46 70.2685 152.978 64.5572 143.595 65.3781C134.212 66.199 129.849 75.7788 130.738 82.6879Z" fill="url(#paint6_linear_2512_31095)"/>
<path d="M132.759 86.7372C132.807 86.4517 132.868 86.1687 132.893 85.8817C132.964 85.0671 133.55 83.6945 136.976 84.9567C141.629 86.6723 140.574 88.5334 137.92 90.0038C135.486 91.3523 132.513 88.1738 132.759 86.7389L132.759 86.7372Z" fill="#FFD3C1"/>
<path d="M152.745 88.6801C152.149 88.78 151.531 88.7368 150.961 88.5266C150.009 88.1748 148.968 87.3125 150.198 85.2149C152.166 81.8588 155.741 82.9611 156.539 84.1295C157.293 85.2345 156.488 88.0591 152.745 88.6801Z" fill="#FFD3C1"/>
<path d="M148.171 83.9512C148.666 83.9079 148.998 83.07 148.911 82.0796C148.824 81.0893 148.353 80.3216 147.858 80.3649C147.362 80.4082 147.031 81.2462 147.118 82.2365C147.204 83.2268 147.676 83.9945 148.171 83.9512Z" fill="black"/>
<path d="M140.999 84.5787C141.495 84.5353 141.826 83.6974 141.739 82.7071C141.652 81.7167 141.181 80.949 140.686 80.9924C140.19 81.0357 139.859 81.8736 139.946 82.864C140.033 83.8543 140.504 84.622 140.999 84.5787Z" fill="black"/>
<path fill-rule="evenodd" clip-rule="evenodd" d="M144.751 83.698L144.656 83.6816L144.561 84.2169L144.66 84.2282C144.657 84.2279 144.658 84.228 144.662 84.2289C144.666 84.2298 144.675 84.2315 144.687 84.2344C144.709 84.2395 144.74 84.2472 144.779 84.258C144.855 84.2797 144.958 84.3133 145.066 84.3612C145.287 84.4592 145.507 84.6073 145.589 84.8155C145.671 85.0268 145.607 85.3114 145.344 85.6766L145.291 85.7493L145.672 86.0344L145.755 86.0271L145.781 85.9915C146.134 85.499 146.251 85.0327 146.088 84.618C145.944 84.2513 145.612 84.0238 145.325 83.8888C145.036 83.7528 144.776 83.7024 144.751 83.698Z" fill="#BA8469"/>
<path fill-rule="evenodd" clip-rule="evenodd" d="M141.68 89.1459L141.629 89.0686L141.125 89.3845L141.17 89.461C141.199 89.5092 141.528 90.0402 142.147 90.5345C142.767 91.0296 143.684 91.4912 144.883 91.3863L144.885 91.3861C147.23 91.181 148.556 89.3694 148.613 89.2906L148.666 89.2178L148.186 88.8585L148.129 88.9385C148.127 88.9409 148.107 88.967 148.07 89.0119C148.031 89.0589 147.973 89.1256 147.898 89.206C147.747 89.3668 147.525 89.5818 147.24 89.8018C146.668 90.2423 145.847 90.6994 144.833 90.7881C143.827 90.8762 143.043 90.4735 142.507 90.0418C141.984 89.6214 141.701 89.1781 141.682 89.1475L141.68 89.1459Z" fill="#BA8469"/>
<path d="M141.02 67.726C141.02 67.726 141.432 82.3714 126.862 83.823C126.862 83.823 117.007 84.5083 118.963 76.5543C118.963 76.5543 119.909 72.9338 125.509 73.3283C125.509 73.3283 126.647 65.0554 142.318 63.8961C142.318 63.8961 153.562 62.9124 157.836 70.4576C157.836 70.4576 160.585 78.9358 159.256 81.3427C159.256 81.3427 159.214 82.2183 159.145 82.0599C158.947 81.6067 159.022 80.6556 158.042 80.7289C155.915 80.8885 146.963 80.2867 143.106 67.8266C143.042 67.6216 142.845 67.4903 142.635 67.5175L141.02 67.726Z" fill="#8F3900"/>
<path d="M150.784 78.7211C142.219 76.9906 142.023 67.2861 142.023 67.2861L142.905 67.2089C142.905 67.2089 142.808 75.7539 150.725 78.0453L150.784 78.7211Z" fill="#8F3900"/>
<path d="M152.478 75.1341C151.886 74.3617 151.203 73.9385 150.448 73.8772C149.096 73.7673 147.937 74.8504 147.926 74.862L147.689 74.605C147.741 74.5563 148.967 73.4036 150.473 73.5265C151.332 73.5965 152.098 74.0654 152.752 74.9191L152.479 75.1359L152.478 75.1341Z" fill="#471C00"/>
<path fill-rule="evenodd" clip-rule="evenodd" d="M147.821 74.6111L147.931 74.7309C148.05 74.6299 148.299 74.4329 148.635 74.2442C149.103 73.9811 149.751 73.728 150.455 73.7851C151.219 73.8472 151.903 74.2639 152.494 75.0033L152.618 74.9045C151.989 74.1111 151.264 73.6846 150.463 73.6193C149.736 73.5601 149.073 73.8084 148.581 74.0823C148.209 74.2888 147.94 74.5073 147.821 74.6111ZM152.384 75.1692C151.806 74.4245 151.151 74.0279 150.438 73.97C149.789 73.9173 149.181 74.1508 148.729 74.4047C148.288 74.6526 148.006 74.9139 147.993 74.9253C147.993 74.9256 147.993 74.9253 147.993 74.9253L147.922 74.9997L147.555 74.6013L147.621 74.5391C147.65 74.5118 147.976 74.2056 148.487 73.9213C148.997 73.6374 149.7 73.3709 150.48 73.4345C151.372 73.5072 152.161 73.9952 152.826 74.8639L152.881 74.935L152.397 75.3188L152.384 75.1692Z" fill="#471C00"/>
<path d="M135.64 75.8396L135.344 75.655C135.39 75.5785 136.475 73.7908 138.061 73.7051C138.955 73.6551 139.814 74.1602 140.609 75.2032L140.336 75.4182C139.613 74.4714 138.855 74.0142 138.081 74.0554C136.686 74.1332 135.651 75.821 135.64 75.8379L135.64 75.8396Z" fill="#471C00"/>
<path fill-rule="evenodd" clip-rule="evenodd" d="M135.475 75.6256L135.611 75.7105C135.611 75.7109 135.612 75.7101 135.611 75.7105C135.644 75.6615 135.693 75.5913 135.754 75.509C135.876 75.3445 136.053 75.1258 136.274 74.9049C136.714 74.4661 137.343 74.0037 138.077 73.9627C138.875 73.9203 139.64 74.3796 140.354 75.2858L140.479 75.1877C139.708 74.2056 138.896 73.7514 138.067 73.7977C137.309 73.8386 136.662 74.2877 136.193 74.7486C135.826 75.1102 135.575 75.4714 135.475 75.6256ZM135.739 75.8601L135.753 76.0194L135.217 75.6856L135.263 75.6088C135.288 75.5671 135.575 75.0935 136.058 74.6184C136.54 74.1449 137.229 73.6573 138.057 73.6125C138.997 73.56 139.882 74.0929 140.687 75.1477L140.741 75.2191L140.319 75.5509L140.26 75.4737C139.545 74.5373 138.814 74.1093 138.087 74.1479C137.426 74.1849 136.84 74.6053 136.41 75.034C136.044 75.4004 135.802 75.7613 135.739 75.8601Z" fill="#471C00"/>
<path fill-rule="evenodd" clip-rule="evenodd" d="M141.254 110.531C135.912 110.56 131.159 110.748 127.95 110.987C115.701 111.902 115.02 128.41 115.02 128.41L179.573 122.762L179.027 116.515C177.022 113.249 167.517 111.637 156.936 110.954L155.863 105.909C155.819 105.59 155.548 105.351 155.23 105.356L140.905 105.628C140.62 105.633 140.421 105.916 140.507 106.193L141.254 110.531Z" fill="url(#paint7_linear_2512_31095)"/>
<path d="M141.47 107.084L142.202 111.831L142.37 111.804L141.636 107.057L141.47 107.084Z" fill="black" fill-opacity="0.5"/>
<path d="M142.317 107.027L143.049 111.775L143.217 111.748L142.484 107L142.317 107.027Z" fill="black" fill-opacity="0.5"/>
<path d="M143.333 106.96L144.067 111.705L144.235 111.678L143.501 106.933L143.333 106.96Z" fill="black" fill-opacity="0.5"/>
<path d="M144.181 106.904L144.914 111.649L145.082 111.622L144.349 106.875L144.181 106.904Z" fill="black" fill-opacity="0.5"/>
<path d="M145.196 106.834L145.93 111.581L146.098 111.554L145.364 106.807L145.196 106.834Z" fill="black" fill-opacity="0.5"/>
<path d="M146.044 106.778L146.778 111.525L146.946 111.498L146.212 106.751L146.044 106.778Z" fill="black" fill-opacity="0.5"/>
<path d="M147.06 106.71L147.793 111.457L147.961 111.428L147.228 106.683L147.06 106.71Z" fill="black" fill-opacity="0.5"/>
<path d="M147.907 106.653L148.641 111.399L148.809 111.372L148.075 106.626L147.907 106.653Z" fill="black" fill-opacity="0.5"/>
<path d="M148.755 106.597L149.489 111.342L149.655 111.315L148.923 106.568L148.755 106.597Z" fill="black" fill-opacity="0.5"/>
<path d="M149.603 106.539L150.336 111.286L150.503 111.259L149.771 106.512L149.603 106.539Z" fill="black" fill-opacity="0.5"/>
<path d="M150.618 106.471L151.352 111.218L151.518 111.191L150.786 106.444L150.618 106.471Z" fill="black" fill-opacity="0.5"/>
<path d="M151.466 106.415L152.198 111.162L152.366 111.133L151.634 106.388L151.466 106.415Z" fill="black" fill-opacity="0.5"/>
<path d="M152.482 106.347L153.213 111.092L153.381 111.065L152.65 106.32L152.482 106.347Z" fill="black" fill-opacity="0.5"/>
<path d="M153.329 106.29L154.061 111.036L154.229 111.009L153.497 106.262L153.329 106.29Z" fill="black" fill-opacity="0.5"/>
<path d="M154.345 106.221L155.077 110.968L155.245 110.941L154.513 106.194L154.345 106.221Z" fill="black" fill-opacity="0.5"/>
<path d="M155.361 106.138L155.192 106.165L155.924 110.912L156.092 110.885L155.361 106.138Z" fill="black" fill-opacity="0.5"/>
<path fill-rule="evenodd" clip-rule="evenodd" d="M160.366 84.9557C160.092 85.575 160.046 86.2503 160.087 86.6761L159.613 86.7226C159.565 86.2314 159.617 85.4706 159.93 84.7618C160.247 84.0449 160.835 83.375 161.851 83.1108L161.97 83.5736C161.122 83.7943 160.636 84.3446 160.366 84.9557Z" fill="#F6B397"/>
<path fill-rule="evenodd" clip-rule="evenodd" d="M130.536 88.3946C130.023 86.4941 128.994 85.4692 128.584 85.2097L128.838 84.8054C129.359 85.1356 130.455 86.2661 130.996 88.27L130.536 88.3946Z" fill="#F6B397"/>
</g>
</g>
<g opacity="0.5">
<rect x="111.047" y="147.228" width="76" height="8" rx="2" transform="rotate(-5 111.047 147.228)" fill="url(#paint8_linear_2512_31095)"/>
<rect x="112.441" y="163.167" width="56" height="8" rx="2" transform="rotate(-5 112.441 163.167)" fill="url(#paint9_linear_2512_31095)"/>
<rect x="113.836" y="179.106" width="40" height="8" rx="2" transform="rotate(-5 113.836 179.106)" fill="url(#paint10_linear_2512_31095)"/>
</g>
<g opacity="0.16" filter="url(#filter1_f_2512_31095)">
<path d="M236.002 159.011L233.161 154.428C231.807 152.502 227.918 150.136 221.85 151.316C217.522 152.157 213.173 152.083 209.992 152.029C207.583 151.988 205.844 151.958 205.289 152.345C205.031 152.525 204.288 153.023 203.253 153.713C200.148 155.782 194.407 159.578 191.209 161.689L183.252 171.546L185.473 170.919L181.98 171.973C181.423 172.141 181.09 172.708 181.216 173.274L181.286 173.586L177.12 173.552L172.316 176.809L171 177.144L171.069 177.413L172.181 177.129L177.928 178.218L181.87 176.208L181.955 176.59C182.081 177.158 182.628 177.532 183.206 177.446L188.112 176.713L185.981 178.935C184.919 180.043 185.326 181.822 186.862 181.913C188.269 181.997 189.859 181.767 191.212 180.823C191.484 180.633 191.747 180.431 192.002 180.221L191.266 180.989C190.203 182.097 190.61 183.876 192.146 183.967C193.442 184.044 194.894 183.855 196.172 183.087C196.035 183.989 196.557 184.866 197.624 184.93C199.031 185.013 200.621 184.783 201.974 183.839C202.418 183.529 202.84 183.188 203.236 182.829C204.4 183.09 205.587 183.328 206.56 183.512C207.281 183.654 207.96 183.961 208.534 184.419L225.078 197.628C227.304 199.405 229.722 200.98 232.45 201.807C233.175 202.027 233.892 202.211 234.536 202.322C235.673 202.517 236.975 203.068 237.529 204.077L262.173 249L298 222.093L251.177 183.479L239.961 165.394L250.047 162.568C251.554 162.145 252.452 160.606 252.074 159.092C251.847 158.181 251.205 157.473 250.392 157.13C249.905 156.924 249.355 156.849 248.797 156.939L236.002 159.011Z" fill="url(#paint11_linear_2512_31095)"/>
</g>
<path fill-rule="evenodd" clip-rule="evenodd" d="M164.474 12.0577C164.185 8.75656 166.627 5.84637 169.928 5.55756C173.229 5.26875 176.139 7.71069 176.428 11.0118L177.474 22.9661L181.459 22.6175L180.413 10.6632C179.931 5.16134 175.081 1.09143 169.579 1.57278C164.077 2.05413 160.007 6.90445 160.489 12.4063L162.668 37.3112C163.293 44.4635 169.599 49.7544 176.751 49.1287C183.904 48.5029 189.194 42.1975 188.569 35.0451L186.868 15.6058L182.883 15.9545L184.584 35.3937C185.017 40.3454 181.354 44.7107 176.403 45.1439C171.451 45.5771 167.086 41.9142 166.652 36.9625L164.474 12.0577ZM171.497 23.4891L170.625 13.5271L166.64 13.8757L167.512 23.8377L171.497 23.4891Z" fill="#212123"/>
<path fill-rule="evenodd" clip-rule="evenodd" d="M163.477 12.1446C163.189 8.84348 165.631 5.93328 168.932 5.64447C172.233 5.35566 175.143 7.79761 175.432 11.0987L176.478 23.053L180.462 22.7044L179.417 10.7501C178.935 5.24825 174.085 1.17834 168.583 1.65969C163.081 2.14104 159.011 6.99137 159.493 12.4932L161.672 37.3981C162.297 44.5504 168.603 49.8413 175.755 49.2156C182.907 48.5898 188.198 42.2844 187.573 35.132L185.872 15.6928L181.887 16.0414L183.588 35.4806C184.021 40.4323 180.358 44.7976 175.406 45.2308C170.455 45.664 166.09 42.0011 165.656 37.0494L163.477 12.1446ZM170.5 23.576L169.629 13.614L165.644 13.9627L166.516 23.9246L170.5 23.576Z" fill="url(#paint12_linear_2512_31095)"/>
<path d="M196.549 167.092C198.329 167.539 201.184 168.023 203.223 168.209C206.004 167.092 209.897 164.299 211.566 163.741L205.448 156.48L197.662 159.272L195.437 161.506L178.195 169.884L184.313 158.714C188.021 155.176 195.659 147.878 196.549 146.984C197.661 145.867 205.448 145.867 212.678 143.074C218.448 140.846 222.689 142.516 224.358 144.191L247.161 169.884L299.998 200.046L269.408 233L237.185 192.549C236.537 191.735 235.298 191.461 234.257 191.486C233.44 191.505 232.469 191.421 231.496 191.287C228.949 190.937 226.554 189.923 224.301 188.684L205.236 178.199C204.645 177.874 203.983 177.706 203.309 177.698C200.853 177.668 196.978 177.532 195.437 177.146C193.212 176.587 181.532 174.353 182.088 169.884C182.645 165.416 194.324 166.533 196.549 167.092Z" fill="url(#paint13_linear_2512_31095)"/>
<mask id="mask3_2512_31095" style="mask-type:alpha" maskUnits="userSpaceOnUse" x="178" y="142" width="122" height="91">
<path d="M196.549 167.092C198.329 167.539 201.184 168.023 203.223 168.209C206.004 167.092 209.897 164.299 211.566 163.741L206.004 156.48L197.662 159.272L195.437 161.506L178.195 169.884L184.313 158.714C188.021 155.176 195.659 147.878 196.549 146.984C197.661 145.867 205.448 145.867 212.678 143.074C218.448 140.846 222.689 142.516 224.358 144.191L247.161 169.884L299.998 200.046L269.408 233L237.185 192.549C236.537 191.735 235.298 191.461 234.257 191.486C233.44 191.505 232.469 191.421 231.496 191.287C228.949 190.937 226.554 189.923 224.301 188.684L205.236 178.199C204.645 177.874 203.983 177.706 203.309 177.698C200.853 177.668 196.978 177.532 195.437 177.146C193.212 176.587 181.532 174.353 182.088 169.884C182.645 165.416 194.324 166.533 196.549 167.092Z" fill="url(#paint14_linear_2512_31095)"/>
</mask>
<g mask="url(#mask3_2512_31095)">
<g filter="url(#filter2_f_2512_31095)">
<path d="M199.467 169.679C196.124 167.868 195.059 163.24 194.901 160.538C194.876 160.114 195.147 159.737 195.548 159.597L240.176 143.963C241.607 143.461 243.183 144.144 243.797 145.53C244.431 146.964 243.815 148.643 242.403 149.326L200.303 169.682C200.038 169.811 199.727 169.82 199.467 169.679Z" fill="#E18357"/>
</g>
</g>
<path d="M172.508 172.945L178.641 171.91L179.174 173.593L174.117 177.435L167.999 177.353L172.508 172.945Z" fill="url(#paint15_linear_2512_31095)"/>
<path d="M188.878 159.049C188.754 158.987 188.604 159.037 188.542 159.16C188.48 159.284 188.53 159.434 188.653 159.496L188.878 159.049ZM190.681 164.34C190.778 163.752 190.806 162.687 190.581 161.649C190.358 160.619 189.87 159.547 188.878 159.049L188.653 159.496C189.441 159.891 189.88 160.774 190.092 161.755C190.303 162.728 190.275 163.729 190.188 164.258L190.681 164.34Z" fill="#F6B397"/>
<path d="M197.856 151.293C197.768 151.187 197.611 151.172 197.504 151.26C197.398 151.348 197.384 151.506 197.472 151.612L197.856 151.293ZM197.472 151.612C198.359 152.682 199.837 155.717 198.542 159.185L199.011 159.36C200.385 155.678 198.823 152.458 197.856 151.293L197.472 151.612Z" fill="#F6B397"/>
<path d="M209.222 155.144C209.101 155.212 209.058 155.364 209.125 155.484C209.193 155.605 209.345 155.648 209.466 155.581L209.222 155.144ZM214.657 147.515C214.478 149.131 213.14 152.959 209.222 155.144L209.466 155.581C213.557 153.298 214.962 149.306 215.154 147.57L214.657 147.515Z" fill="#F6B397"/>
<mask id="mask4_2512_31095" style="mask-type:alpha" maskUnits="userSpaceOnUse" x="168" y="171" width="12" height="7">
<path d="M172.508 172.945L178.641 171.91L179.174 173.593L174.117 177.435L167.999 177.353L172.508 172.945Z" fill="url(#paint16_linear_2512_31095)"/>
</mask>
<g mask="url(#mask4_2512_31095)">
<path d="M167.164 177.704L172.078 175.47" stroke="url(#paint17_linear_2512_31095)" stroke-width="0.25"/>
</g>
<path d="M176.924 170.579L198.08 159.823L199.206 159.293L202.887 167.768L179.085 175.781C178.586 175.949 178.042 175.702 177.841 175.215L176.453 171.852C176.254 171.37 176.459 170.816 176.924 170.579Z" fill="url(#paint18_linear_2512_31095)"/>
<path d="M199.471 169.679C196.128 167.868 195.063 163.24 194.905 160.538C194.88 160.114 195.151 159.737 195.552 159.597L240.18 143.963C241.611 143.461 243.187 144.144 243.801 145.53C244.435 146.964 243.819 148.643 242.407 149.326L200.307 169.682C200.042 169.811 199.73 169.82 199.471 169.679Z" fill="url(#paint19_linear_2512_31095)"/>
<path d="M181.987 177.023L185.984 171.002H191.545C191.175 172.305 189.877 175.47 187.652 177.704C186.393 178.969 184.718 179.458 183.233 179.577C181.856 179.687 181.223 178.173 181.987 177.023Z" fill="url(#paint20_linear_2512_31095)"/>
<path d="M187.549 178.14L191.546 172.119H197.108C196.737 173.422 195.439 176.587 193.215 178.821C191.956 180.086 190.281 180.575 188.795 180.694C187.419 180.804 186.786 179.29 187.549 178.14Z" fill="url(#paint21_linear_2512_31095)"/>
<path d="M193.112 178.14L197.109 172.119H202.67C202.3 173.422 201.002 176.587 198.777 178.821C197.518 180.086 195.843 180.575 194.358 180.694C192.981 180.804 192.348 179.29 193.112 178.14Z" fill="url(#paint22_linear_2512_31095)"/>
<path d="M196.55 167.092C198.33 167.539 201.741 168.023 203.781 168.209L204.337 177.704C202.112 177.704 197.218 177.592 195.438 177.146C193.213 176.587 181.533 174.353 182.09 169.884C182.646 165.416 194.325 166.533 196.55 167.092Z" fill="url(#paint23_linear_2512_31095)"/>
<g opacity="0.16" filter="url(#filter3_f_2512_31095)">
<path d="M69.9277 210.667L46.0807 266.037L8.09238 240.084L48.8708 190.845L53.8103 166.991L56.9479 159.052C57.0926 158.686 57.2906 158.343 57.5353 158.035L65.7209 147.726C66.326 146.964 67.188 146.449 68.1457 146.276L73.0009 145.403C75.1219 142.875 78.4051 140.247 80.882 141.787C82.8635 143.019 83.0392 144.135 82.8794 144.539C84.8987 140.849 87.6517 138.852 91.2907 140.29C94.2019 141.441 94.7118 143.699 94.6028 144.684C96.2996 142.662 98.7625 143.149 99.7818 143.646C103.158 144.756 103.498 148.2 103.246 149.784L99.1043 161.66C99.4238 160.927 100.692 159.313 103.907 157.338C106.835 155.539 109.121 156.072 110.316 156.82C110.709 157.065 110.754 157.583 110.503 157.972L107.918 161.971C107.527 162.576 107.307 163.275 107.28 163.994L107.052 170.157C106.999 171.566 106.65 172.947 106.026 174.211L99.5851 187.265C98.8834 188.687 97.8536 189.922 96.5807 190.867L69.9277 210.667Z" fill="url(#paint24_linear_2512_31095)"/>
</g>
<path d="M65.7766 206.925L37.367 260L2 230.838L46.6436 185.346L53.6011 162.016L57.3959 154.382C57.5707 154.03 57.7964 153.706 58.0658 153.42L67.0569 143.872C67.7263 143.161 68.6325 142.72 69.6048 142.631L74.4734 142.186C76.7926 139.852 80.2713 137.52 82.5904 139.27C84.4457 140.67 84.5231 141.797 84.3298 142.186C86.6489 138.686 89.5479 136.937 93.0266 138.686C95.8096 140.086 96.1188 142.38 95.9255 143.352C97.7809 141.486 100.177 142.186 101.144 142.769C104.39 144.169 104.429 147.629 104.043 149.185L98.9123 160.653C99.2921 159.951 100.688 158.454 104.043 156.767C107.099 155.23 109.316 155.961 110.435 156.81C110.802 157.089 110.802 157.606 110.52 157.971L107.611 161.733C107.173 162.3 106.895 162.975 106.806 163.686L106.044 169.819C105.871 171.212 105.407 172.552 104.682 173.753L97.1722 186.196C96.3528 187.554 95.2224 188.697 93.8742 189.532L65.7766 206.925Z" fill="url(#paint25_linear_2512_31095)"/>
<mask id="mask5_2512_31095" style="mask-type:alpha" maskUnits="userSpaceOnUse" x="1" y="137" width="110" height="123">
<path d="M65.7733 206.845L37.1912 259.926L1.60938 230.761L46.5241 185.263L53.5238 161.93L57.3414 154.295C57.5175 153.943 57.7445 153.619 58.0152 153.333L67.0682 143.777C67.7374 143.07 68.641 142.632 69.61 142.544L74.5229 142.097C76.8561 139.764 80.3559 137.431 82.6892 139.181C84.5558 140.581 84.6335 141.709 84.4391 142.097C86.7723 138.598 89.6889 136.848 93.1887 138.598C95.9886 139.998 96.2997 142.292 96.1053 143.264C97.9719 141.397 100.383 142.097 101.355 142.681C104.622 144.081 104.66 147.542 104.272 149.097L99.1101 160.567C99.4923 159.864 100.897 158.368 104.272 156.68C107.345 155.144 109.575 155.874 110.701 156.722C111.071 157.001 111.071 157.521 110.787 157.886L107.863 161.645C107.421 162.214 107.141 162.891 107.052 163.605L106.287 169.725C106.112 171.123 105.643 172.469 104.912 173.674L97.3574 186.117C96.5344 187.472 95.401 188.613 94.0505 189.444L65.7733 206.845Z" fill="url(#paint26_linear_2512_31095)"/>
</mask>
<g mask="url(#mask5_2512_31095)">
<path d="M97.8539 163.68L91.4375 177.096" stroke="#F6B397"/>
<path d="M96.6896 141.515L88.5828 155.195C87.7982 156.519 86.5165 157.474 85.0234 157.847V157.847" stroke="#F6B397"/>
<path d="M85.023 140.931L78.2833 150.078C77.3612 151.329 76.0316 152.22 74.5234 152.597V152.597" stroke="#F6B397"/>
<path d="M75.1076 140.931L65.1914 152.014" stroke="#F6B397"/>
</g>
<defs>
<filter id="filter0_f_2512_31095" x="74.8555" y="18.9614" width="143.305" height="198.531" filterUnits="userSpaceOnUse" color-interpolation-filters="sRGB">
<feFlood flood-opacity="0" result="BackgroundImageFix"/>
<feBlend mode="normal" in="SourceGraphic" in2="BackgroundImageFix" result="shape"/>
<feGaussianBlur stdDeviation="1" result="effect1_foregroundBlur_2512_31095"/>
</filter>
<filter id="filter1_f_2512_31095" x="170" y="150" width="129" height="100" filterUnits="userSpaceOnUse" color-interpolation-filters="sRGB">
<feFlood flood-opacity="0" result="BackgroundImageFix"/>
<feBlend mode="normal" in="SourceGraphic" in2="BackgroundImageFix" result="shape"/>
<feGaussianBlur stdDeviation="0.5" result="effect1_foregroundBlur_2512_31095"/>
</filter>
<filter id="filter2_f_2512_31095" x="186.898" y="135.798" width="65.1484" height="41.9834" filterUnits="userSpaceOnUse" color-interpolation-filters="sRGB">
<feFlood flood-opacity="0" result="BackgroundImageFix"/>
<feBlend mode="normal" in="SourceGraphic" in2="BackgroundImageFix" result="shape"/>
<feGaussianBlur stdDeviation="4" result="effect1_foregroundBlur_2512_31095"/>
</filter>
<filter id="filter3_f_2512_31095" x="7.09375" y="138.821" width="104.566" height="128.216" filterUnits="userSpaceOnUse" color-interpolation-filters="sRGB">
<feFlood flood-opacity="0" result="BackgroundImageFix"/>
<feBlend mode="normal" in="SourceGraphic" in2="BackgroundImageFix" result="shape"/>
<feGaussianBlur stdDeviation="0.5" result="effect1_foregroundBlur_2512_31095"/>
</filter>
<linearGradient id="paint0_linear_2512_31095" x1="107.331" y1="202.261" x2="105.862" y2="208.413" gradientUnits="userSpaceOnUse">
<stop stop-color="#FFEFF6"/>
<stop offset="1" stop-color="#F6B8D4"/>
</linearGradient>
<linearGradient id="paint1_linear_2512_31095" x1="92.5435" y1="211.084" x2="207.608" y2="134.693" gradientUnits="userSpaceOnUse">
<stop stop-color="#E9EDF5"/>
<stop offset="1" stop-color="white" stop-opacity="0"/>
</linearGradient>
<linearGradient id="paint2_linear_2512_31095" x1="142.479" y1="81.5723" x2="145.01" y2="110.498" gradientUnits="userSpaceOnUse">
<stop stop-color="#552200"/>
<stop offset="1" stop-color="#8F3900"/>
</linearGradient>
<linearGradient id="paint3_linear_2512_31095" x1="142.837" y1="95.2588" x2="150.604" y2="111.745" gradientUnits="userSpaceOnUse">
<stop stop-color="#FFAD7B"/>
<stop offset="0.740514" stop-color="#FBDFD1"/>
</linearGradient>
<linearGradient id="paint4_linear_2512_31095" x1="129.979" y1="81.6931" x2="130.823" y2="91.3478" gradientUnits="userSpaceOnUse">
<stop offset="0.385917" stop-color="#FFD6C1"/>
<stop offset="1" stop-color="#FBDFD1"/>
</linearGradient>
<linearGradient id="paint5_linear_2512_31095" x1="159.67" y1="81.1375" x2="162.17" y2="89.0498" gradientUnits="userSpaceOnUse">
<stop stop-color="#FFD6C1"/>
<stop offset="1" stop-color="#FBDFD1"/>
</linearGradient>
<linearGradient id="paint6_linear_2512_31095" x1="137.794" y1="68.5977" x2="150.323" y2="98.2184" gradientUnits="userSpaceOnUse">
<stop stop-color="#FFC8AC"/>
<stop offset="0.750181" stop-color="#FBDFD1"/>
</linearGradient>
<linearGradient id="paint7_linear_2512_31095" x1="137.58" y1="107.463" x2="153.259" y2="121.45" gradientUnits="userSpaceOnUse">
<stop stop-color="#EE5599"/>
<stop offset="1" stop-color="#F288B7"/>
</linearGradient>
<linearGradient id="paint8_linear_2512_31095" x1="111.047" y1="151.228" x2="187.047" y2="151.228" gradientUnits="userSpaceOnUse">
<stop stop-color="#F6B8D4"/>
<stop offset="1" stop-color="white"/>
</linearGradient>
<linearGradient id="paint9_linear_2512_31095" x1="112.441" y1="167.167" x2="168.441" y2="167.167" gradientUnits="userSpaceOnUse">
<stop stop-color="#F6B8D4"/>
<stop offset="1" stop-color="white"/>
</linearGradient>
<linearGradient id="paint10_linear_2512_31095" x1="113.836" y1="183.106" x2="153.836" y2="183.106" gradientUnits="userSpaceOnUse">
<stop stop-color="#F6B8D4"/>
<stop offset="1" stop-color="white"/>
</linearGradient>
<linearGradient id="paint11_linear_2512_31095" x1="223.676" y1="163.721" x2="271.859" y2="221.532" gradientUnits="userSpaceOnUse">
<stop stop-color="#850055"/>
<stop offset="1" stop-color="#FBE3EE" stop-opacity="0"/>
</linearGradient>
<linearGradient id="paint12_linear_2512_31095" x1="186.501" y1="21.5" x2="160.501" y2="23.5" gradientUnits="userSpaceOnUse">
<stop stop-color="#212123"/>
<stop offset="1" stop-color="#434346"/>
</linearGradient>
<linearGradient id="paint13_linear_2512_31095" x1="197.105" y1="146.426" x2="283.609" y2="217.559" gradientUnits="userSpaceOnUse">
<stop stop-color="#FFD2BC"/>
<stop offset="0.607987" stop-color="#FBDFD1"/>
<stop offset="1" stop-color="#FFC8AC" stop-opacity="0"/>
</linearGradient>
<linearGradient id="paint14_linear_2512_31095" x1="197.105" y1="146.426" x2="283.609" y2="217.559" gradientUnits="userSpaceOnUse">
<stop stop-color="#FBDFD1"/>
<stop offset="0.492758" stop-color="#FFC8AC"/>
<stop offset="1" stop-color="#FFC8AC" stop-opacity="0"/>
</linearGradient>
<linearGradient id="paint15_linear_2512_31095" x1="168.186" y1="177.146" x2="176.547" y2="172.15" gradientUnits="userSpaceOnUse">
<stop stop-color="#EEEEF1"/>
<stop offset="1" stop-color="#DAE2F7"/>
</linearGradient>
<linearGradient id="paint16_linear_2512_31095" x1="168.186" y1="177.146" x2="176.547" y2="172.15" gradientUnits="userSpaceOnUse">
<stop stop-color="#EEEEF1"/>
<stop offset="1" stop-color="#DAE2F7"/>
</linearGradient>
<linearGradient id="paint17_linear_2512_31095" x1="172.078" y1="175.47" x2="168.179" y2="177.134" gradientUnits="userSpaceOnUse">
<stop stop-color="#E6E9F4"/>
<stop offset="1" stop-color="#6B6B6B"/>
</linearGradient>
<linearGradient id="paint18_linear_2512_31095" x1="187.375" y1="165.138" x2="190.006" y2="171.902" gradientUnits="userSpaceOnUse">
<stop stop-color="#BDBDC0"/>
<stop offset="1" stop-color="#757578"/>
</linearGradient>
<linearGradient id="paint19_linear_2512_31095" x1="215.461" y1="152.57" x2="218.823" y2="160.938" gradientUnits="userSpaceOnUse">
<stop stop-color="#444447"/>
<stop offset="1" stop-color="#212123"/>
</linearGradient>
<linearGradient id="paint20_linear_2512_31095" x1="184.315" y1="173.795" x2="188.22" y2="176.572" gradientUnits="userSpaceOnUse">
<stop stop-color="#F6B397"/>
<stop offset="1" stop-color="#FFC8AD"/>
</linearGradient>
<linearGradient id="paint21_linear_2512_31095" x1="189.878" y1="174.911" x2="193.782" y2="177.688" gradientUnits="userSpaceOnUse">
<stop stop-color="#F6B397"/>
<stop offset="1" stop-color="#FFC8AD"/>
</linearGradient>
<linearGradient id="paint22_linear_2512_31095" x1="195.44" y1="174.911" x2="199.345" y2="177.688" gradientUnits="userSpaceOnUse">
<stop stop-color="#F6B397"/>
<stop offset="1" stop-color="#FFC8AD"/>
</linearGradient>
<linearGradient id="paint23_linear_2512_31095" x1="203.781" y1="167.65" x2="202.659" y2="177.145" gradientUnits="userSpaceOnUse">
<stop offset="0.0520602" stop-color="#F0B192"/>
<stop offset="0.283154" stop-color="#F5C2A9"/>
<stop offset="0.603718" stop-color="#FBD0BB"/>
<stop offset="0.890818" stop-color="#FDD4C0"/>
</linearGradient>
<linearGradient id="paint24_linear_2512_31095" x1="81.6664" y1="144.06" x2="28.3359" y2="250.609" gradientUnits="userSpaceOnUse">
<stop stop-color="#850055"/>
<stop offset="1" stop-color="#FCE0D2" stop-opacity="0"/>
</linearGradient>
<linearGradient id="paint25_linear_2512_31095" x1="83.1702" y1="141.603" x2="20.5975" y2="242.755" gradientUnits="userSpaceOnUse">
<stop stop-color="#FFC8AD"/>
<stop offset="0.570194" stop-color="#FBDFD1"/>
<stop offset="1" stop-color="#FCE0D2" stop-opacity="0"/>
</linearGradient>
<linearGradient id="paint26_linear_2512_31095" x1="83.2725" y1="141.515" x2="20.8585" y2="243.01" gradientUnits="userSpaceOnUse">
<stop stop-color="#FBDFD1"/>
<stop offset="0.600266" stop-color="#FFC8AD"/>
<stop offset="1" stop-color="#FFC9AE" stop-opacity="0"/>
</linearGradient>
</defs>
</svg>
