<svg width="35" height="33" viewBox="0 0 35 33" fill="none" xmlns="http://www.w3.org/2000/svg">
<g filter="url(#filter0_i_1232_12368)">
<path d="M15.6537 1.4342C16.3372 -0.207418 18.6628 -0.207417 19.3463 1.4342L22.5929 9.23118C22.8811 9.92334 23.5322 10.3962 24.2796 10.456L32.7025 11.1305C34.4764 11.2726 35.1953 13.4868 33.8431 14.6438L27.429 20.132C26.8587 20.62 26.6097 21.3861 26.784 22.1162L28.7442 30.3245C29.1573 32.0546 27.2757 33.4228 25.7572 32.4964L18.5417 28.0941C17.902 27.7038 17.098 27.7038 16.4583 28.0941L9.2428 32.4964C7.72434 33.4228 5.84267 32.0547 6.25583 30.3245L8.216 22.1162C8.39034 21.3861 8.14126 20.62 7.57098 20.132L1.15692 14.6438C-0.195258 13.4868 0.523612 11.2726 2.29754 11.1305L10.7204 10.456C11.4678 10.3962 12.1189 9.92334 12.4071 9.23118L15.6537 1.4342Z" fill="#424245"/>
</g>
<defs>
<filter id="filter0_i_1232_12368" x="0.453125" y="0.202881" width="34.0938" height="32.5923" filterUnits="userSpaceOnUse" color-interpolation-filters="sRGB">
<feFlood flood-opacity="0" result="BackgroundImageFix"/>
<feBlend mode="normal" in="SourceGraphic" in2="BackgroundImageFix" result="shape"/>
<feColorMatrix in="SourceAlpha" type="matrix" values="0 0 0 0 0 0 0 0 0 0 0 0 0 0 0 0 0 0 127 0" result="hardAlpha"/>
<feOffset dx="1" dy="1"/>
<feComposite in2="hardAlpha" operator="arithmetic" k2="-1" k3="1"/>
<feColorMatrix type="matrix" values="0 0 0 0 0 0 0 0 0 0 0 0 0 0 0 0 0 0 0.02 0"/>
<feBlend mode="normal" in2="shape" result="effect1_innerShadow_1232_12368"/>
</filter>
</defs>
</svg>
