<svg viewBox="0 0 104 106" fill="none" preserveAspectRatio="none" xmlns="http://www.w3.org/2000/svg">
<path d="M74.6087 27.0638C74.6087 37.1718 69.9796 45.9855 63.1207 50.6328C61.8881 51.468 61.0435 52.8089 61.0435 54.2977V60.6741C61.0435 62.1906 61.9011 63.5767 63.2581 64.2535L92.9267 79.0514C99.712 82.4357 104 89.3662 104 96.9487V106H0V96.9487C0 89.3662 4.28797 82.4357 11.0733 79.0514L40.7419 64.2535C42.0989 63.5767 42.9565 62.1906 42.9565 60.6741V54.2977C42.9565 52.8089 42.1119 51.468 40.8793 50.6328C34.0204 45.9854 29.3913 37.1718 29.3913 27.0638C29.3913 12.1169 39.5136 0 52 0C64.4864 0 74.6087 12.1169 74.6087 27.0638Z" fill="white"/>
</svg>
